{
.appVersion = "1270";
copyright = "Copyright (c) 2018 by Peter S. Baker";
customParameters = (
{
name = note;
value = "2015-8-14: Created with FontForge (http://fontforge.org)\012\012Pen angle is about 27 degrees.";
},
{
name = openTypeNameVersion;
value = "Version 1.000";
},
{
name = openTypeOS2FamilyClass;
value = (
9,
2
);
},
{
name = fsType;
value = (
);
},
{
name = vendorID;
value = PfEd;
},
{
name = blueFuzz;
value = 1;
},
{
name = blueScale;
value = 0.04;
},
{
name = blueShift;
value = 7;
}
);
date = "2015-08-14 19:28:01 +0000";
disablesNiceNames = 1;
familyName = ParkerChronicle;
featurePrefixes = (
{
code = "languagesystem DFLT dflt;\012languagesystem latn dflt;\012\012";
name = Languagesystems;
},
{

glyphs = (
{
glyphname = A;
layers = (
{
anchors = (
{
name = top;
position = "{280, 570}";
}
);
layerId = master01;
paths = (
{
closed = 1;
nodes = (
"42 -23 OFFCURVE",
"75 0 OFFCURVE",
"94 0 CURVE SMOOTH",
"114 0 OFFCURVE",
"126 -7 OFFCURVE",
"138 -7 CURVE SMOOTH",
"157 -7 OFFCURVE",
"172 11 OFFCURVE",
"172 22 CURVE SMOOTH",
"172 31 OFFCURVE",
"166 38 OFFCURVE",
"155 45 CURVE SMOOTH",
"129 61 OFFCURVE",
"111 91 OFFCURVE",
"111 131 CURVE SMOOTH",
"111 168 OFFCURVE",
"136 259 OFFCURVE",
"144 287 CURVE SMOOTH",
"148 301 OFFCURVE",
"153 302 OFFCURVE",
"163 300 CURVE SMOOTH",
"199 293 OFFCURVE",
"229 291 OFFCURVE",
"290 291 CURVE SMOOTH",
"302 291 OFFCURVE",
"308 285 OFFCURVE",
"311 273 CURVE SMOOTH",
"323 224 OFFCURVE",
"364 80 OFFCURVE",
"364 60 CURVE SMOOTH",
"364 41 OFFCURVE",
"346 29 OFFCURVE",
"333 26 CURVE SMOOTH",
"323 24 OFFCURVE",
"308 17 OFFCURVE",
"308 7 CURVE SMOOTH",
"308 -4 OFFCURVE",
"327 -9 OFFCURVE",
"340 -9 CURVE SMOOTH",
"362 -9 OFFCURVE",
"389 0 OFFCURVE",
"404 0 CURVE SMOOTH",
"507 0 LINE SMOOTH",
"515 0 OFFCURVE",
"527 -4 OFFCURVE",
"537 -4 CURVE SMOOTH",
"546 -4 OFFCURVE",
"555 2 OFFCURVE",
"555 12 CURVE SMOOTH",
"555 26 OFFCURVE",
"534 31 OFFCURVE",
"517 33 CURVE SMOOTH",
"494 36 OFFCURVE",
"483 65 OFFCURVE",
"476 90 CURVE SMOOTH",
"450 179 OFFCURVE",
"380 407 OFFCURVE",
"353 488 CURVE SMOOTH",
"341 523 OFFCURVE",
"338 543 OFFCURVE",
"338 584 CURVE SMOOTH",
"338 610 OFFCURVE",
"317 611 OFFCURVE",
"297 611 CURVE SMOOTH",
"172 611 LINE SMOOTH",
"158 611 OFFCURVE",
"121 616 OFFCURVE",
"117 616 CURVE SMOOTH",
"110 616 OFFCURVE",
"104 612 OFFCURVE",
"104 605 CURVE SMOOTH",
"104 598 OFFCURVE",
"110 590 OFFCURVE",
"119 588 CURVE SMOOTH",
"140 583 OFFCURVE",
"166 574 OFFCURVE",
"166 563 CURVE SMOOTH",
"166 547 OFFCURVE",
"105 358 OFFCURVE",
"72 220 CURVE SMOOTH",
"56 154 OFFCURVE",
"53 80 OFFCURVE",
"25 24 CURVE SMOOTH",
"22 18 OFFCURVE",
"18 9 OFFCURVE",
"18 -3 CURVE SMOOTH",
"18 -15 OFFCURVE",
"22 -23 OFFCURVE",
"31 -23 CURVE SMOOTH"
);
},
{
closed = 1;
nodes = (
"241 326 OFFCURVE",
"204 330 OFFCURVE",
"172 334 CURVE SMOOTH",
"164 335 OFFCURVE",
"160 340 OFFCURVE",
"160 345 CURVE SMOOTH",
"160 350 OFFCURVE",
"162 355 OFFCURVE",
"163 359 CURVE SMOOTH",
"180 414 OFFCURVE",
"197 475 OFFCURVE",
"213 540 CURVE SMOOTH",
"215 548 OFFCURVE",
"218 551 OFFCURVE",
"221 551 CURVE SMOOTH",
"224 551 OFFCURVE",
"229 548 OFFCURVE",
"235 540 CURVE SMOOTH",
"259 508 OFFCURVE",
"290 346 OFFCURVE",
"290 340 CURVE SMOOTH",
"290 332 OFFCURVE",
"288 326 OFFCURVE",
"277 326 CURVE SMOOTH"
);
}
);
userData = {
com.schriftgestaltung.Glyphs.lastChange = "2019-09-04 17:02:20 +0000";
};
width = 534;
}
);
unicode = 0041;
},
{
glyphname = Aring;
layers = (
{
layerId = master01;
paths = (
{
closed = 1;
nodes = (
"160 340 OFFCURVE",
"164 335 OFFCURVE",
"172 334 CURVE SMOOTH",
"204 329 OFFCURVE",
"241 326 OFFCURVE",
"277 326 CURVE SMOOTH",
"288 326 OFFCURVE",
"290 332 OFFCURVE",
"290 340 CURVE SMOOTH",
"290 343 OFFCURVE",
"290 346 OFFCURVE",
"289 349 CURVE SMOOTH",
"283 377 OFFCURVE",
"279 396 OFFCURVE",
"273 419 CURVE SMOOTH",
"266 443 OFFCURVE",
"262 468 OFFCURVE",
"256 492 CURVE SMOOTH",
"250 513 OFFCURVE",
"246 524 OFFCURVE",
"224 524 CURVE SMOOTH",
"210 524 OFFCURVE",
"206 513 OFFCURVE",
"201 495 CURVE SMOOTH",
"188 446 OFFCURVE",
"173 399 OFFCURVE",
"161 350 CURVE SMOOTH",
"161 349 OFFCURVE",
"160 347 OFFCURVE",
"160 346 CURVE SMOOTH"
);
},
{
closed = 1;
nodes = (
"17 8 OFFCURVE",
"22 18 OFFCURVE",
"25 24 CURVE SMOOTH",
"50 81 OFFCURVE",
"57 154 OFFCURVE",
"72 220 CURVE SMOOTH",
"96 324 OFFCURVE",
"128 425 OFFCURVE",
"157 528 CURVE SMOOTH",
"159 536 OFFCURVE",
"160 542 OFFCURVE",
"160 547 CURVE SMOOTH",
"160 555 OFFCURVE",
"157 561 OFFCURVE",
"151 572 CURVE SMOOTH",
"138 596 OFFCURVE",
"131 624 OFFCURVE",
"131 647 CURVE SMOOTH",
"131 676 OFFCURVE",
"144 696 OFFCURVE",
"160 715 CURVE SMOOTH",
"176 734 OFFCURVE",
"210 765 OFFCURVE",
"254 765 CURVE SMOOTH",
"304 765 OFFCURVE",
"345 726 OFFCURVE",
"345 675 CURVE SMOOTH",
"345 662 OFFCURVE",
"334 627 OFFCURVE",
"332 614 CURVE SMOOTH",
"329 598 OFFCURVE",
"328 593 OFFCURVE",
"328 573 CURVE SMOOTH",
"328 542 OFFCURVE",
"338 515 OFFCURVE",
"346 488 CURVE SMOOTH",
"366 423 OFFCURVE",
"380 359 OFFCURVE",
"402 297 CURVE SMOOTH",
"426 228 OFFCURVE",
"445 159 OFFCURVE",
"467 90 CURVE SMOOTH",
"475 65 OFFCURVE",
"484.507 36.749 OFFCURVE",
"507 33 CURVE SMOOTH",
"519 31 OFFCURVE",
"545 26 OFFCURVE",
"545 12 CURVE SMOOTH",
"545 2 OFFCURVE",
"536 -4 OFFCURVE",
"527 -4 CURVE SMOOTH",
"517 -4 OFFCURVE",
"505 0 OFFCURVE",
"497 0 CURVE SMOOTH",
"484 0 OFFCURVE",
"470 -2 OFFCURVE",
"455 -2 CURVE SMOOTH",
"441 -2 OFFCURVE",
"418 0 OFFCURVE",
"404 0 CURVE SMOOTH",
"389 0 OFFCURVE",
"362 -9 OFFCURVE",
"340 -9 CURVE SMOOTH",
"329 -9 OFFCURVE",
"308 -5 OFFCURVE",
"308 10 CURVE SMOOTH",
"308 20 OFFCURVE",
"323.765 23.827 OFFCURVE",
"333 26 CURVE SMOOTH",
"350 30 OFFCURVE",
"364 41 OFFCURVE",
"364 60 CURVE SMOOTH",
"364 83 OFFCURVE",
"354 106 OFFCURVE",
"349 128 CURVE SMOOTH",
"337 182 OFFCURVE",
"325 222 OFFCURVE",
"311 273 CURVE SMOOTH",
"308 285 OFFCURVE",
"302 291 OFFCURVE",
"290 291 CURVE SMOOTH",
"284 291 OFFCURVE",
"278 290 OFFCURVE",
"271 290 CURVE SMOOTH",
"234 290 OFFCURVE",
"196 294 OFFCURVE",
"163 300 CURVE SMOOTH",
"161 300 OFFCURVE",
"159 301 OFFCURVE",
"157 301 CURVE SMOOTH",
"150 301 OFFCURVE",
"147 298 OFFCURVE",
"144 287 CURVE SMOOTH",
"139 266 OFFCURVE",
"137 257 OFFCURVE",
"132 237 CURVE SMOOTH",
"123 201 OFFCURVE",
"111 170 OFFCURVE",
"111 131 CURVE SMOOTH",
"111 91 OFFCURVE",
"129 61 OFFCURVE",
"155 45 CURVE SMOOTH",
"166 38 OFFCURVE",
"172 31 OFFCURVE",
"172 22 CURVE SMOOTH",
"172 11 OFFCURVE",
"157 -7 OFFCURVE",
"138 -7 CURVE SMOOTH",
"126 -7 OFFCURVE",
"118 0 OFFCURVE",
"108 0 CURVE SMOOTH",
"87 0 OFFCURVE",
"66 0 OFFCURVE",
"57 -10 CURVE SMOOTH",
"52 -15 OFFCURVE",
"42 -23 OFFCURVE",
"31 -23 CURVE SMOOTH",
"22 -23 OFFCURVE",
"17 -16 OFFCURVE",
"17 -4 CURVE SMOOTH"
);
},
{
closed = 1;
nodes = (
"192 665 OFFCURVE",
"194 654 OFFCURVE",
"198 643 CURVE SMOOTH",
"208 618 OFFCURVE",
"226 574 OFFCURVE",
"261 574 CURVE SMOOTH",
"284 574 OFFCURVE",
"292 596 OFFCURVE",
"292 619 CURVE SMOOTH",
"292 665 OFFCURVE",
"262 699 OFFCURVE",
"229 713 CURVE SMOOTH",
"226 714 OFFCURVE",
"224 714 OFFCURVE",
"221 714 CURVE SMOOTH",
"203 714 OFFCURVE",
"192 698 OFFCURVE",
"192 679 CURVE SMOOTH"
);
}
);
width = 541;
}
);
unicode = 00C5;
},
{
glyphname = AE;
layers = (
{
anchors = (
{
name = top;
position = "{358, 570}";
}
);
layerId = master01;
paths = (
{
closed = 1;
nodes = (
"3 27 OFFCURVE",
"10.96 36.147 OFFCURVE",
"18 38 CURVE SMOOTH",
"37 43 OFFCURVE",
"40 43 OFFCURVE",
"49 81 CURVE SMOOTH",
"58 118 OFFCURVE",
"77 151 OFFCURVE",
"89 182 CURVE SMOOTH",
"119 258 OFFCURVE",
"148 337 OFFCURVE",
"178 413 CURVE SMOOTH",
"189 441 OFFCURVE",
"199 468 OFFCURVE",
"207 496 CURVE SMOOTH",
"225 561 LINE",
"214 561 LINE SMOOTH",
"195 561 OFFCURVE",
"174 560 OFFCURVE",
"154 560 CURVE SMOOTH",
"145 560 OFFCURVE",
"141 572 OFFCURVE",
"141 584 CURVE SMOOTH",
"141 596 OFFCURVE",
"145 607 OFFCURVE",
"155 607 CURVE SMOOTH",
"162 607 OFFCURVE",
"170 605 OFFCURVE",
"177 605 CURVE SMOOTH",
"189 604 OFFCURVE",
"202 604 OFFCURVE",
"216 604 CURVE SMOOTH",
"218 604 OFFCURVE",
"220 604 OFFCURVE",
"222 604 CURVE SMOOTH",
"248 604 OFFCURVE",
"267 614 OFFCURVE",
"291 614 CURVE SMOOTH",
"315 614 OFFCURVE",
"331 607 OFFCURVE",
"351 607 CURVE SMOOTH",
"407 607 OFFCURVE",
"449 623 OFFCURVE",
"506 623 CURVE SMOOTH",
"521 623 OFFCURVE",
"525 619 OFFCURVE",
"530 619 CURVE SMOOTH",
"531 619 OFFCURVE",
"533 622 OFFCURVE",
"542 622 CURVE SMOOTH",
"566 622 OFFCURVE",
"567 588 OFFCURVE",
"567 574 CURVE SMOOTH",
"567 561 OFFCURVE",
"566 547 OFFCURVE",
"566 537 CURVE SMOOTH",
"566 533 OFFCURVE",
"567 529 OFFCURVE",
"567 522 CURVE SMOOTH",
"567 491 OFFCURVE",
"550 481 OFFCURVE",
"533 481 CURVE SMOOTH",
"517 481 OFFCURVE",
"513 510 OFFCURVE",
"513 525 CURVE SMOOTH",
"513 533 LINE SMOOTH",
"513 555 OFFCURVE",
"496 567 OFFCURVE",
"474 567 CURVE SMOOTH",
"445 567 OFFCURVE",
"417 559 OFFCURVE",
"390 555 CURVE",
"380 529 OFFCURVE",
"369 511 OFFCURVE",
"369 485 CURVE SMOOTH",
"369 455 OFFCURVE",
"380 425 OFFCURVE",
"380 392 CURVE",
"390 389 OFFCURVE",
"402 387 OFFCURVE",
"419 387 CURVE SMOOTH",
"430 387 OFFCURVE",
"442 388 OFFCURVE",
"455 388 CURVE SMOOTH",
"486 388 OFFCURVE",
"500 389 OFFCURVE",
"514 396 CURVE SMOOTH",
"521 400 OFFCURVE",
"529 402 OFFCURVE",
"536 402 CURVE SMOOTH",
"560 402 OFFCURVE",
"565 383 OFFCURVE",
"565 363 CURVE SMOOTH",
"565 350 OFFCURVE",
"563 337 OFFCURVE",
"563 329 CURVE SMOOTH",
"563 321 OFFCURVE",
"562 314 OFFCURVE",
"562 310 CURVE SMOOTH",
"562 308 OFFCURVE",
"566 302 OFFCURVE",
"566 291 CURVE SMOOTH",
"566 264 OFFCURVE",
"544 258 OFFCURVE",
"529 258 CURVE SMOOTH",
"506 258 OFFCURVE",
"505 275 OFFCURVE",
"505 290 CURVE SMOOTH",
"505 300 LINE SMOOTH",
"505 308 OFFCURVE",
"504 316 OFFCURVE",
"505 319 CURVE",
"493 318 OFFCURVE",
"483 314 OFFCURVE",
"470 313 CURVE SMOOTH",
"420 311 OFFCURVE",
"392 314 OFFCURVE",
"376 300 CURVE",
"376 291 OFFCURVE",
"377 286 OFFCURVE",
"377 278 CURVE SMOOTH",
"377 251 OFFCURVE",
"370 230 OFFCURVE",
"370 209 CURVE SMOOTH",
"370 188 OFFCURVE",
"377 167 OFFCURVE",
"377 141 CURVE SMOOTH",
"377 126 OFFCURVE",
"375 113 OFFCURVE",
"375 99 CURVE SMOOTH",
"375 68 OFFCURVE",
"381 54 OFFCURVE",
"400 54 CURVE SMOOTH",
"470 54 OFFCURVE",
"511 67 OFFCURVE",
"531 96 CURVE SMOOTH",
"533 99 OFFCURVE",
"542 112 OFFCURVE",
"553 112 CURVE SMOOTH",
"566 112 OFFCURVE",
"570 96 OFFCURVE",
"571 86 CURVE SMOOTH",
"572 72 OFFCURVE",
"586 62 OFFCURVE",
"586 31 CURVE SMOOTH",
"586 22 LINE SMOOTH",
"586 5 OFFCURVE",
"584 -30 OFFCURVE",
"562 -30 CURVE SMOOTH",
"544 -30 OFFCURVE",
"535 -15 OFFCURVE",
"533 -14 CURVE SMOOTH",
"503 -7 OFFCURVE",
"431 -1 OFFCURVE",
"380 -1 CURVE SMOOTH",
"364 -1 OFFCURVE",
"349 -6 OFFCURVE",
"327 -6 CURVE SMOOTH",
"317 -6 OFFCURVE",
"307 -5 OFFCURVE",
"299 -5 CURVE SMOOTH",
"285 -5 OFFCURVE",
"272 -11 OFFCURVE",
"251 -11 CURVE SMOOTH",
"244 -11 OFFCURVE",
"237 -11 OFFCURVE",
"229 -8 CURVE SMOOTH",
"220 -5 OFFCURVE",
"214 7 OFFCURVE",
"214 17 CURVE SMOOTH",
"214 27 OFFCURVE",
"220 36 OFFCURVE",
"235 36 CURVE SMOOTH",
"249 36 OFFCURVE",
"256 38 OFFCURVE",
"256 53 CURVE SMOOTH",
"256 60 OFFCURVE",
"254 68 OFFCURVE",
"254 78 CURVE SMOOTH",
"254 111 OFFCURVE",
"265 135 OFFCURVE",
"265 162 CURVE SMOOTH",
"265 208 OFFCURVE",
"262 257 OFFCURVE",
"262 304 CURVE",
"255 307 OFFCURVE",
"247 308 OFFCURVE",
"237 308 CURVE SMOOTH",
"227 308 OFFCURVE",
"205 307 OFFCURVE",
"195 305 CURVE",
"182 268 OFFCURVE",
"169 234 OFFCURVE",
"153 200 CURVE SMOOTH",
"140 172 OFFCURVE",
"137 122 OFFCURVE",
"137 82 CURVE SMOOTH",
"137 63 OFFCURVE",
"173 65 OFFCURVE",
"173 48 CURVE SMOOTH",
"173 27 OFFCURVE",
"151 19 OFFCURVE",
"137 15 CURVE SMOOTH",
"119 10 OFFCURVE",
"120 1 OFFCURVE",
"101 1 CURVE SMOOTH",
"75 1 OFFCURVE",
"91 -7 OFFCURVE",
"54 -7 CURVE SMOOTH",
"35 -7 OFFCURVE",
"23 -5 OFFCURVE",
"12 2 CURVE SMOOTH",
"8 5 OFFCURVE",
"3 9 OFFCURVE",
"3 16 CURVE SMOOTH"
);
},
{
closed = 1;
nodes = (
"220 361 OFFCURVE",
"234 361 OFFCURVE",
"239 361 CURVE SMOOTH",
"247 361 OFFCURVE",
"256 363 OFFCURVE",
"263 366 CURVE",
"263 384 LINE SMOOTH",
"263 417 OFFCURVE",
"269 482 OFFCURVE",
"269 512 CURVE",
"255 473 OFFCURVE",
"227 403 OFFCURVE",
"214 363 CURVE"
);
}
);
userData = {
com.schriftgestaltung.Glyphs.lastChange = "2019-09-04 17:04:58 +0000";
};
width = 591;
}
);
unicode = 00C6;
},
{
glyphname = B;
layers = (
{
anchors = (
{
name = top;
position = "{265, 570}";
}
);
layerId = master01;
paths = (
{
closed = 1;
nodes = (
"184 255 OFFCURVE",
"185 239 OFFCURVE",
"185 226 CURVE SMOOTH",
"185 203 OFFCURVE",
"185 149 OFFCURVE",
"185 126 CURVE SMOOTH",
"187 109 OFFCURVE",
"189 86 OFFCURVE",
"189 72 CURVE SMOOTH",
"189 57 OFFCURVE",
"206 32 OFFCURVE",
"230 32 CURVE SMOOTH",
"269 32 OFFCURVE",
"306 51 OFFCURVE",
"319 70 CURVE SMOOTH",
"335 93 OFFCURVE",
"351 142 OFFCURVE",
"351 173 CURVE SMOOTH",
"351 204 OFFCURVE",
"334 254 OFFCURVE",
"315 273 CURVE SMOOTH",
"306 282 OFFCURVE",
"297 291 OFFCURVE",
"282 296 CURVE SMOOTH",
"264 302 OFFCURVE",
"250 307 OFFCURVE",
"234 307 CURVE SMOOTH",
"223 307 OFFCURVE",
"213 305 OFFCURVE",
"201 300 CURVE SMOOTH",
"187 294 OFFCURVE",
"184 291 OFFCURVE",
"184 269 CURVE SMOOTH"
);
},
{
closed = 1;
nodes = (
"6 625 OFFCURVE",
"12 631 OFFCURVE",
"25 631 CURVE SMOOTH",
"42 631 OFFCURVE",
"56 626 OFFCURVE",
"70 624 CURVE SMOOTH",
"89 621 OFFCURVE",
"123 620 OFFCURVE",
"152 620 CURVE SMOOTH",
"186 620 OFFCURVE",
"202 636 OFFCURVE",
"245 636 CURVE SMOOTH",
"332 636 OFFCURVE",
"442 609 OFFCURVE",
"442 502 CURVE SMOOTH",
"442 465 OFFCURVE",
"425 426 OFFCURVE",
"415 406 CURVE SMOOTH",
"406 390 OFFCURVE",
"397 374 OFFCURVE",
"385 361 CURVE SMOOTH",
"380 355 OFFCURVE",
"377 350 OFFCURVE",
"377 345 CURVE SMOOTH",
"377 338 OFFCURVE",
"382 332 OFFCURVE",
"392 327 CURVE SMOOTH",
"444 303 OFFCURVE",
"485 260 OFFCURVE",
"485 201 CURVE SMOOTH",
"485 125 OFFCURVE",
"446 71 OFFCURVE",
"403 38 CURVE SMOOTH",
"361 7 OFFCURVE",
"300 -7 OFFCURVE",
"226 -7 CURVE SMOOTH",
"212 -7 OFFCURVE",
"199 -6 OFFCURVE",
"188 -5 CURVE SMOOTH",
"175 -4 OFFCURVE",
"166 -3 OFFCURVE",
"159 3 CURVE SMOOTH",
"150 10 OFFCURVE",
"141 16 OFFCURVE",
"134 16 CURVE SMOOTH",
"119 16 OFFCURVE",
"114 0 OFFCURVE",
"85 0 CURVE SMOOTH",
"71 0 OFFCURVE",
"60 5 OFFCURVE",
"56 5 CURVE SMOOTH",
"54 5 OFFCURVE",
"45 0 OFFCURVE",
"33 0 CURVE SMOOTH",
"18 0 OFFCURVE",
"11 13 OFFCURVE",
"11 21 CURVE SMOOTH",
"11 37 OFFCURVE",
"22 42 OFFCURVE",
"41 47 CURVE SMOOTH",
"77 56 OFFCURVE",
"82 58 OFFCURVE",
"82 100 CURVE SMOOTH",
"82 116 OFFCURVE",
"84 152 OFFCURVE",
"84 166 CURVE SMOOTH",
"84 200 OFFCURVE",
"77 234 OFFCURVE",
"77 273 CURVE SMOOTH",
"77 327 OFFCURVE",
"81 380 OFFCURVE",
"81 432 CURVE SMOOTH",
"81 435 OFFCURVE",
"80 438 OFFCURVE",
"80 441 CURVE SMOOTH",
"80 470 OFFCURVE",
"86 512 OFFCURVE",
"86 534 CURVE SMOOTH",
"86 540 OFFCURVE",
"85 549 OFFCURVE",
"85 558 CURVE SMOOTH",
"85 579 OFFCURVE",
"76 585 OFFCURVE",
"62 589 CURVE SMOOTH",
"49 592 OFFCURVE",
"36 595 OFFCURVE",
"23 599 CURVE SMOOTH",
"13 602 OFFCURVE",
"6 612 OFFCURVE",
"6 619 CURVE SMOOTH"
);
},
{
closed = 1;
nodes = (
"189 346 OFFCURVE",
"197 342 OFFCURVE",
"211 342 CURVE SMOOTH",
"219 342 OFFCURVE",
"227 344 OFFCURVE",
"240 344 CURVE SMOOTH",
"250 344 OFFCURVE",
"279 349 OFFCURVE",
"286 357 CURVE SMOOTH",
"304 378 OFFCURVE",
"320 426 OFFCURVE",
"320 459 CURVE SMOOTH",
"320 490 OFFCURVE",
"305 533 OFFCURVE",
"288 552 CURVE SMOOTH",
"271 571 OFFCURVE",
"253 584 OFFCURVE",
"228 584 CURVE SMOOTH",
"222 584 OFFCURVE",
"215 583 OFFCURVE",
"207 581 CURVE SMOOTH",
"194 578 OFFCURVE",
"189 571 OFFCURVE",
"189 554 CURVE SMOOTH",
"189 550 OFFCURVE",
"190 545 OFFCURVE",
"190 541 CURVE SMOOTH",
"190 532 OFFCURVE",
"190 522 OFFCURVE",
"190 513 CURVE SMOOTH",
"190 489 OFFCURVE",
"189 443 OFFCURVE",
"189 420 CURVE SMOOTH",
"189 365 LINE SMOOTH"
);
}
);
userData = {
com.schriftgestaltung.Glyphs.lastChange = "2019-09-04 17:02:18 +0000";
};
width = 485;
}
);
unicode = 0042;
},
{
glyphname = C;
layers = (
{
anchors = (
{
name = top;
position = "{286, 570}";
}
);
layerId = master01;
paths = (
{
closed = 1;
nodes = (
"20 409 OFFCURVE",
"57 460 OFFCURVE",
"88 508 CURVE SMOOTH",
"117 552 OFFCURVE",
"166 583 OFFCURVE",
"218 605 CURVE SMOOTH",
"247 618 OFFCURVE",
"286 624 OFFCURVE",
"324 624 CURVE SMOOTH",
"352 624 OFFCURVE",
"380 621 OFFCURVE",
"406 614 CURVE SMOOTH",
"418 611 OFFCURVE",
"436 610 OFFCURVE",
"454 609 CURVE SMOOTH",
"470 608 OFFCURVE",
"479 607 OFFCURVE",
"491 607 CURVE SMOOTH",
"502 607 OFFCURVE",
"517 603 OFFCURVE",
"517 583 CURVE SMOOTH",
"517 572 LINE",
"516 562 OFFCURVE",
"516 553 OFFCURVE",
"516 543 CURVE SMOOTH",
"516 508 OFFCURVE",
"519 493 OFFCURVE",
"527 464 CURVE SMOOTH",
"527 462 OFFCURVE",
"528 460 OFFCURVE",
"528 459 CURVE SMOOTH",
"528 449 OFFCURVE",
"518 446 OFFCURVE",
"505 441 CURVE SMOOTH",
"501 440 OFFCURVE",
"497 439 OFFCURVE",
"494 439 CURVE SMOOTH",
"488 439 OFFCURVE",
"483 443 OFFCURVE",
"481 450 CURVE SMOOTH",
"475 477 OFFCURVE",
"457 501 OFFCURVE",
"442 528 CURVE SMOOTH",
"422 565 OFFCURVE",
"364 592 OFFCURVE",
"296 592 CURVE SMOOTH",
"273 592 OFFCURVE",
"257 586 OFFCURVE",
"241 579 CURVE SMOOTH",
"210 565 OFFCURVE",
"186 545 OFFCURVE",
"169 523 CURVE SMOOTH",
"166 519 OFFCURVE",
"155 484 OFFCURVE",
"154 480 CURVE SMOOTH",
"145 445 OFFCURVE",
"138 386 OFFCURVE",
"138 343 CURVE SMOOTH",
"138 317 OFFCURVE",
"141 277 OFFCURVE",
"147 254 CURVE SMOOTH",
"164 190 OFFCURVE",
"187 119 OFFCURVE",
"230 82 CURVE SMOOTH",
"255 60 OFFCURVE",
"264 42 OFFCURVE",
"301 33 CURVE SMOOTH",
"315 30 OFFCURVE",
"329 28 OFFCURVE",
"344 28 CURVE SMOOTH",
"357 28 OFFCURVE",
"368 29 OFFCURVE",
"378 32 CURVE SMOOTH",
"438 48 OFFCURVE",
"458 109 OFFCURVE",
"485 168 CURVE SMOOTH",
"489 178 OFFCURVE",
"489 208 OFFCURVE",
"513 208 CURVE SMOOTH",
"524 208 OFFCURVE",
"529 199 OFFCURVE",
"529 186 CURVE SMOOTH",
"529 146 OFFCURVE",
"515 121 OFFCURVE",
"515 94 CURVE SMOOTH",
"515 72 OFFCURVE",
"525 68 OFFCURVE",
"525 37 CURVE SMOOTH",
"525 22 OFFCURVE",
"523 5 OFFCURVE",
"512 -8 CURVE SMOOTH",
"511 -9 OFFCURVE",
"506 -37 OFFCURVE",
"483 -37 CURVE SMOOTH",
"473 -37 OFFCURVE",
"466.598 -30.334 OFFCURVE",
"460 -22 CURVE SMOOTH",
"441 2 OFFCURVE",
"447 11 OFFCURVE",
"432 11 CURVE SMOOTH",
"417 11 OFFCURVE",
"405 8 OFFCURVE",
"391 3 CURVE SMOOTH",
"370 -4 OFFCURVE",
"346 -15 OFFCURVE",
"311 -15 CURVE SMOOTH",
"297 -15 OFFCURVE",
"284.098 -13.278 OFFCURVE",
"272 -12 CURVE SMOOTH",
"258.656 -10.59 OFFCURVE",
"242.733 -10 OFFCURVE",
"226 -10 CURVE SMOOTH",
"211 -10 OFFCURVE",
"196 -4 OFFCURVE",
"187 9 CURVE SMOOTH",
"177 22 OFFCURVE",
"156 25 OFFCURVE",
"133 43 CURVE SMOOTH",
"91 77 OFFCURVE",
"70.402 128.144 OFFCURVE",
"53 176 CURVE SMOOTH",
"37 220 OFFCURVE",
"20 267 OFFCURVE",
"20 327 CURVE SMOOTH"
);
}
);
userData = {
com.schriftgestaltung.Glyphs.lastChange = "2019-09-04 17:02:18 +0000";
};
width = 549;
}
);
unicode = 0043;
},
{
glyphname = Ccedilla;
layers = (
{
anchors = (
{
name = top;
position = "{312, 570}";
}
);
layerId = master01;
paths = (
{
closed = 1;
nodes = (
"20 409 OFFCURVE",
"57 460 OFFCURVE",
"88 508 CURVE SMOOTH",
"117 552 OFFCURVE",
"166 583 OFFCURVE",
"218 605 CURVE SMOOTH",
"247 618 OFFCURVE",
"286 624 OFFCURVE",
"324 624 CURVE SMOOTH",
"352 624 OFFCURVE",
"380 621 OFFCURVE",
"406 614 CURVE SMOOTH",
"418 611 OFFCURVE",
"436 610 OFFCURVE",
"454 609 CURVE SMOOTH",
"470 608 OFFCURVE",
"479 607 OFFCURVE",
"491 607 CURVE SMOOTH",
"502 607 OFFCURVE",
"517 603 OFFCURVE",
"517 583 CURVE SMOOTH",
"517 572 LINE SMOOTH",
"516 562 OFFCURVE",
"516 553 OFFCURVE",
"516 543 CURVE SMOOTH",
"516 508 OFFCURVE",
"519 493 OFFCURVE",
"527 464 CURVE SMOOTH",
"527 462 OFFCURVE",
"528 460 OFFCURVE",
"528 459 CURVE SMOOTH",
"528 449 OFFCURVE",
"518 446 OFFCURVE",
"505 441 CURVE SMOOTH",
"501 440 OFFCURVE",
"497 439 OFFCURVE",
"494 439 CURVE SMOOTH",
"488 439 OFFCURVE",
"483 443 OFFCURVE",
"481 450 CURVE SMOOTH",
"475 477 OFFCURVE",
"457 501 OFFCURVE",
"442 528 CURVE SMOOTH",
"422 565 OFFCURVE",
"364 592 OFFCURVE",
"296 592 CURVE SMOOTH",
"273 592 OFFCURVE",
"257 586 OFFCURVE",
"241 579 CURVE SMOOTH",
"210 565 OFFCURVE",
"186 545 OFFCURVE",
"169 523 CURVE SMOOTH",
"166 519 OFFCURVE",
"155 484 OFFCURVE",
"154 480 CURVE SMOOTH",
"145 445 OFFCURVE",
"138 386 OFFCURVE",
"138 343 CURVE SMOOTH",
"138 317 OFFCURVE",
"141 277 OFFCURVE",
"147 254 CURVE SMOOTH",
"164 190 OFFCURVE",
"187 119 OFFCURVE",
"230 82 CURVE SMOOTH",
"255 60 OFFCURVE",
"264 42 OFFCURVE",
"301 33 CURVE SMOOTH",
"315 30 OFFCURVE",
"329 28 OFFCURVE",
"344 28 CURVE SMOOTH",
"357 28 OFFCURVE",
"368 29 OFFCURVE",
"378 32 CURVE SMOOTH",
"438 48 OFFCURVE",
"458 109 OFFCURVE",
"485 168 CURVE SMOOTH",
"489 178 OFFCURVE",
"489 208 OFFCURVE",
"513 208 CURVE SMOOTH",
"524 208 OFFCURVE",
"529 199 OFFCURVE",
"529 186 CURVE SMOOTH",
"529 146 OFFCURVE",
"515 121 OFFCURVE",
"515 94 CURVE SMOOTH",
"515 72 OFFCURVE",
"525 68 OFFCURVE",
"525 37 CURVE SMOOTH",
"525 22 OFFCURVE",
"523 5 OFFCURVE",
"512 -8 CURVE SMOOTH",
"511 -9 OFFCURVE",
"506 -37 OFFCURVE",
"483 -37 CURVE SMOOTH",
"473 -37 OFFCURVE",
"466.598 -30.334 OFFCURVE",
"460 -22 CURVE SMOOTH",
"441 2 OFFCURVE",
"447 11 OFFCURVE",
"432 11 CURVE SMOOTH",
"417 11 OFFCURVE",
"405 8 OFFCURVE",
"391 3 CURVE SMOOTH",
"372.349 -3.217 OFFCURVE",
"351.331 -12.59 OFFCURVE",
"322.341 -14.608 CURVE",
"294 -33 LINE SMOOTH",
"289 -36 OFFCURVE",
"286 -39 OFFCURVE",
"286 -43 CURVE SMOOTH",
"286 -46 OFFCURVE",
"288 -50 OFFCURVE",
"293 -54 CURVE SMOOTH",
"308 -66 OFFCURVE",
"335 -102 OFFCURVE",
"335 -129 CURVE SMOOTH",
"335 -169 OFFCURVE",
"275 -198 OFFCURVE",
"244 -209 CURVE SMOOTH",
"224 -216 OFFCURVE",
"210 -219 OFFCURVE",
"204 -219 CURVE SMOOTH",
"179 -219 OFFCURVE",
"154 -200 OFFCURVE",
"139 -183 CURVE SMOOTH",
"137 -180 OFFCURVE",
"136 -178 OFFCURVE",
"136 -175 CURVE SMOOTH",
"136 -171 OFFCURVE",
"141 -166 OFFCURVE",
"149 -162 CURVE SMOOTH",
"183 -146 LINE SMOOTH",
"193 -141 OFFCURVE",
"201 -143 OFFCURVE",
"210 -151 CURVE SMOOTH",
"217 -157 OFFCURVE",
"235 -172 OFFCURVE",
"248 -172 CURVE SMOOTH",
"253 -172 OFFCURVE",
"258 -170 OFFCURVE",
"260 -164 CURVE SMOOTH",
"262 -158 OFFCURVE",
"263 -152 OFFCURVE",
"263 -146 CURVE SMOOTH",
"263 -136 OFFCURVE",
"260 -126 OFFCURVE",
"253 -118 CURVE SMOOTH",
"246 -110 OFFCURVE",
"232 -98 OFFCURVE",
"212 -82 CURVE SMOOTH",
"208 -79 OFFCURVE",
"206 -75 OFFCURVE",
"206 -71 CURVE SMOOTH",
"206 -64 OFFCURVE",
"214 -56 OFFCURVE",
"229 -46 CURVE SMOOTH",
"279.793 -12.851 LINE",
"277.158 -12.561 OFFCURVE",
"274.561 -12.271 OFFCURVE",
"272 -12 CURVE SMOOTH",
"258.656 -10.59 OFFCURVE",
"242.733 -10 OFFCURVE",
"226 -10 CURVE SMOOTH",
"211 -10 OFFCURVE",
"196 -4 OFFCURVE",
"187 9 CURVE SMOOTH",
"177 22 OFFCURVE",
"156 25 OFFCURVE",
"133 43 CURVE SMOOTH",
"91 77 OFFCURVE",
"70.402 128.144 OFFCURVE",
"53 176 CURVE SMOOTH",
"37 220 OFFCURVE",
"20 267 OFFCURVE",
"20 327 CURVE SMOOTH"
);
}
);
userData = {
com.schriftgestaltung.Glyphs.lastChange = "2019-09-04 17:02:18 +0000";
};
width = 549;
}
);
unicode = 00C7;
},
{
glyphname = D;
layers = (
{
anchors = (
{
name = top;
position = "{289, 570}";
}
);
layerId = master01;
paths = (
{
closed = 1;
nodes = (
"10 35 OFFCURVE",
"20.802 38.667 OFFCURVE",
"40 44 CURVE SMOOTH",
"76 54 OFFCURVE",
"81 56 OFFCURVE",
"81 96 CURVE SMOOTH",
"81 112 OFFCURVE",
"82 147 OFFCURVE",
"82 161 CURVE SMOOTH",
"82 194 OFFCURVE",
"76 228 OFFCURVE",
"76 266 CURVE SMOOTH",
"76 319 OFFCURVE",
"79 371 OFFCURVE",
"79 422 CURVE SMOOTH",
"79 440 OFFCURVE",
"81 493 OFFCURVE",
"81 514 CURVE SMOOTH",
"81 556 OFFCURVE",
"76 558 OFFCURVE",
"40 566 CURVE SMOOTH",
"20.55 570.322 OFFCURVE",
"10 575 OFFCURVE",
"10 591 CURVE SMOOTH",
"10 599 OFFCURVE",
"16 612 OFFCURVE",
"31 612 CURVE SMOOTH",
"43 612 OFFCURVE",
"52 607 OFFCURVE",
"54 607 CURVE SMOOTH",
"58 607 OFFCURVE",
"70 612 OFFCURVE",
"84 612 CURVE SMOOTH",
"113 612 OFFCURVE",
"125 602 OFFCURVE",
"140 602 CURVE SMOOTH",
"151 602 OFFCURVE",
"164 614 OFFCURVE",
"194 614 CURVE SMOOTH",
"221 614 OFFCURVE",
"249 617 OFFCURVE",
"279 617 CURVE SMOOTH",
"318 617 OFFCURVE",
"355 610 OFFCURVE",
"384 598 CURVE SMOOTH",
"436 576 OFFCURVE",
"487.811 545.872 OFFCURVE",
"517 503 CURVE SMOOTH",
"549 456 OFFCURVE",
"582 406 OFFCURVE",
"582 326 CURVE SMOOTH",
"582 268 OFFCURVE",
"567 223 OFFCURVE",
"552 179 CURVE SMOOTH",
"535 132 OFFCURVE",
"511 81 OFFCURVE",
"469 48 CURVE SMOOTH",
"446 31 OFFCURVE",
"426 27 OFFCURVE",
"416 15 CURVE SMOOTH",
"407 3 OFFCURVE",
"392 -4 OFFCURVE",
"377 -4 CURVE SMOOTH",
"369 -4 OFFCURVE",
"363 -3 OFFCURVE",
"353 0 CURVE",
"335 -5 OFFCURVE",
"315 -9 OFFCURVE",
"292 -9 CURVE SMOOTH",
"249 -9 OFFCURVE",
"231 -4 OFFCURVE",
"194 -4 CURVE SMOOTH",
"164 -4 OFFCURVE",
"151 14 OFFCURVE",
"140 14 CURVE SMOOTH",
"125 14 OFFCURVE",
"113 -2 OFFCURVE",
"84 -2 CURVE SMOOTH",
"70 -2 OFFCURVE",
"58 3 OFFCURVE",
"54 3 CURVE SMOOTH",
"52 3 OFFCURVE",
"43 -2 OFFCURVE",
"31 -2 CURVE SMOOTH",
"16 -2 OFFCURVE",
"10 11 OFFCURVE",
"10 19 CURVE SMOOTH"
);
},
{
closed = 1;
nodes = (
"181 184 OFFCURVE",
"189 137 OFFCURVE",
"192 109 CURVE SMOOTH",
"196 73 OFFCURVE",
"193 54 OFFCURVE",
"207 45 CURVE SMOOTH",
"219 38 OFFCURVE",
"237 33 OFFCURVE",
"258 33 CURVE SMOOTH",
"286 33 OFFCURVE",
"314 41 OFFCURVE",
"336 51 CURVE",
"347 62 OFFCURVE",
"359 75 OFFCURVE",
"373 87 CURVE SMOOTH",
"416 123 OFFCURVE",
"438 193 OFFCURVE",
"455 255 CURVE SMOOTH",
"461 277 OFFCURVE",
"464 316 OFFCURVE",
"464 342 CURVE SMOOTH",
"464 384 OFFCURVE",
"458 441 OFFCURVE",
"449 476 CURVE SMOOTH",
"447 482 OFFCURVE",
"439 493 OFFCURVE",
"437 507 CURVE SMOOTH",
"435 516 OFFCURVE",
"437 515 OFFCURVE",
"434 519 CURVE SMOOTH",
"417 541 OFFCURVE",
"393 560 OFFCURVE",
"362 573 CURVE SMOOTH",
"346 581 OFFCURVE",
"328 586 OFFCURVE",
"306 586 CURVE SMOOTH",
"275 586 OFFCURVE",
"246 580 OFFCURVE",
"222 571 CURVE SMOOTH",
"221 571 OFFCURVE",
"221 570 OFFCURVE",
"220 570 CURVE SMOOTH",
"215 568 OFFCURVE",
"210 565 OFFCURVE",
"205 563 CURVE SMOOTH",
"193 551 OFFCURVE",
"190 502 OFFCURVE",
"190 469 CURVE SMOOTH",
"190 434 OFFCURVE",
"191 399 OFFCURVE",
"191 361 CURVE SMOOTH",
"191 310 OFFCURVE",
"181 255 OFFCURVE",
"181 211 CURVE SMOOTH"
);
}
);
userData = {
com.schriftgestaltung.Glyphs.lastChange = "2019-09-04 17:02:18 +0000";
};
width = 590;
}
);
unicode = 0044;
},
{
glyphname = Eth;
layers = (
{
anchors = (
{
name = top;
position = "{359, 570}";
}
);
layerId = master01;
paths = (
{
closed = 1;
nodes = (
"263 184 OFFCURVE",
"271 137 OFFCURVE",
"274 109 CURVE SMOOTH",
"278 73 OFFCURVE",
"275 54 OFFCURVE",
"289 45 CURVE SMOOTH",
"301 38 OFFCURVE",
"319 33 OFFCURVE",
"340 33 CURVE SMOOTH",
"368 33 OFFCURVE",
"396 41 OFFCURVE",
"418 51 CURVE",
"429 62 OFFCURVE",
"441 75 OFFCURVE",
"455 87 CURVE SMOOTH",
"498 123 OFFCURVE",
"520 193 OFFCURVE",
"537 255 CURVE SMOOTH",
"543 277 OFFCURVE",
"546 316 OFFCURVE",
"546 342 CURVE SMOOTH",
"546 384 OFFCURVE",
"540 441 OFFCURVE",
"531 476 CURVE SMOOTH",
"529 482 OFFCURVE",
"521 493 OFFCURVE",
"519 507 CURVE SMOOTH",
"517 516 OFFCURVE",
"519 515 OFFCURVE",
"516 519 CURVE SMOOTH",
"499 541 OFFCURVE",
"475 560 OFFCURVE",
"444 573 CURVE SMOOTH",
"428 581 OFFCURVE",
"410 586 OFFCURVE",
"388 586 CURVE SMOOTH",
"357 586 OFFCURVE",
"328 580 OFFCURVE",
"304 571 CURVE SMOOTH",
"303 571 OFFCURVE",
"303 570 OFFCURVE",
"302 570 CURVE SMOOTH",
"297 568 OFFCURVE",
"292 565 OFFCURVE",
"287 563 CURVE SMOOTH",
"275 551 OFFCURVE",
"272 502 OFFCURVE",
"272 469 CURVE SMOOTH",
"272 434 OFFCURVE",
"273 399 OFFCURVE",
"273 361 CURVE SMOOTH",
"273 351.441 OFFCURVE",
"272.649 341.741 OFFCURVE",
"272.078 332 CURVE",
"332 332 LINE SMOOTH",
"369 332 OFFCURVE",
"371 334 OFFCURVE",
"382 353 CURVE SMOOTH",
"388 363 OFFCURVE",
"392 369 OFFCURVE",
"405 369 CURVE SMOOTH",
"413 369 OFFCURVE",
"425 366 OFFCURVE",
"425 358 CURVE SMOOTH",
"425 352 OFFCURVE",
"420 347 OFFCURVE",
"420 346 CURVE SMOOTH",
"420 344 OFFCURVE",
"425 338 OFFCURVE",
"425 331 CURVE SMOOTH",
"425 316 OFFCURVE",
"416 310 OFFCURVE",
"416 302 CURVE SMOOTH",
"416 296 OFFCURVE",
"429 289 OFFCURVE",
"429 274 CURVE SMOOTH",
"429 261 OFFCURVE",
"419 252 OFFCURVE",
"405 252 CURVE SMOOTH",
"386 252 OFFCURVE",
"386 263 OFFCURVE",
"380 268 CURVE SMOOTH",
"363.336 282.703 OFFCURVE",
"316.886 282.994 OFFCURVE",
"267.963 283 CURVE",
"265.476 257.508 OFFCURVE",
"263 232.893 OFFCURVE",
"263 211 CURVE SMOOTH"
);
},
{
closed = 1;
nodes = (
"40 289 OFFCURVE",
"59 296 OFFCURVE",
"59 302 CURVE SMOOTH",
"59 310 OFFCURVE",
"44 316 OFFCURVE",
"44 331 CURVE SMOOTH",
"44 338 OFFCURVE",
"49 344 OFFCURVE",
"49 346 CURVE SMOOTH",
"49 347 OFFCURVE",
"44 352 OFFCURVE",
"44 358 CURVE SMOOTH",
"44 366 OFFCURVE",
"56 369 OFFCURVE",
"64 369 CURVE SMOOTH",
"79 369 OFFCURVE",
"82 363 OFFCURVE",
"88 353 CURVE SMOOTH",
"99 334 OFFCURVE",
"102 332 OFFCURVE",
"137 332 CURVE SMOOTH",
"159.136 332 LINE",
"159.985 362.338 OFFCURVE",
"161 392.338 OFFCURVE",
"161 422 CURVE SMOOTH",
"161 440 OFFCURVE",
"163 493 OFFCURVE",
"163 514 CURVE SMOOTH",
"163 556 OFFCURVE",
"158 558 OFFCURVE",
"122 566 CURVE SMOOTH",
"102.55 570.322 OFFCURVE",
"92 575 OFFCURVE",
"92 591 CURVE SMOOTH",
"92 599 OFFCURVE",
"98 612 OFFCURVE",
"113 612 CURVE SMOOTH",
"125 612 OFFCURVE",
"134 607 OFFCURVE",
"136 607 CURVE SMOOTH",
"140 607 OFFCURVE",
"152 612 OFFCURVE",
"166 612 CURVE SMOOTH",
"195 612 OFFCURVE",
"207 602 OFFCURVE",
"222 602 CURVE SMOOTH",
"233 602 OFFCURVE",
"246 614 OFFCURVE",
"276 614 CURVE SMOOTH",
"303 614 OFFCURVE",
"331 617 OFFCURVE",
"361 617 CURVE SMOOTH",
"400 617 OFFCURVE",
"437 610 OFFCURVE",
"466 598 CURVE SMOOTH",
"518 576 OFFCURVE",
"569.811 545.872 OFFCURVE",
"599 503 CURVE SMOOTH",
"631 456 OFFCURVE",
"664 406 OFFCURVE",
"664 326 CURVE SMOOTH",
"664 268 OFFCURVE",
"649 223 OFFCURVE",
"634 179 CURVE SMOOTH",
"617 132 OFFCURVE",
"593 81 OFFCURVE",
"551 48 CURVE SMOOTH",
"528 31 OFFCURVE",
"508 27 OFFCURVE",
"498 15 CURVE SMOOTH",
"489 3 OFFCURVE",
"474 -4 OFFCURVE",
"459 -4 CURVE SMOOTH",
"451 -4 OFFCURVE",
"445 -3 OFFCURVE",
"435 0 CURVE",
"417 -5 OFFCURVE",
"397 -9 OFFCURVE",
"374 -9 CURVE SMOOTH",
"331 -9 OFFCURVE",
"313 -4 OFFCURVE",
"276 -4 CURVE SMOOTH",
"246 -4 OFFCURVE",
"233 14 OFFCURVE",
"222 14 CURVE SMOOTH",
"207 14 OFFCURVE",
"195 -2 OFFCURVE",
"166 -2 CURVE SMOOTH",
"152 -2 OFFCURVE",
"140 3 OFFCURVE",
"136 3 CURVE SMOOTH",
"134 3 OFFCURVE",
"125 -2 OFFCURVE",
"113 -2 CURVE SMOOTH",
"98 -2 OFFCURVE",
"92 11 OFFCURVE",
"92 19 CURVE SMOOTH",
"92 35 OFFCURVE",
"102.802 38.667 OFFCURVE",
"122 44 CURVE SMOOTH",
"158 54 OFFCURVE",
"163 56 OFFCURVE",
"163 96 CURVE SMOOTH",
"163 112 OFFCURVE",
"164 147 OFFCURVE",
"164 161 CURVE SMOOTH",
"164 196.75 OFFCURVE",
"158 234.595 OFFCURVE",
"158 276 CURVE",
"147 276 OFFCURVE",
"136 276 OFFCURVE",
"127 276 CURVE SMOOTH",
"110 276 OFFCURVE",
"94.975 273.228 OFFCURVE",
"89 268 CURVE SMOOTH",
"83 263 OFFCURVE",
"84 252 OFFCURVE",
"65 252 CURVE SMOOTH",
"51 252 OFFCURVE",
"40 261 OFFCURVE",
"40 274 CURVE SMOOTH"
);
}
);
userData = {
com.schriftgestaltung.Glyphs.lastChange = "2019-09-04 17:02:18 +0000";
};
width = 672;
}
);
unicode = 00D0;
},
{
glyphname = E;
layers = (
{
anchors = (
{
name = top;
position = "{211, 570}";
}
);
layerId = master01;
paths = (
{
closed = 1;
nodes = (
"1 606 OFFCURVE",
"15 615 OFFCURVE",
"26 615 CURVE SMOOTH",
"41 615 OFFCURVE",
"63 608 OFFCURVE",
"82 608 CURVE SMOOTH",
"113 608 OFFCURVE",
"132 604 OFFCURVE",
"163 604 CURVE SMOOTH",
"183 604 OFFCURVE",
"206 604 OFFCURVE",
"225 604 CURVE SMOOTH",
"247 604 OFFCURVE",
"267 608 OFFCURVE",
"295 608 CURVE SMOOTH",
"318 608 LINE SMOOTH",
"323 608 OFFCURVE",
"330 610 OFFCURVE",
"340 610 CURVE SMOOTH",
"368 610 OFFCURVE",
"371 582 OFFCURVE",
"371 565 CURVE SMOOTH",
"371 542 OFFCURVE",
"366 492 OFFCURVE",
"336 492 CURVE SMOOTH",
"320 492 OFFCURVE",
"305 507 OFFCURVE",
"301 511 CURVE SMOOTH",
"288 526 OFFCURVE",
"282 543 OFFCURVE",
"270 558 CURVE SMOOTH",
"268 559 OFFCURVE",
"250 561 OFFCURVE",
"237 561 CURVE SMOOTH",
"218 561 OFFCURVE",
"195 559 OFFCURVE",
"176 559 CURVE SMOOTH",
"173 559 OFFCURVE",
"172 553 OFFCURVE",
"172 546 CURVE SMOOTH",
"172 523 OFFCURVE",
"182 500 OFFCURVE",
"182 469 CURVE SMOOTH",
"182 440 OFFCURVE",
"179 414 OFFCURVE",
"179 386 CURVE SMOOTH",
"179 357 OFFCURVE",
"185 352 OFFCURVE",
"215 352 CURVE SMOOTH",
"247 352 OFFCURVE",
"271 353 OFFCURVE",
"293 363 CURVE SMOOTH",
"298 365 OFFCURVE",
"320 382 OFFCURVE",
"341 382 CURVE SMOOTH",
"367 382 OFFCURVE",
"368 352 OFFCURVE",
"368 344 CURVE SMOOTH",
"368 322 OFFCURVE",
"374 313 OFFCURVE",
"374 290 CURVE SMOOTH",
"374 267 OFFCURVE",
"346 253 OFFCURVE",
"327 253 CURVE SMOOTH",
"300 253 OFFCURVE",
"299 278 OFFCURVE",
"299 293 CURVE SMOOTH",
"299 308 OFFCURVE",
"297 311 OFFCURVE",
"287 311 CURVE SMOOTH",
"262 311 OFFCURVE",
"243 304 OFFCURVE",
"217 304 CURVE SMOOTH",
"193 304 OFFCURVE",
"185 302 OFFCURVE",
"185 287 CURVE SMOOTH",
"185 284 OFFCURVE",
"186 280 OFFCURVE",
"186 276 CURVE SMOOTH",
"189 243 OFFCURVE",
"195 197 OFFCURVE",
"195 160 CURVE SMOOTH",
"195 130 OFFCURVE",
"191 104 OFFCURVE",
"188 78 CURVE SMOOTH",
"187 73 OFFCURVE",
"186 69 OFFCURVE",
"186 65 CURVE SMOOTH",
"186 59 OFFCURVE",
"189 55 OFFCURVE",
"200 55 CURVE SMOOTH",
"218 55 OFFCURVE",
"239 54 OFFCURVE",
"255 54 CURVE SMOOTH",
"294 54 OFFCURVE",
"314 62 OFFCURVE",
"316 74 CURVE SMOOTH",
"317 80 OFFCURVE",
"325 127 OFFCURVE",
"354 127 CURVE SMOOTH",
"382 127 OFFCURVE",
"385 96 OFFCURVE",
"385 79 CURVE SMOOTH",
"385 42 OFFCURVE",
"394 35 OFFCURVE",
"394 3 CURVE SMOOTH",
"394 -17 OFFCURVE",
"378 -33 OFFCURVE",
"353 -33 CURVE SMOOTH",
"334 -33 OFFCURVE",
"328 -27 OFFCURVE",
"324 -16 CURVE SMOOTH",
"320 -5 OFFCURVE",
"315 -1 OFFCURVE",
"309 -1 CURVE SMOOTH",
"305 -1 OFFCURVE",
"302 -2 OFFCURVE",
"298 -2 CURVE SMOOTH",
"294 -2 OFFCURVE",
"289 -3 OFFCURVE",
"284 -3 CURVE SMOOTH",
"265 -3 OFFCURVE",
"247 0 OFFCURVE",
"232 0 CURVE SMOOTH",
"187 0 LINE SMOOTH",
"169 0 OFFCURVE",
"153 -1 OFFCURVE",
"142 -4 CURVE SMOOTH",
"113 -12 OFFCURVE",
"89 -7 OFFCURVE",
"75 -16 CURVE SMOOTH",
"68 -21 OFFCURVE",
"62 -23 OFFCURVE",
"54 -23 CURVE SMOOTH",
"42 -23 OFFCURVE",
"30 -14 OFFCURVE",
"30 -1 CURVE SMOOTH",
"30 21 OFFCURVE",
"61 29 OFFCURVE",
"66 46 CURVE SMOOTH",
"69 56 OFFCURVE",
"69 68 OFFCURVE",
"70 82 CURVE SMOOTH",
"73 116 OFFCURVE",
"81 146 OFFCURVE",
"81 181 CURVE SMOOTH",
"81 233 OFFCURVE",
"72 288 OFFCURVE",
"68 340 CURVE SMOOTH",
"65 382 OFFCURVE",
"62 425 OFFCURVE",
"62 469 CURVE SMOOTH",
"62 501 OFFCURVE",
"65 532 OFFCURVE",
"65 563 CURVE SMOOTH",
"65 574 OFFCURVE",
"51 582 OFFCURVE",
"43 582 CURVE SMOOTH",
"31 582 OFFCURVE",
"31 566 OFFCURVE",
"20 566 CURVE SMOOTH",
"10 566 OFFCURVE",
"1 574 OFFCURVE",
"1 589 CURVE SMOOTH"
);
}
);
userData = {
com.schriftgestaltung.Glyphs.lastChange = "2019-09-04 17:02:18 +0000";
};
width = 404;
}
);
unicode = 0045;
},
{
glyphname = Eogonek;
layers = (
{
anchors = (
{
name = top;
position = "{236, 570}";
}
);
layerId = master01;
paths = (
{
closed = 1;
nodes = (
"1 606 OFFCURVE",
"15 615 OFFCURVE",
"26 615 CURVE SMOOTH",
"41 615 OFFCURVE",
"63 608 OFFCURVE",
"82 608 CURVE SMOOTH",
"113 608 OFFCURVE",
"132 604 OFFCURVE",
"163 604 CURVE SMOOTH",
"183 604 OFFCURVE",
"206 604 OFFCURVE",
"225 604 CURVE SMOOTH",
"247 604 OFFCURVE",
"267 608 OFFCURVE",
"295 608 CURVE SMOOTH",
"318 608 LINE SMOOTH",
"323 608 OFFCURVE",
"330 610 OFFCURVE",
"340 610 CURVE SMOOTH",
"368 610 OFFCURVE",
"371 582 OFFCURVE",
"371 565 CURVE SMOOTH",
"371 542 OFFCURVE",
"366 492 OFFCURVE",
"336 492 CURVE SMOOTH",
"320 492 OFFCURVE",
"305.859 506.864 OFFCURVE",
"302 511 CURVE SMOOTH",
"288 526 OFFCURVE",
"282 543 OFFCURVE",
"270 558 CURVE SMOOTH",
"268 559 OFFCURVE",
"250 561 OFFCURVE",
"237 561 CURVE SMOOTH",
"218 561 OFFCURVE",
"195 559 OFFCURVE",
"176 559 CURVE SMOOTH",
"173 559 OFFCURVE",
"172 553 OFFCURVE",
"172 546 CURVE SMOOTH",
"172 523 OFFCURVE",
"182 500 OFFCURVE",
"182 469 CURVE SMOOTH",
"182 440 OFFCURVE",
"179 414 OFFCURVE",
"179 386 CURVE SMOOTH",
"179 357 OFFCURVE",
"185 352 OFFCURVE",
"215 352 CURVE SMOOTH",
"247 352 OFFCURVE",
"271 353 OFFCURVE",
"293 363 CURVE SMOOTH",
"298 365 OFFCURVE",
"320 382 OFFCURVE",
"341 382 CURVE SMOOTH",
"367 382 OFFCURVE",
"368 352 OFFCURVE",
"368 344 CURVE SMOOTH",
"368 322 OFFCURVE",
"374 313 OFFCURVE",
"374 290 CURVE SMOOTH",
"374 267 OFFCURVE",
"346 253 OFFCURVE",
"327 253 CURVE SMOOTH",
"300 253 OFFCURVE",
"299 278 OFFCURVE",
"299 293 CURVE SMOOTH",
"299 308 OFFCURVE",
"297 311 OFFCURVE",
"287 311 CURVE SMOOTH",
"262 311 OFFCURVE",
"243 304 OFFCURVE",
"217 304 CURVE SMOOTH",
"193 304 OFFCURVE",
"185 302 OFFCURVE",
"185 287 CURVE SMOOTH",
"185 284 OFFCURVE",
"186 280 OFFCURVE",
"186 276 CURVE SMOOTH",
"189 243 OFFCURVE",
"195 197 OFFCURVE",
"195 160 CURVE SMOOTH",
"195 130 OFFCURVE",
"191 104 OFFCURVE",
"188 78 CURVE SMOOTH",
"187 73 OFFCURVE",
"186 69 OFFCURVE",
"186 65 CURVE SMOOTH",
"186 59 OFFCURVE",
"189 55 OFFCURVE",
"200 55 CURVE SMOOTH",
"218 55 OFFCURVE",
"239 54 OFFCURVE",
"255 54 CURVE SMOOTH",
"294 54 OFFCURVE",
"314 62 OFFCURVE",
"316 74 CURVE SMOOTH",
"317 80 OFFCURVE",
"325 127 OFFCURVE",
"354 127 CURVE SMOOTH",
"382 127 OFFCURVE",
"385 96 OFFCURVE",
"385 79 CURVE SMOOTH",
"385 42 OFFCURVE",
"394 35 OFFCURVE",
"394 3 CURVE SMOOTH",
"394 -17 OFFCURVE",
"378 -33 OFFCURVE",
"353 -33 CURVE SMOOTH",
"334 -33 OFFCURVE",
"327 -22 OFFCURVE",
"324 -11 CURVE SMOOTH",
"320 2 OFFCURVE",
"315 4 OFFCURVE",
"309 4 CURVE SMOOTH",
"305 4 OFFCURVE",
"302 3 OFFCURVE",
"298 3 CURVE SMOOTH",
"294 3 OFFCURVE",
"289 2 OFFCURVE",
"284 2 CURVE SMOOTH",
"265 2 OFFCURVE",
"247 5 OFFCURVE",
"232 5 CURVE SMOOTH",
"187 5 LINE SMOOTH",
"169 5 OFFCURVE",
"153 4 OFFCURVE",
"142 1 CURVE SMOOTH",
"113 -7 OFFCURVE",
"89 -7 OFFCURVE",
"75 -16 CURVE SMOOTH",
"68 -21 OFFCURVE",
"62 -23 OFFCURVE",
"54 -23 CURVE SMOOTH",
"42 -23 OFFCURVE",
"30 -14 OFFCURVE",
"30 -1 CURVE SMOOTH",
"30 21 OFFCURVE",
"61 29 OFFCURVE",
"66 46 CURVE SMOOTH",
"69 56 OFFCURVE",
"69 68 OFFCURVE",
"70 82 CURVE SMOOTH",
"73 116 OFFCURVE",
"81 146 OFFCURVE",
"81 181 CURVE SMOOTH",
"81 233 OFFCURVE",
"72 288 OFFCURVE",
"68 340 CURVE SMOOTH",
"65 382 OFFCURVE",
"62 425 OFFCURVE",
"62 469 CURVE SMOOTH",
"62 501 OFFCURVE",
"65 532 OFFCURVE",
"65 563 CURVE SMOOTH",
"65 574 OFFCURVE",
"51 582 OFFCURVE",
"43 582 CURVE SMOOTH",
"31 582 OFFCURVE",
"31 566 OFFCURVE",
"20 566 CURVE SMOOTH",
"10 566 OFFCURVE",
"1 574 OFFCURVE",
"1 589 CURVE SMOOTH"
);
},
{
closed = 1;
nodes = (
"-181 -350 OFFCURVE",
"-164 -327 OFFCURVE",
"-148 -308 CURVE SMOOTH",
"-137 -295 OFFCURVE",
"-127 -282 OFFCURVE",
"-115 -270 CURVE SMOOTH",
"-73 -228 OFFCURVE",
"-11 -205 OFFCURVE",
"29 -160 CURVE SMOOTH",
"47 -140 OFFCURVE",
"53 -120 OFFCURVE",
"91 -120 CURVE SMOOTH",
"104 -120 OFFCURVE",
"118 -122 OFFCURVE",
"118 -132 CURVE SMOOTH",
"118 -149 OFFCURVE",
"97 -164 OFFCURVE",
"89 -175 CURVE SMOOTH",
"66 -205 OFFCURVE",
"35 -227 OFFCURVE",
"3 -248 CURVE SMOOTH",
"-5 -253 OFFCURVE",
"-37 -266 OFFCURVE",
"-37 -282 CURVE SMOOTH",
"-37 -291 OFFCURVE",
"-29 -296 OFFCURVE",
"-21 -296 CURVE SMOOTH",
"30 -296 OFFCURVE",
"182 -143 OFFCURVE",
"234 -81 CURVE SMOOTH",
"242 -71 OFFCURVE",
"249 -66 OFFCURVE",
"253 -66 CURVE SMOOTH",
"256 -66 OFFCURVE",
"258 -68 OFFCURVE",
"258 -72 CURVE SMOOTH",
"258 -77 OFFCURVE",
"254 -86 OFFCURVE",
"247 -96 CURVE SMOOTH",
"222 -131 OFFCURVE",
"194 -164 OFFCURVE",
"168 -198 CURVE SMOOTH",
"125 -255 OFFCURVE",
"68 -297 OFFCURVE",
"2 -331 CURVE SMOOTH",
"-48 -357 OFFCURVE",
"-83 -398 OFFCURVE",
"-143 -414 CURVE SMOOTH",
"-148 -415 OFFCURVE",
"-152 -416 OFFCURVE",
"-156 -416 CURVE SMOOTH",
"-175 -416 OFFCURVE",
"-181 -401 OFFCURVE",
"-181 -383 CURVE SMOOTH"
);
}
);
userData = {
com.schriftgestaltung.Glyphs.lastChange = "2019-09-04 17:02:18 +0000";
};
width = 404;
}
);
unicode = 0118;
},
{
glyphname = F;
layers = (
{
anchors = (
{
name = top;
position = "{211, 570}";
}
);
layerId = master01;
paths = (
{
closed = 1;
nodes = (
"-10 606 OFFCURVE",
"7 615 OFFCURVE",
"20 615 CURVE SMOOTH",
"38 615 OFFCURVE",
"63 608 OFFCURVE",
"82 608 CURVE SMOOTH",
"113 608 OFFCURVE",
"132 604 OFFCURVE",
"163 604 CURVE SMOOTH",
"225 604 LINE SMOOTH",
"247 604 OFFCURVE",
"267 608 OFFCURVE",
"295 608 CURVE SMOOTH",
"315 608 OFFCURVE",
"320 610 OFFCURVE",
"340 610 CURVE SMOOTH",
"368 610 OFFCURVE",
"371 582 OFFCURVE",
"371 565 CURVE SMOOTH",
"371 542 OFFCURVE",
"366 492 OFFCURVE",
"336 492 CURVE SMOOTH",
"320 492 OFFCURVE",
"305 507 OFFCURVE",
"301 511 CURVE SMOOTH",
"286 526 OFFCURVE",
"282 543 OFFCURVE",
"270 558 CURVE SMOOTH",
"268 559 OFFCURVE",
"250 561 OFFCURVE",
"237 561 CURVE SMOOTH",
"218 561 OFFCURVE",
"195 559 OFFCURVE",
"176 559 CURVE SMOOTH",
"173 559 OFFCURVE",
"172 553 OFFCURVE",
"172 546 CURVE SMOOTH",
"172 523 OFFCURVE",
"182 500 OFFCURVE",
"182 469 CURVE SMOOTH",
"182 449 OFFCURVE",
"179 423 OFFCURVE",
"179 405 CURVE SMOOTH",
"179 386 LINE SMOOTH",
"179 357 OFFCURVE",
"185 352 OFFCURVE",
"215 352 CURVE SMOOTH",
"247 352 OFFCURVE",
"270 353 OFFCURVE",
"293 363 CURVE SMOOTH",
"298 365 OFFCURVE",
"320 382 OFFCURVE",
"341 382 CURVE SMOOTH",
"367 382 OFFCURVE",
"368 352 OFFCURVE",
"368 344 CURVE SMOOTH",
"368 323 LINE SMOOTH",
"368 304 OFFCURVE",
"374 303 OFFCURVE",
"374 290 CURVE SMOOTH",
"374 267 OFFCURVE",
"346 253 OFFCURVE",
"327 253 CURVE SMOOTH",
"300 253 OFFCURVE",
"299 278 OFFCURVE",
"299 293 CURVE SMOOTH",
"299 308 OFFCURVE",
"297 311 OFFCURVE",
"287 311 CURVE SMOOTH",
"262 311 OFFCURVE",
"243 304 OFFCURVE",
"217 304 CURVE SMOOTH",
"193 304 OFFCURVE",
"185 302 OFFCURVE",
"185 287 CURVE SMOOTH",
"185 284 OFFCURVE",
"186 280 OFFCURVE",
"186 276 CURVE SMOOTH",
"189 243 OFFCURVE",
"193 205 OFFCURVE",
"195 160 CURVE SMOOTH",
"196 140 OFFCURVE",
"195 124 OFFCURVE",
"197 109 CURVE SMOOTH",
"201 73 OFFCURVE",
"198 54 OFFCURVE",
"212 45 CURVE SMOOTH",
"222 39 OFFCURVE",
"242 40 OFFCURVE",
"242 20 CURVE SMOOTH",
"242 5 OFFCURVE",
"224 -6 OFFCURVE",
"199 -6 CURVE SMOOTH",
"169 -6 OFFCURVE",
"151 14 OFFCURVE",
"140 14 CURVE SMOOTH",
"125 14 OFFCURVE",
"113 -2 OFFCURVE",
"84 -2 CURVE SMOOTH",
"70 -2 OFFCURVE",
"58 3 OFFCURVE",
"54 3 CURVE SMOOTH",
"52 3 OFFCURVE",
"43 -2 OFFCURVE",
"31 -2 CURVE SMOOTH",
"16 -2 OFFCURVE",
"10 11 OFFCURVE",
"10 19 CURVE SMOOTH",
"10 35 OFFCURVE",
"20.802 38.667 OFFCURVE",
"40 44 CURVE SMOOTH",
"76 54 OFFCURVE",
"81 56 OFFCURVE",
"81 96 CURVE SMOOTH",
"81 181 LINE SMOOTH",
"81 233 OFFCURVE",
"72 288 OFFCURVE",
"68 340 CURVE SMOOTH",
"65 382 OFFCURVE",
"62 425 OFFCURVE",
"62 469 CURVE SMOOTH",
"62 501 OFFCURVE",
"65 532 OFFCURVE",
"65 563 CURVE SMOOTH",
"65 574 OFFCURVE",
"50 582 OFFCURVE",
"40 582 CURVE SMOOTH",
"26 582 OFFCURVE",
"26 566 OFFCURVE",
"13 566 CURVE SMOOTH",
"2 566 OFFCURVE",
"-10 574 OFFCURVE",
"-10 589 CURVE SMOOTH"
);
}
);
userData = {
com.schriftgestaltung.Glyphs.lastChange = "2019-09-04 17:02:18 +0000";
};
width = 404;
}
);
unicode = 0046;
},
{
glyphname = G;
layers = (
{
anchors = (
{
name = top;
position = "{248, 570}";
}
);
layerId = master01;
paths = (
{
closed = 1;
nodes = (
"-1 16 OFFCURVE",
"22 18 OFFCURVE",
"34 18 CURVE SMOOTH",
"52 18 OFFCURVE",
"68 28 OFFCURVE",
"70 35 CURVE SMOOTH",
"77 59 OFFCURVE",
"82 103 OFFCURVE",
"82 131 CURVE SMOOTH",
"82 190 OFFCURVE",
"77 256 OFFCURVE",
"77 318 CURVE SMOOTH",
"77 364 OFFCURVE",
"80 403 OFFCURVE",
"80 448 CURVE SMOOTH",
"80 470 OFFCURVE",
"79 510 OFFCURVE",
"77 527 CURVE SMOOTH",
"73 566 LINE SMOOTH",
"71 582 OFFCURVE",
"49 588 OFFCURVE",
"34 591 CURVE SMOOTH",
"32 592 OFFCURVE",
"30 593 OFFCURVE",
"30 596 CURVE SMOOTH",
"30 609 OFFCURVE",
"49 612 OFFCURVE",
"67 612 CURVE SMOOTH",
"76 612 OFFCURVE",
"84 611 OFFCURVE",
"89 611 CURVE SMOOTH",
"106 611 OFFCURVE",
"122 610 OFFCURVE",
"138 610 CURVE SMOOTH",
"160 610 OFFCURVE",
"182 612 OFFCURVE",
"207 612 CURVE SMOOTH",
"218 612 OFFCURVE",
"243 611 OFFCURVE",
"253 611 CURVE",
"263 614 OFFCURVE",
"291 615 OFFCURVE",
"301 615 CURVE SMOOTH",
"318 615 OFFCURVE",
"337 614 OFFCURVE",
"352 614 CURVE SMOOTH",
"364 614 OFFCURVE",
"375 617 OFFCURVE",
"389 617 CURVE SMOOTH",
"414 617 OFFCURVE",
"415 600 OFFCURVE",
"415 585 CURVE SMOOTH",
"415 572 OFFCURVE",
"411 553 OFFCURVE",
"411 548 CURVE SMOOTH",
"411 528 OFFCURVE",
"422 510 OFFCURVE",
"422 493 CURVE SMOOTH",
"422 483 OFFCURVE",
"413 478 OFFCURVE",
"406 478 CURVE SMOOTH",
"397 478 OFFCURVE",
"390 482 OFFCURVE",
"385 487 CURVE SMOOTH",
"372 499 OFFCURVE",
"353 512 OFFCURVE",
"343 534 CURVE SMOOTH",
"334 552 OFFCURVE",
"330 564 OFFCURVE",
"317 571 CURVE SMOOTH",
"303 579 OFFCURVE",
"244 581 OFFCURVE",
"218 581 CURVE SMOOTH",
"202 581 LINE SMOOTH",
"190 581 OFFCURVE",
"179 579 OFFCURVE",
"179 568 CURVE SMOOTH",
"179 522 LINE SMOOTH",
"179 478 OFFCURVE",
"173 416 OFFCURVE",
"173 372 CURVE SMOOTH",
"173 358 OFFCURVE",
"190 357 OFFCURVE",
"209 356 CURVE SMOOTH",
"248 353 OFFCURVE",
"299 353 OFFCURVE",
"333 353 CURVE SMOOTH",
"345 353 OFFCURVE",
"356 356 OFFCURVE",
"366 356 CURVE SMOOTH",
"375 356 OFFCURVE",
"385 355 OFFCURVE",
"392 355 CURVE SMOOTH",
"396 355 OFFCURVE",
"402 357 OFFCURVE",
"410 357 CURVE SMOOTH",
"424 357 OFFCURVE",
"428 344 OFFCURVE",
"428 337 CURVE SMOOTH",
"428 321 OFFCURVE",
"412 308 OFFCURVE",
"412 300 CURVE SMOOTH",
"412 273 OFFCURVE",
"417 244 OFFCURVE",
"417 215 CURVE SMOOTH",
"417 193 OFFCURVE",
"421 174 OFFCURVE",
"421 150 CURVE SMOOTH",
"421 141 OFFCURVE",
"420 133 OFFCURVE",
"420 125 CURVE SMOOTH",
"420 108 OFFCURVE",
"424 79 OFFCURVE",
"424 58 CURVE SMOOTH",
"424 34 OFFCURVE",
"457 50 OFFCURVE",
"457 22 CURVE SMOOTH",
"457 0 OFFCURVE",
"423 -1 OFFCURVE",
"401 -1 CURVE SMOOTH",
"396 -1 OFFCURVE",
"390 0 OFFCURVE",
"387 0 CURVE SMOOTH",
"362 0 OFFCURVE",
"348 10 OFFCURVE",
"329 10 CURVE SMOOTH",
"301 10 OFFCURVE",
"241 0 OFFCURVE",
"205 0 CURVE SMOOTH",
"185 0 OFFCURVE",
"163 3 OFFCURVE",
"147 3 CURVE SMOOTH",
"115 3 OFFCURVE",
"71 -1 OFFCURVE",
"43 -8 CURVE SMOOTH",
"38.901 -9.366 OFFCURVE",
"24.296 -13 OFFCURVE",
"12 -13 CURVE SMOOTH",
"5 -13 OFFCURVE",
"-1 -12 OFFCURVE",
"-1 -2 CURVE SMOOTH"
);
},
{
closed = 1;
nodes = (
"173 291 OFFCURVE",
"174 282 OFFCURVE",
"174 273 CURVE SMOOTH",
"174 214 OFFCURVE",
"182 159 OFFCURVE",
"182 101 CURVE SMOOTH",
"182 66 LINE SMOOTH",
"182 46 OFFCURVE",
"185 44 OFFCURVE",
"204 38 CURVE SMOOTH",
"215 35 OFFCURVE",
"226 32 OFFCURVE",
"236 32 CURVE SMOOTH",
"252 32 OFFCURVE",
"288 37 OFFCURVE",
"308 38 CURVE SMOOTH",
"346 39 OFFCURVE",
"349 107 OFFCURVE",
"349 153 CURVE SMOOTH",
"349 196 OFFCURVE",
"346 236 OFFCURVE",
"345 282 CURVE SMOOTH",
"344 314 OFFCURVE",
"342 315 OFFCURVE",
"313 317 CURVE SMOOTH",
"306 318 OFFCURVE",
"298 318 OFFCURVE",
"290 318 CURVE SMOOTH",
"269 318 OFFCURVE",
"216 315 OFFCURVE",
"192 315 CURVE SMOOTH",
"176 315 OFFCURVE",
"173 308 OFFCURVE",
"173 298 CURVE SMOOTH"
);
}
);
userData = {
com.schriftgestaltung.Glyphs.lastChange = "2019-09-04 17:02:18 +0000";
};
width = 462;
}
);
unicode = 0047;
},
{
glyphname = H;
layers = (
{
layerId = master01;
paths = (
{
closed = 1;
nodes = (
"13 405 OFFCURVE",
"18 412 OFFCURVE",
"25 417 CURVE SMOOTH",
"48 433 OFFCURVE",
"51 449 OFFCURVE",
"63 478 CURVE SMOOTH",
"73 502 OFFCURVE",
"73 531 OFFCURVE",
"85 554 CURVE SMOOTH",
"91 566 OFFCURVE",
"98 575 OFFCURVE",
"101 581 CURVE SMOOTH",
"103 587 OFFCURVE",
"111 610 OFFCURVE",
"128 610 CURVE SMOOTH",
"162 610 OFFCURVE",
"167 555 OFFCURVE",
"167 528 CURVE SMOOTH",
"167 489 OFFCURVE",
"158 462 OFFCURVE",
"158 430 CURVE SMOOTH",
"158 407 OFFCURVE",
"163 383 OFFCURVE",
"163 355 CURVE SMOOTH",
"163 339 OFFCURVE",
"162 324 OFFCURVE",
"162 309 CURVE SMOOTH",
"162 301 OFFCURVE",
"162 293 OFFCURVE",
"163 285 CURVE SMOOTH",
"163 273 OFFCURVE",
"166 267 OFFCURVE",
"171 267 CURVE SMOOTH",
"176 267 OFFCURVE",
"183 271 OFFCURVE",
"193 279 CURVE SMOOTH",
"232 309 OFFCURVE",
"278 335 OFFCURVE",
"347 335 CURVE SMOOTH",
"399 335 OFFCURVE",
"433 317 OFFCURVE",
"459 296 CURVE SMOOTH",
"488 272 OFFCURVE",
"516 239 OFFCURVE",
"516 187 CURVE SMOOTH",
"516 137 OFFCURVE",
"493 99 OFFCURVE",
"469 72 CURVE SMOOTH",
"451 50 OFFCURVE",
"446 26 OFFCURVE",
"417 9 CURVE SMOOTH",
"391 -5 OFFCURVE",
"375 -13 OFFCURVE",
"356 -30 CURVE SMOOTH",
"327 -55 OFFCURVE",
"294 -72 OFFCURVE",
"267 -97 CURVE SMOOTH",
"255 -108 OFFCURVE",
"243 -118 OFFCURVE",
"229 -128 CURVE SMOOTH",
"221 -133 OFFCURVE",
"216 -140 OFFCURVE",
"216 -142 CURVE SMOOTH",
"216 -157 OFFCURVE",
"259 -166 OFFCURVE",
"292 -173 CURVE SMOOTH",
"301 -175 OFFCURVE",
"306 -181 OFFCURVE",
"306 -188 CURVE SMOOTH",
"306 -193 OFFCURVE",
"304 -199 OFFCURVE",
"299 -204 CURVE SMOOTH",
"264 -239 OFFCURVE",
"241 -254 OFFCURVE",
"193 -254 CURVE SMOOTH",
"144 -254 OFFCURVE",
"123 -215 OFFCURVE",
"123 -179 CURVE SMOOTH",
"123 -146 OFFCURVE",
"142 -136 OFFCURVE",
"155 -123 CURVE SMOOTH",
"179 -100 OFFCURVE",
"212 -81 OFFCURVE",
"239 -64 CURVE SMOOTH",
"274 -42 OFFCURVE",
"304 -13 OFFCURVE",
"338 10 CURVE SMOOTH",
"375 35 OFFCURVE",
"397 54 OFFCURVE",
"416 94 CURVE SMOOTH",
"427 117 OFFCURVE",
"436 139 OFFCURVE",
"436 164 CURVE SMOOTH",
"436 194 OFFCURVE",
"430 223 OFFCURVE",
"406 250 CURVE SMOOTH",
"377 285 OFFCURVE",
"353 296 OFFCURVE",
"301 296 CURVE SMOOTH",
"260 296 OFFCURVE",
"235 275 OFFCURVE",
"214 253 CURVE SMOOTH",
"207 247 OFFCURVE",
"201 240 OFFCURVE",
"195 233 CURVE SMOOTH",
"181 216 OFFCURVE",
"177 206 OFFCURVE",
"177 186 CURVE SMOOTH",
"177 179 OFFCURVE",
"177 172 OFFCURVE",
"178 162 CURVE SMOOTH",
"181 125 OFFCURVE",
"182 87 OFFCURVE",
"182 53 CURVE SMOOTH",
"182 40 OFFCURVE",
"176 22 OFFCURVE",
"158 16 CURVE SMOOTH",
"146 12 OFFCURVE",
"132 -4 OFFCURVE",
"116 -4 CURVE SMOOTH",
"92 -4 OFFCURVE",
"88 20 OFFCURVE",
"88 45 CURVE SMOOTH",
"88 56 OFFCURVE",
"89 68 OFFCURVE",
"89 77 CURVE SMOOTH",
"89 138 OFFCURVE",
"78 194 OFFCURVE",
"72 255 CURVE SMOOTH",
"69.252 282.937 OFFCURVE",
"67 311 OFFCURVE",
"66 338 CURVE SMOOTH",
"65.554 350.033 OFFCURVE",
"44 369 OFFCURVE",
"29 374 CURVE SMOOTH",
"20 378 OFFCURVE",
"13 386 OFFCURVE",
"13 396 CURVE SMOOTH"
);
}
);
userData = {
com.fontlab.hintData = {
hhints = (
{
position = -254;
width = 21;
},
{
position = -4;
width = 21;
},
{
position = 296;
width = 39;
}
);
vhints = (
{
position = 20;
width = 150;
},
{
position = 95;
width = 94;
},
{
position = 130;
width = 93;
},
{
position = 443;
width = 80;
}
);
};
};
width = 509;
}
);
unicode = 0048;
},
{
glyphname = I;
layers = (
{
anchors = (
{
name = top;
position = "{132, 570}";
}
);
layerId = master01;
paths = (
{
closed = 1;
nodes = (
"10 35 OFFCURVE",
"20.67 39.167 OFFCURVE",
"40 44 CURVE SMOOTH",
"76 53 OFFCURVE",
"81 55 OFFCURVE",
"81 96 CURVE SMOOTH",
"81 112 OFFCURVE",
"82 147 OFFCURVE",
"82 161 CURVE SMOOTH",
"82 194 OFFCURVE",
"76 228 OFFCURVE",
"76 266 CURVE SMOOTH",
"76 319 OFFCURVE",
"79 371 OFFCURVE",
"79 422 CURVE SMOOTH",
"79 440 OFFCURVE",
"81 493 OFFCURVE",
"81 514 CURVE SMOOTH",
"81 551 OFFCURVE",
"76 556 OFFCURVE",
"40 565 CURVE SMOOTH",
"20.67 569.832 OFFCURVE",
"10 575 OFFCURVE",
"10 591 CURVE SMOOTH",
"10 599 OFFCURVE",
"16 612 OFFCURVE",
"31 612 CURVE SMOOTH",
"43 612 OFFCURVE",
"52 607 OFFCURVE",
"54 607 CURVE SMOOTH",
"58 607 OFFCURVE",
"70 612 OFFCURVE",
"84 612 CURVE SMOOTH",
"113 612 OFFCURVE",
"125 602 OFFCURVE",
"140 602 CURVE SMOOTH",
"151 602 OFFCURVE",
"164 616 OFFCURVE",
"194 616 CURVE SMOOTH",
"219 616 OFFCURVE",
"237 606 OFFCURVE",
"237 591 CURVE SMOOTH",
"237 571 OFFCURVE",
"217 571 OFFCURVE",
"207 565 CURVE SMOOTH",
"194 557 OFFCURVE",
"190 504 OFFCURVE",
"190 469 CURVE SMOOTH",
"190 434 OFFCURVE",
"191 399 OFFCURVE",
"191 361 CURVE SMOOTH",
"191 310 OFFCURVE",
"181 255 OFFCURVE",
"181 211 CURVE SMOOTH",
"181 184 OFFCURVE",
"187 137 OFFCURVE",
"191 109 CURVE SMOOTH",
"195.535 77.255 OFFCURVE",
"201.85 43.383 OFFCURVE",
"217 41 CURVE SMOOTH",
"227.313 39.378 OFFCURVE",
"237 34.447 OFFCURVE",
"237 20 CURVE SMOOTH",
"237 5 OFFCURVE",
"219 -6 OFFCURVE",
"194 -6 CURVE SMOOTH",
"164 -6 OFFCURVE",
"151 14 OFFCURVE",
"140 14 CURVE SMOOTH",
"125 14 OFFCURVE",
"113 -2 OFFCURVE",
"84 -2 CURVE SMOOTH",
"70 -2 OFFCURVE",
"58 3 OFFCURVE",
"54 3 CURVE SMOOTH",
"52 3 OFFCURVE",
"43 -2 OFFCURVE",
"31 -2 CURVE SMOOTH",
"16 -2 OFFCURVE",
"10 11 OFFCURVE",
"10 19 CURVE SMOOTH"
);
}
);
userData = {
com.schriftgestaltung.Glyphs.lastChange = "2019-09-04 17:02:18 +0000";
};
width = 266;
}
);
unicode = 0049;
},
{
glyphname = J;
layers = (
{
anchors = (
{
name = top;
position = "{147, 570}";
}
);
layerId = master01;
paths = (
{
closed = 1;
nodes = (
"10 599 OFFCURVE",
"16 612 OFFCURVE",
"31 612 CURVE SMOOTH",
"43 612 OFFCURVE",
"52 607 OFFCURVE",
"54 607 CURVE SMOOTH",
"58 607 OFFCURVE",
"70 612 OFFCURVE",
"84 612 CURVE SMOOTH",
"113 612 OFFCURVE",
"125 602 OFFCURVE",
"140 602 CURVE SMOOTH",
"151 602 OFFCURVE",
"164 616 OFFCURVE",
"194 616 CURVE SMOOTH",
"219 616 OFFCURVE",
"237 606 OFFCURVE",
"237 591 CURVE SMOOTH",
"237 571 OFFCURVE",
"217 571 OFFCURVE",
"207 565 CURVE SMOOTH",
"194 557 OFFCURVE",
"190 504 OFFCURVE",
"190 469 CURVE SMOOTH",
"190 434 OFFCURVE",
"191 399 OFFCURVE",
"191 361 CURVE SMOOTH",
"191 310 OFFCURVE",
"181 255 OFFCURVE",
"181 211 CURVE SMOOTH",
"181 160 OFFCURVE",
"185 160 OFFCURVE",
"185 130 CURVE SMOOTH",
"185 97 OFFCURVE",
"181 59 OFFCURVE",
"177 24 CURVE SMOOTH",
"172 -19 OFFCURVE",
"175 -62 OFFCURVE",
"170 -104 CURVE SMOOTH",
"154 -236 OFFCURVE",
"124 -251 OFFCURVE",
"31 -304 CURVE SMOOTH",
"28 -306 OFFCURVE",
"21 -307 OFFCURVE",
"19 -307 CURVE SMOOTH",
"15 -307 OFFCURVE",
"13 -303 OFFCURVE",
"13 -298 CURVE SMOOTH",
"13 -289 OFFCURVE",
"31 -264 OFFCURVE",
"51 -226 CURVE SMOOTH",
"66 -197 OFFCURVE",
"68 -151 OFFCURVE",
"68 -120 CURVE SMOOTH",
"68 -90 OFFCURVE",
"69 -60 OFFCURVE",
"70 -30 CURVE SMOOTH",
"71 12 OFFCURVE",
"80 54 OFFCURVE",
"81 96 CURVE",
"81 96 LINE",
"81 112 OFFCURVE",
"82 147 OFFCURVE",
"82 161 CURVE SMOOTH",
"82 194 OFFCURVE",
"76 228 OFFCURVE",
"76 266 CURVE SMOOTH",
"76 319 OFFCURVE",
"79 371 OFFCURVE",
"79 422 CURVE SMOOTH",
"79 440 OFFCURVE",
"81 493 OFFCURVE",
"81 514 CURVE SMOOTH",
"81 556 OFFCURVE",
"77 558 OFFCURVE",
"40 566 CURVE SMOOTH",
"21 570 OFFCURVE",
"10 576 OFFCURVE",
"10 591 CURVE SMOOTH"
);
}
);
userData = {
com.schriftgestaltung.Glyphs.lastChange = "2019-09-04 17:02:18 +0000";
};
width = 268;
}
);
unicode = 004A;
},
{
glyphname = K;
layers = (
{
anchors = (
{
name = top;
position = "{279, 570}";
}
);
layerId = master01;
paths = (
{
closed = 1;
nodes = (
"10 35 OFFCURVE",
"20.802 38.667 OFFCURVE",
"40 44 CURVE SMOOTH",
"76 54 OFFCURVE",
"81 56 OFFCURVE",
"81 96 CURVE SMOOTH",
"81 112 OFFCURVE",
"82 147 OFFCURVE",
"82 161 CURVE SMOOTH",
"82 194 OFFCURVE",
"76 228 OFFCURVE",
"76 266 CURVE SMOOTH",
"76 319 OFFCURVE",
"79 371 OFFCURVE",
"79 422 CURVE SMOOTH",
"79 440 OFFCURVE",
"81 493 OFFCURVE",
"81 514 CURVE SMOOTH",
"81 557 OFFCURVE",
"77.133 558.182 OFFCURVE",
"40 566 CURVE SMOOTH",
"21 570 OFFCURVE",
"10 575 OFFCURVE",
"10 591 CURVE SMOOTH",
"10 599 OFFCURVE",
"16 612 OFFCURVE",
"31 612 CURVE SMOOTH",
"43 612 OFFCURVE",
"52 607 OFFCURVE",
"54 607 CURVE SMOOTH",
"58 607 OFFCURVE",
"70 612 OFFCURVE",
"84 612 CURVE SMOOTH",
"113 612 OFFCURVE",
"125 602 OFFCURVE",
"140 602 CURVE SMOOTH",
"151 602 OFFCURVE",
"164 616 OFFCURVE",
"194 616 CURVE SMOOTH",
"219 616 OFFCURVE",
"237 606 OFFCURVE",
"237 591 CURVE SMOOTH",
"237 571 OFFCURVE",
"217 571 OFFCURVE",
"207 565 CURVE SMOOTH",
"194 557 OFFCURVE",
"190 504 OFFCURVE",
"190 469 CURVE SMOOTH",
"190 434 OFFCURVE",
"191 399 OFFCURVE",
"191 361 CURVE SMOOTH",
"191 357 OFFCURVE",
"189 335 OFFCURVE",
"189 327 CURVE SMOOTH",
"189 320 OFFCURVE",
"191 318 OFFCURVE",
"194 318 CURVE SMOOTH",
"197 318 OFFCURVE",
"202 321 OFFCURVE",
"206 325 CURVE SMOOTH",
"227 342 OFFCURVE",
"241 368 OFFCURVE",
"250 380 CURVE SMOOTH",
"292 436 OFFCURVE",
"311 471 OFFCURVE",
"359 538 CURVE SMOOTH",
"362 542 OFFCURVE",
"363 546 OFFCURVE",
"363 549 CURVE SMOOTH",
"363 554 OFFCURVE",
"359 558 OFFCURVE",
"349 560 CURVE SMOOTH",
"328 564 OFFCURVE",
"308 573 OFFCURVE",
"308 589 CURVE SMOOTH",
"308 597 OFFCURVE",
"315 610 OFFCURVE",
"329 610 CURVE SMOOTH",
"341 610 OFFCURVE",
"349 605 OFFCURVE",
"351 605 CURVE SMOOTH",
"355 605 OFFCURVE",
"367 610 OFFCURVE",
"380 610 CURVE SMOOTH",
"394 610 OFFCURVE",
"404 606 OFFCURVE",
"412 602 CURVE",
"431 613 OFFCURVE",
"443 616 OFFCURVE",
"483 616 CURVE SMOOTH",
"505 616 OFFCURVE",
"527 604 OFFCURVE",
"527 588 CURVE SMOOTH",
"527 567 OFFCURVE",
"513 558 OFFCURVE",
"495 555 CURVE SMOOTH",
"465 550 OFFCURVE",
"438 556 OFFCURVE",
"419 528 CURVE SMOOTH",
"378 467 OFFCURVE",
"365 440 OFFCURVE",
"320 385 CURVE SMOOTH",
"301 362 OFFCURVE",
"298 357 OFFCURVE",
"284 341 CURVE",
"301 309 OFFCURVE",
"337 262 OFFCURVE",
"364 220 CURVE SMOOTH",
"403 160 OFFCURVE",
"400 155 OFFCURVE",
"425 119 CURVE SMOOTH",
"450 83 OFFCURVE",
"477 32 OFFCURVE",
"545 32 CURVE SMOOTH",
"553 32 OFFCURVE",
"558 22 OFFCURVE",
"558 16 CURVE SMOOTH",
"558 9 OFFCURVE",
"552 -5 OFFCURVE",
"536 -5 CURVE SMOOTH",
"497 -5 OFFCURVE",
"417 0 OFFCURVE",
"381 0 CURVE SMOOTH",
"369 0 OFFCURVE",
"360 16 OFFCURVE",
"360 30 CURVE SMOOTH",
"360 37 OFFCURVE",
"354 40 OFFCURVE",
"352 45 CURVE SMOOTH",
"310 132 OFFCURVE",
"277 197 OFFCURVE",
"222 266 CURVE SMOOTH",
"219 269 OFFCURVE",
"202 269 OFFCURVE",
"195 269 CURVE SMOOTH",
"183 269 OFFCURVE",
"181 249 OFFCURVE",
"181 232 CURVE SMOOTH",
"181 211 LINE SMOOTH",
"181 184 OFFCURVE",
"189 137 OFFCURVE",
"192 109 CURVE SMOOTH",
"196 73 OFFCURVE",
"193 54 OFFCURVE",
"207 45 CURVE SMOOTH",
"217 39 OFFCURVE",
"237 40 OFFCURVE",
"237 20 CURVE SMOOTH",
"237 5 OFFCURVE",
"219 -6 OFFCURVE",
"194 -6 CURVE SMOOTH",
"164 -6 OFFCURVE",
"151 14 OFFCURVE",
"140 14 CURVE SMOOTH",
"125 14 OFFCURVE",
"113 -2 OFFCURVE",
"84 -2 CURVE SMOOTH",
"70 -2 OFFCURVE",
"58 3 OFFCURVE",
"54 3 CURVE SMOOTH",
"52 3 OFFCURVE",
"43 -2 OFFCURVE",
"31 -2 CURVE SMOOTH",
"16 -2 OFFCURVE",
"10 11 OFFCURVE",
"10 19 CURVE SMOOTH"
);
}
);
userData = {
com.schriftgestaltung.Glyphs.lastChange = "2019-09-04 17:02:18 +0000";
};
width = 560;
}
);
unicode = 004B;
},
{
glyphname = L;
layers = (
{
anchors = (
{
name = top;
position = "{245, 570}";
}
);
layerId = master01;
paths = (
{
closed = 1;
nodes = (
"10 599 OFFCURVE",
"16 612 OFFCURVE",
"31 612 CURVE SMOOTH",
"43 612 OFFCURVE",
"52 607 OFFCURVE",
"54 607 CURVE SMOOTH",
"58 607 OFFCURVE",
"70 612 OFFCURVE",
"84 612 CURVE SMOOTH",
"113 612 OFFCURVE",
"125 602 OFFCURVE",
"140 602 CURVE SMOOTH",
"151 602 OFFCURVE",
"164 616 OFFCURVE",
"194 616 CURVE SMOOTH",
"219 616 OFFCURVE",
"237 606 OFFCURVE",
"237 591 CURVE SMOOTH",
"237 571 OFFCURVE",
"217 571 OFFCURVE",
"207 565 CURVE SMOOTH",
"199 560 OFFCURVE",
"197 536 OFFCURVE",
"197 511 CURVE SMOOTH",
"197 497 OFFCURVE",
"198 482 OFFCURVE",
"198 469 CURVE SMOOTH",
"198 449 OFFCURVE",
"195 423 OFFCURVE",
"195 405 CURVE SMOOTH",
"195 291 OFFCURVE",
"211 249 OFFCURVE",
"211 155 CURVE SMOOTH",
"211 141 LINE SMOOTH",
"211 118 OFFCURVE",
"207 99 OFFCURVE",
"204 79 CURVE SMOOTH",
"203 72 OFFCURVE",
"203 66 OFFCURVE",
"203 62 CURVE SMOOTH",
"203 51 OFFCURVE",
"209 50 OFFCURVE",
"233 50 CURVE SMOOTH",
"248 50 OFFCURVE",
"259 49 OFFCURVE",
"271 49 CURVE SMOOTH",
"310 49 OFFCURVE",
"352 57 OFFCURVE",
"352 69 CURVE SMOOTH",
"352 75 OFFCURVE",
"357 122 OFFCURVE",
"380 122 CURVE SMOOTH",
"400 122 OFFCURVE",
"401 91 OFFCURVE",
"401 74 CURVE SMOOTH",
"401 51 LINE SMOOTH",
"401 32 OFFCURVE",
"410 23 OFFCURVE",
"410 -2 CURVE SMOOTH",
"410 -22 OFFCURVE",
"398 -38 OFFCURVE",
"379 -38 CURVE SMOOTH",
"365 -38 OFFCURVE",
"361 -26 OFFCURVE",
"359 -15 CURVE SMOOTH",
"357 -5 OFFCURVE",
"355 -1 OFFCURVE",
"341 -1 CURVE SMOOTH",
"336 -1 OFFCURVE",
"329 -2 OFFCURVE",
"324 -2 CURVE SMOOTH",
"315 -3 OFFCURVE",
"306 -3 OFFCURVE",
"300 -3 CURVE SMOOTH",
"281 -3 OFFCURVE",
"263 0 OFFCURVE",
"248 0 CURVE SMOOTH",
"203 0 LINE SMOOTH",
"185 0 OFFCURVE",
"169 -1 OFFCURVE",
"158 -4 CURVE SMOOTH",
"129 -12 OFFCURVE",
"105 -12 OFFCURVE",
"91 -21 CURVE SMOOTH",
"84 -26 OFFCURVE",
"78 -28 OFFCURVE",
"70 -28 CURVE SMOOTH",
"58 -28 OFFCURVE",
"46 -19 OFFCURVE",
"46 -6 CURVE SMOOTH",
"46 16 OFFCURVE",
"77 24 OFFCURVE",
"82 41 CURVE SMOOTH",
"85 51 OFFCURVE",
"85 63 OFFCURVE",
"86 77 CURVE SMOOTH",
"89 111 OFFCURVE",
"97 141 OFFCURVE",
"97 176 CURVE SMOOTH",
"97 228 OFFCURVE",
"88 283 OFFCURVE",
"84 335 CURVE SMOOTH",
"81 377 OFFCURVE",
"78 425 OFFCURVE",
"78 469 CURVE SMOOTH",
"78 487 OFFCURVE",
"81 493 OFFCURVE",
"81 514 CURVE SMOOTH",
"81 556 OFFCURVE",
"77 558 OFFCURVE",
"40 566 CURVE SMOOTH",
"21 570 OFFCURVE",
"10 575 OFFCURVE",
"10 591 CURVE SMOOTH"
);
}
);
userData = {
com.schriftgestaltung.Glyphs.lastChange = "2019-09-04 17:02:18 +0000";
};
width = 416;
}
);
unicode = 004C;
},
{
glyphname = M;
layers = (
{
anchors = (
{
name = top;
position = "{394, 570}";
}
);
layerId = master01;
paths = (
{
closed = 1;
nodes = (
"-13 594 OFFCURVE",
"-6 602 OFFCURVE",
"10 603 CURVE SMOOTH",
"50 603 OFFCURVE",
"80 596 OFFCURVE",
"118 596 CURVE SMOOTH",
"130 596 OFFCURVE",
"140 591 OFFCURVE",
"140 579 CURVE SMOOTH",
"140 572 OFFCURVE",
"145 567 OFFCURVE",
"149 563 CURVE SMOOTH",
"194 508 OFFCURVE",
"220 439 OFFCURVE",
"262 381 CURVE SMOOTH",
"278 359 OFFCURVE",
"309 309 OFFCURVE",
"338 266 CURVE SMOOTH",
"350 248 OFFCURVE",
"360 238 OFFCURVE",
"368 238 CURVE SMOOTH",
"376 238 OFFCURVE",
"384 246 OFFCURVE",
"396 264 CURVE SMOOTH",
"470 376 OFFCURVE",
"527 469 OFFCURVE",
"598 584 CURVE",
"599 584 LINE",
"611 600 OFFCURVE",
"627 606 OFFCURVE",
"638 609 CURVE SMOOTH",
"648 612 OFFCURVE",
"662 616 OFFCURVE",
"692 616 CURVE SMOOTH",
"717 616 OFFCURVE",
"735 606 OFFCURVE",
"735 591 CURVE SMOOTH",
"735 571 OFFCURVE",
"714 572 OFFCURVE",
"705 565 CURVE SMOOTH",
"694 557 OFFCURVE",
"693 499 OFFCURVE",
"693 464 CURVE SMOOTH",
"693 429 OFFCURVE",
"689 399 OFFCURVE",
"689 361 CURVE SMOOTH",
"689 310 OFFCURVE",
"679 255 OFFCURVE",
"679 211 CURVE SMOOTH",
"679 186 OFFCURVE",
"684 137 OFFCURVE",
"687 109 CURVE SMOOTH",
"691 73 OFFCURVE",
"691 54 OFFCURVE",
"705 45 CURVE SMOOTH",
"715 39 OFFCURVE",
"735 40 OFFCURVE",
"735 20 CURVE SMOOTH",
"735 5 OFFCURVE",
"717 -6 OFFCURVE",
"692 -6 CURVE SMOOTH",
"662 -6 OFFCURVE",
"649 14 OFFCURVE",
"638 14 CURVE SMOOTH",
"623 14 OFFCURVE",
"611 -2 OFFCURVE",
"582 -2 CURVE SMOOTH",
"568 -2 OFFCURVE",
"556 3 OFFCURVE",
"552 3 CURVE SMOOTH",
"550 3 OFFCURVE",
"542 -2 OFFCURVE",
"530 -2 CURVE SMOOTH",
"515 -2 OFFCURVE",
"508 11 OFFCURVE",
"508 19 CURVE SMOOTH",
"508 35 OFFCURVE",
"518.802 38.667 OFFCURVE",
"538 44 CURVE SMOOTH",
"574 54 OFFCURVE",
"579 56 OFFCURVE",
"579 96 CURVE SMOOTH",
"579 112 OFFCURVE",
"581 147 OFFCURVE",
"581 161 CURVE SMOOTH",
"581 194 OFFCURVE",
"574 228 OFFCURVE",
"574 266 CURVE SMOOTH",
"574 319 OFFCURVE",
"576 345 OFFCURVE",
"576 396 CURVE SMOOTH",
"577 415 OFFCURVE",
"573 426 OFFCURVE",
"567 426 CURVE SMOOTH",
"563 426 OFFCURVE",
"557 421 OFFCURVE",
"550 410 CURVE SMOOTH",
"506 338 OFFCURVE",
"475 285 OFFCURVE",
"420 195 CURVE SMOOTH",
"395 154 OFFCURVE",
"361 98 OFFCURVE",
"341 98 CURVE SMOOTH",
"329 98 OFFCURVE",
"319 115 OFFCURVE",
"313 126 CURVE SMOOTH",
"285 179 OFFCURVE",
"278 199 OFFCURVE",
"243 251 CURVE SMOOTH",
"222 283 OFFCURVE",
"204 321 OFFCURVE",
"180 351 CURVE SMOOTH",
"175 357 OFFCURVE",
"169 364 OFFCURVE",
"164 372 CURVE SMOOTH",
"157 382 OFFCURVE",
"149 387 OFFCURVE",
"142 387 CURVE SMOOTH",
"134 387 OFFCURVE",
"127 377 OFFCURVE",
"126 358 CURVE SMOOTH",
"123 321 OFFCURVE",
"119 284 OFFCURVE",
"119 243 CURVE SMOOTH",
"119 198 OFFCURVE",
"121 141 OFFCURVE",
"126 97 CURVE SMOOTH",
"129 71 OFFCURVE",
"136 46 OFFCURVE",
"157 33 CURVE SMOOTH",
"162 30 OFFCURVE",
"176 19 OFFCURVE",
"176 10 CURVE SMOOTH",
"176 0 OFFCURVE",
"158 -2 OFFCURVE",
"145 -2 CURVE SMOOTH",
"131 -2 OFFCURVE",
"106 0 OFFCURVE",
"92 0 CURVE SMOOTH",
"81 0 OFFCURVE",
"72 -2 OFFCURVE",
"61 -2 CURVE SMOOTH",
"45 -2 OFFCURVE",
"40 4 OFFCURVE",
"40 12 CURVE SMOOTH",
"40 27 OFFCURVE",
"55 50 OFFCURVE",
"56 63 CURVE SMOOTH",
"61 200 OFFCURVE",
"77 340 OFFCURVE",
"77 478 CURVE SMOOTH",
"77 494 OFFCURVE",
"77 511 OFFCURVE",
"75 526 CURVE SMOOTH",
"72 555 OFFCURVE",
"61 564 OFFCURVE",
"40 571 CURVE SMOOTH",
"29 575 OFFCURVE",
"17 576 OFFCURVE",
"1 576 CURVE SMOOTH",
"-7 576 OFFCURVE",
"-13 581 OFFCURVE",
"-13 587 CURVE SMOOTH"
);
}
);
userData = {
com.schriftgestaltung.Glyphs.lastChange = "2019-09-04 17:02:18 +0000";
};
width = 745;
}
);
unicode = 004D;
},
{
glyphname = N;
layers = (
{
anchors = (
{
name = top;
position = "{283, 570}";
}
);
layerId = master01;
paths = (
{
closed = 1;
nodes = (
"10 594 OFFCURVE",
"17 602 OFFCURVE",
"33 603 CURVE SMOOTH",
"39 603 OFFCURVE",
"46 602 OFFCURVE",
"52 602 CURVE SMOOTH",
"85 600 OFFCURVE",
"108 596 OFFCURVE",
"141 596 CURVE SMOOTH",
"153 596 OFFCURVE",
"163 591 OFFCURVE",
"163 579 CURVE SMOOTH",
"163 572 OFFCURVE",
"168 567 OFFCURVE",
"172 563 CURVE SMOOTH",
"217 508 OFFCURVE",
"263 453 OFFCURVE",
"314 403 CURVE SMOOTH",
"337 380 OFFCURVE",
"354 355 OFFCURVE",
"377 334 CURVE SMOOTH",
"383 328 OFFCURVE",
"389 325 OFFCURVE",
"394 325 CURVE SMOOTH",
"401 325 OFFCURVE",
"405 334 OFFCURVE",
"405 352 CURVE SMOOTH",
"405 412 OFFCURVE",
"400 470 OFFCURVE",
"398 529 CURVE SMOOTH",
"397 551 OFFCURVE",
"392 562 OFFCURVE",
"373 571 CURVE SMOOTH",
"354 579 OFFCURVE",
"345 585 OFFCURVE",
"330 590 CURVE SMOOTH",
"320 593 OFFCURVE",
"315 598 OFFCURVE",
"315 601 CURVE SMOOTH",
"315 604 OFFCURVE",
"320 608 OFFCURVE",
"329 608 CURVE SMOOTH",
"344 608 OFFCURVE",
"356 609 OFFCURVE",
"371 609 CURVE SMOOTH",
"395 609 OFFCURVE",
"427 606 OFFCURVE",
"451 606 CURVE SMOOTH",
"472 606 OFFCURVE",
"487 608 OFFCURVE",
"506 608 CURVE SMOOTH",
"511 608 OFFCURVE",
"520 608 OFFCURVE",
"524 607 CURVE SMOOTH",
"530 606 OFFCURVE",
"535 604 OFFCURVE",
"535 600 CURVE SMOOTH",
"535 596 OFFCURVE",
"530 592 OFFCURVE",
"520 588 CURVE SMOOTH",
"513 585 OFFCURVE",
"505 583 OFFCURVE",
"498 580 CURVE SMOOTH",
"474 571 OFFCURVE",
"469 565 OFFCURVE",
"467 535 CURVE SMOOTH",
"464 491 OFFCURVE",
"460 446 OFFCURVE",
"460 400 CURVE SMOOTH",
"460 350 OFFCURVE",
"467 303 OFFCURVE",
"467 255 CURVE SMOOTH",
"467 153 LINE SMOOTH",
"467 127 OFFCURVE",
"469 75 OFFCURVE",
"475 54 CURVE SMOOTH",
"478 45 OFFCURVE",
"482 34 OFFCURVE",
"482 24 CURVE SMOOTH",
"482 10 OFFCURVE",
"474 -11 OFFCURVE",
"455 -11 CURVE SMOOTH",
"439 -11 OFFCURVE",
"424 14 OFFCURVE",
"419 25 CURVE SMOOTH",
"389 84 OFFCURVE",
"378 133 OFFCURVE",
"347 184 CURVE SMOOTH",
"333 207 OFFCURVE",
"301 251 OFFCURVE",
"281 271 CURVE SMOOTH",
"255 298 OFFCURVE",
"240 335 OFFCURVE",
"211 360 CURVE SMOOTH",
"205 366 OFFCURVE",
"198 372 OFFCURVE",
"191 378 CURVE SMOOTH",
"183 385 OFFCURVE",
"174 388 OFFCURVE",
"166 388 CURVE SMOOTH",
"157 388 OFFCURVE",
"150 381 OFFCURVE",
"149 365 CURVE SMOOTH",
"145 326 OFFCURVE",
"142 279 OFFCURVE",
"142 236 CURVE SMOOTH",
"142 191 OFFCURVE",
"144 141 OFFCURVE",
"149 97 CURVE SMOOTH",
"152 71 OFFCURVE",
"159 45 OFFCURVE",
"180 33 CURVE SMOOTH",
"186 30 OFFCURVE",
"199 19 OFFCURVE",
"199 10 CURVE SMOOTH",
"199 1 OFFCURVE",
"181 -2 OFFCURVE",
"168 -2 CURVE SMOOTH",
"154 -2 OFFCURVE",
"129 0 OFFCURVE",
"115 0 CURVE SMOOTH",
"104 0 OFFCURVE",
"95 -2 OFFCURVE",
"84 -2 CURVE SMOOTH",
"69 -2 OFFCURVE",
"63 11 OFFCURVE",
"63 19 CURVE SMOOTH",
"63 34 OFFCURVE",
"78 50 OFFCURVE",
"79 63 CURVE SMOOTH",
"84 200 OFFCURVE",
"100 340 OFFCURVE",
"100 478 CURVE SMOOTH",
"100 494 OFFCURVE",
"100 511 OFFCURVE",
"98 526 CURVE SMOOTH",
"96 546 OFFCURVE",
"93 555 OFFCURVE",
"80 563 CURVE SMOOTH",
"64 573 OFFCURVE",
"48 576 OFFCURVE",
"24 576 CURVE SMOOTH",
"16 576 OFFCURVE",
"10 581 OFFCURVE",
"10 587 CURVE SMOOTH"
);
}
);
userData = {
com.schriftgestaltung.Glyphs.lastChange = "2019-09-04 17:02:18 +0000";
};
width = 546;
}
);
unicode = 004E;
},
{
glyphname = O;
layers = (
{
anchors = (
{
name = top;
position = "{277, 570}";
}
);
layerId = master01;
paths = (
{
closed = 1;
nodes = (
"4 451 OFFCURVE",
"7 460 OFFCURVE",
"14 465 CURVE SMOOTH",
"21 471 OFFCURVE",
"28 478 OFFCURVE",
"37 484 CURVE SMOOTH",
"47 491 OFFCURVE",
"56 500 OFFCURVE",
"68 506 CURVE SMOOTH",
"84 514 OFFCURVE",
"85 516 OFFCURVE",
"97 530 CURVE SMOOTH",
"124 561 OFFCURVE",
"162 580 OFFCURVE",
"199 599 CURVE SMOOTH",
"227 613 OFFCURVE",
"254 627 OFFCURVE",
"297 627 CURVE SMOOTH",
"414 627 OFFCURVE",
"487 573 OFFCURVE",
"523 496 CURVE SMOOTH",
"543 454 OFFCURVE",
"551 408 OFFCURVE",
"556 364 CURVE SMOOTH",
"558 345 OFFCURVE",
"560 326 OFFCURVE",
"560 307 CURVE SMOOTH",
"560 265 OFFCURVE",
"550 231 OFFCURVE",
"542 197 CURVE SMOOTH",
"532 154 OFFCURVE",
"526 99 OFFCURVE",
"497 65 CURVE SMOOTH",
"488 55 OFFCURVE",
"478 47 OFFCURVE",
"469 38 CURVE SMOOTH",
"462 31 OFFCURVE",
"444 13 OFFCURVE",
"426 13 CURVE SMOOTH",
"408 13 OFFCURVE",
"406 12 OFFCURVE",
"393 4 CURVE SMOOTH",
"374 -8 OFFCURVE",
"350 -22 OFFCURVE",
"319 -22 CURVE SMOOTH",
"299 -22 OFFCURVE",
"280 -16 OFFCURVE",
"263 -10 CURVE SMOOTH",
"222 3 OFFCURVE",
"184 18 OFFCURVE",
"156 48 CURVE SMOOTH",
"128 79 OFFCURVE",
"98 116 OFFCURVE",
"85 162 CURVE SMOOTH",
"80 181 OFFCURVE",
"78 201 OFFCURVE",
"75 219 CURVE SMOOTH",
"73 235 OFFCURVE",
"71 251 OFFCURVE",
"71 268 CURVE SMOOTH",
"71 282 OFFCURVE",
"73 295 OFFCURVE",
"73 307 CURVE SMOOTH",
"73 339 LINE SMOOTH",
"73 343 OFFCURVE",
"73 344 OFFCURVE",
"69 353 CURVE SMOOTH",
"63 365 OFFCURVE",
"58 379 OFFCURVE",
"54 392 CURVE SMOOTH",
"48 413 OFFCURVE",
"51 423 OFFCURVE",
"24 424 CURVE SMOOTH",
"11 425 OFFCURVE",
"4 434 OFFCURVE",
"4 444 CURVE SMOOTH"
);
},
{
closed = 1;
nodes = (
"145 474 OFFCURVE",
"146 468 OFFCURVE",
"148 459 CURVE SMOOTH",
"151 447 OFFCURVE",
"157 435 OFFCURVE",
"159 420 CURVE SMOOTH",
"163 398 OFFCURVE",
"162 383 OFFCURVE",
"168 370 CURVE SMOOTH",
"171 363 OFFCURVE",
"176 352 OFFCURVE",
"176 341 CURVE SMOOTH",
"176 325 OFFCURVE",
"171 320 OFFCURVE",
"171 308 CURVE SMOOTH",
"171 300 OFFCURVE",
"169 292 OFFCURVE",
"169 285 CURVE SMOOTH",
"169 264 OFFCURVE",
"177 242 OFFCURVE",
"181 219 CURVE SMOOTH",
"188 181 OFFCURVE",
"202 149 OFFCURVE",
"222 123 CURVE SMOOTH",
"249 86 OFFCURVE",
"283 56 OFFCURVE",
"326 38 CURVE SMOOTH",
"337 33 OFFCURVE",
"349 30 OFFCURVE",
"360 30 CURVE SMOOTH",
"384 30 OFFCURVE",
"380 42 OFFCURVE",
"400 61 CURVE SMOOTH",
"441 100 OFFCURVE",
"459 179 OFFCURVE",
"459 264 CURVE SMOOTH",
"459 368 OFFCURVE",
"424 459 OFFCURVE",
"370 508 CURVE SMOOTH",
"353 524 OFFCURVE",
"336 528 OFFCURVE",
"317 542 CURVE SMOOTH",
"302 554 OFFCURVE",
"289 572 OFFCURVE",
"267 572 CURVE SMOOTH",
"217 572 OFFCURVE",
"179 546 OFFCURVE",
"155 513 CURVE SMOOTH",
"147 502 OFFCURVE",
"145 487 OFFCURVE",
"145 479 CURVE SMOOTH"
);
}
);
userData = {
com.schriftgestaltung.Glyphs.lastChange = "2019-09-04 17:02:18 +0000";
};
width = 565;
}
);
unicode = 004F;
},
{
glyphname = Oslash;
layers = (
{
anchors = (
{
name = top;
position = "{293, 570}";
}
);
layerId = master01;
paths = (
{
closed = 1;
nodes = (
"4 451 OFFCURVE",
"7 460 OFFCURVE",
"14 465 CURVE SMOOTH",
"21 471 OFFCURVE",
"28 478 OFFCURVE",
"37 484 CURVE SMOOTH",
"43 488 OFFCURVE",
"48 492 OFFCURVE",
"54 497 CURVE SMOOTH",
"58 500 OFFCURVE",
"63 504 OFFCURVE",
"68 506 CURVE SMOOTH",
"84 514 OFFCURVE",
"85 516 OFFCURVE",
"97 530 CURVE SMOOTH",
"124 561 OFFCURVE",
"162 580 OFFCURVE",
"199 599 CURVE SMOOTH",
"227 613 OFFCURVE",
"254 627 OFFCURVE",
"297 627 CURVE SMOOTH",
"333 627 OFFCURVE",
"365 622 OFFCURVE",
"393 613 CURVE",
"399 626 OFFCURVE",
"404 638 OFFCURVE",
"409 650 CURVE SMOOTH",
"416 663 OFFCURVE",
"423 673 OFFCURVE",
"431 679 CURVE SMOOTH",
"479 716 LINE SMOOTH",
"484 720 OFFCURVE",
"487 722 OFFCURVE",
"489 722 CURVE SMOOTH",
"491 722 OFFCURVE",
"491 720 OFFCURVE",
"491 718 CURVE SMOOTH",
"491 715 OFFCURVE",
"489 710 OFFCURVE",
"486 702 CURVE SMOOTH",
"437 592 LINE",
"476 569 OFFCURVE",
"505 535 OFFCURVE",
"523 496 CURVE SMOOTH",
"543 454 OFFCURVE",
"551 408 OFFCURVE",
"556 364 CURVE SMOOTH",
"558 345 OFFCURVE",
"560 326 OFFCURVE",
"560 307 CURVE SMOOTH",
"560 265 OFFCURVE",
"550 231 OFFCURVE",
"542 197 CURVE SMOOTH",
"532 154 OFFCURVE",
"526 99 OFFCURVE",
"497 65 CURVE SMOOTH",
"488 55 OFFCURVE",
"478 47 OFFCURVE",
"469 38 CURVE SMOOTH",
"462 31 OFFCURVE",
"444 13 OFFCURVE",
"426 13 CURVE SMOOTH",
"408 13 OFFCURVE",
"406 12 OFFCURVE",
"393 4 CURVE SMOOTH",
"374 -8 OFFCURVE",
"350 -22 OFFCURVE",
"319 -22 CURVE SMOOTH",
"299 -22 OFFCURVE",
"280 -16 OFFCURVE",
"263 -10 CURVE SMOOTH",
"238 -2 OFFCURVE",
"215 6 OFFCURVE",
"194 18 CURVE",
"191 10 OFFCURVE",
"188 3 OFFCURVE",
"186 -2 CURVE SMOOTH",
"179 -21 OFFCURVE",
"169 -34 OFFCURVE",
"156 -45 CURVE SMOOTH",
"121 -73 LINE SMOOTH",
"115 -78 OFFCURVE",
"111 -80 OFFCURVE",
"109 -80 CURVE SMOOTH",
"106 -80 OFFCURVE",
"105 -78 OFFCURVE",
"105 -74 CURVE SMOOTH",
"105 -70 OFFCURVE",
"106 -64 OFFCURVE",
"109 -56 CURVE SMOOTH",
"120 -25 OFFCURVE",
"135 10 OFFCURVE",
"154 51 CURVE",
"126 81 OFFCURVE",
"97 118 OFFCURVE",
"85 162 CURVE SMOOTH",
"80 181 OFFCURVE",
"78 201 OFFCURVE",
"75 219 CURVE SMOOTH",
"73 235 OFFCURVE",
"71 251 OFFCURVE",
"71 268 CURVE SMOOTH",
"71 282 OFFCURVE",
"73 295 OFFCURVE",
"73 307 CURVE SMOOTH",
"73 311 OFFCURVE",
"72 314 OFFCURVE",
"72 319 CURVE SMOOTH",
"72 329 OFFCURVE",
"73 336 OFFCURVE",
"73 339 CURVE SMOOTH",
"73 343 OFFCURVE",
"73 344 OFFCURVE",
"69 353 CURVE SMOOTH",
"58 375 OFFCURVE",
"52 400 OFFCURVE",
"45 423 CURVE",
"38 423 OFFCURVE",
"31 424 OFFCURVE",
"24 424 CURVE SMOOTH",
"11 425 OFFCURVE",
"4 434 OFFCURVE",
"4 444 CURVE SMOOTH"
);
},
{
closed = 1;
nodes = (
"144 474 OFFCURVE",
"145.373 467.837 OFFCURVE",
"148 459 CURVE SMOOTH",
"154.294 437.823 OFFCURVE",
"164.52 388.373 OFFCURVE",
"168 370 CURVE SMOOTH",
"169.417 362.517 OFFCURVE",
"176 352 OFFCURVE",
"176 341 CURVE SMOOTH",
"176 325 OFFCURVE",
"171 320 OFFCURVE",
"171 308 CURVE SMOOTH",
"171 300 OFFCURVE",
"169 292 OFFCURVE",
"169 285 CURVE SMOOTH",
"169 264 OFFCURVE",
"177 242 OFFCURVE",
"181 219 CURVE SMOOTH",
"185 196 OFFCURVE",
"191 176 OFFCURVE",
"201 157 CURVE",
"211 181 OFFCURVE",
"220 204 OFFCURVE",
"229 228 CURVE SMOOTH",
"242 265 OFFCURVE",
"299 397 OFFCURVE",
"353 521 CURVE",
"341 528 OFFCURVE",
"329 533 OFFCURVE",
"317 542 CURVE SMOOTH",
"302 554 OFFCURVE",
"289 572 OFFCURVE",
"267 572 CURVE SMOOTH",
"217 572 OFFCURVE",
"179 546 OFFCURVE",
"155 513 CURVE SMOOTH",
"147 502 OFFCURVE",
"144 487 OFFCURVE",
"144 479 CURVE SMOOTH"
);
},
{
closed = 1;
nodes = (
"260 78 OFFCURVE",
"290 54 OFFCURVE",
"326 38 CURVE SMOOTH",
"337 33 OFFCURVE",
"349 30 OFFCURVE",
"360 30 CURVE SMOOTH",
"384 30 OFFCURVE",
"380 42 OFFCURVE",
"400 61 CURVE SMOOTH",
"441 100 OFFCURVE",
"459 179 OFFCURVE",
"459 264 CURVE SMOOTH",
"459 353 OFFCURVE",
"432 433 OFFCURVE",
"391 485 CURVE",
"343 366 OFFCURVE",
"282 207 OFFCURVE",
"239 116 CURVE SMOOTH",
"238 113 OFFCURVE",
"236 110 OFFCURVE",
"235 107 CURVE SMOOTH"
);
}
);
userData = {
com.schriftgestaltung.Glyphs.lastChange = "2019-09-04 17:02:18 +0000";
};
width = 563;
}
);
unicode = 00D8;
},
{
glyphname = P;
layers = (
{
anchors = (
{
name = top;
position = "{273, 570}";
}
);
layerId = master01;
paths = (
{
closed = 1;
nodes = (
"6 606 OFFCURVE",
"6 610 OFFCURVE",
"9 613 CURVE SMOOTH",
"12 616 OFFCURVE",
"19 616 OFFCURVE",
"25 616 CURVE SMOOTH",
"42 616 OFFCURVE",
"57 612 OFFCURVE",
"71 610 CURVE SMOOTH",
"90 607 OFFCURVE",
"121 606 OFFCURVE",
"150 606 CURVE SMOOTH",
"184 606 OFFCURVE",
"209 621 OFFCURVE",
"252 621 CURVE SMOOTH",
"301 621 OFFCURVE",
"359 614 OFFCURVE",
"399 588 CURVE SMOOTH",
"430 567 OFFCURVE",
"449 540 OFFCURVE",
"449 491 CURVE SMOOTH",
"449 449 OFFCURVE",
"440 415 OFFCURVE",
"427 393 CURVE SMOOTH",
"415 372 OFFCURVE",
"400 350 OFFCURVE",
"381 334 CURVE SMOOTH",
"364 320 OFFCURVE",
"332 300 OFFCURVE",
"300 292 CURVE SMOOTH",
"274 285 OFFCURVE",
"250 282 OFFCURVE",
"227 282 CURVE SMOOTH",
"211 282 LINE SMOOTH",
"190 282 OFFCURVE",
"188 280 OFFCURVE",
"184 252 CURVE SMOOTH",
"182 240 OFFCURVE",
"181 231 OFFCURVE",
"181 211 CURVE SMOOTH",
"181 184 OFFCURVE",
"189 137 OFFCURVE",
"192 109 CURVE SMOOTH",
"196 73 OFFCURVE",
"193 54 OFFCURVE",
"207 45 CURVE SMOOTH",
"217 39 OFFCURVE",
"237 40 OFFCURVE",
"237 20 CURVE SMOOTH",
"237 5 OFFCURVE",
"219 -6 OFFCURVE",
"194 -6 CURVE SMOOTH",
"164 -6 OFFCURVE",
"151 14 OFFCURVE",
"140 14 CURVE SMOOTH",
"125 14 OFFCURVE",
"113 -2 OFFCURVE",
"84 -2 CURVE SMOOTH",
"70 -2 OFFCURVE",
"58 3 OFFCURVE",
"54 3 CURVE SMOOTH",
"52 3 OFFCURVE",
"43 -2 OFFCURVE",
"31 -2 CURVE SMOOTH",
"16 -2 OFFCURVE",
"10 11 OFFCURVE",
"10 19 CURVE SMOOTH",
"10 35 OFFCURVE",
"21 39 OFFCURVE",
"40 44 CURVE SMOOTH",
"76 53 OFFCURVE",
"81 55 OFFCURVE",
"81 96 CURVE SMOOTH",
"81 112 OFFCURVE",
"82 147 OFFCURVE",
"82 161 CURVE SMOOTH",
"82 194 OFFCURVE",
"76 228 OFFCURVE",
"76 266 CURVE SMOOTH",
"76 322 OFFCURVE",
"79 376 OFFCURVE",
"79 430 CURVE SMOOTH",
"79 458 OFFCURVE",
"85 500 OFFCURVE",
"85 522 CURVE SMOOTH",
"85 528 OFFCURVE",
"84 536 OFFCURVE",
"84 545 CURVE SMOOTH",
"84 565 OFFCURVE",
"80 574 OFFCURVE",
"66 574 CURVE SMOOTH",
"48 574 OFFCURVE",
"31 581 OFFCURVE",
"14 588 CURVE SMOOTH",
"9 590 OFFCURVE",
"6 596 OFFCURVE",
"6 602 CURVE SMOOTH"
);
},
{
closed = 1;
nodes = (
"195 323 OFFCURVE",
"208 318 OFFCURVE",
"218 318 CURVE SMOOTH",
"260 318 OFFCURVE",
"287 334 OFFCURVE",
"301 355 CURVE SMOOTH",
"323 387 OFFCURVE",
"326 406 OFFCURVE",
"326 453 CURVE SMOOTH",
"326 480 OFFCURVE",
"311 519 OFFCURVE",
"294 538 CURVE SMOOTH",
"277 557 OFFCURVE",
"259 575 OFFCURVE",
"234 575 CURVE SMOOTH",
"228 575 OFFCURVE",
"223 575 OFFCURVE",
"216 573 CURVE SMOOTH",
"196 568 OFFCURVE",
"196 559 OFFCURVE",
"196 544 CURVE SMOOTH",
"196 533 OFFCURVE",
"197 522 OFFCURVE",
"197 511 CURVE SMOOTH",
"197 489 OFFCURVE",
"195 429 OFFCURVE",
"195 408 CURVE SMOOTH",
"195 398 OFFCURVE",
"196 389 OFFCURVE",
"196 379 CURVE SMOOTH",
"196 369 OFFCURVE",
"195 359 OFFCURVE",
"195 349 CURVE SMOOTH"
);
}
);
userData = {
com.schriftgestaltung.Glyphs.lastChange = "2019-09-04 17:02:18 +0000";
};
width = 452;
}
);
unicode = 0050;
},
{
glyphname = Thorn;
layers = (
{
anchors = (
{
name = top;
position = "{202, 570}";
}
);
layerId = master01;
paths = (
{
closed = 1;
nodes = (
"12 22 OFFCURVE",
"53 24 OFFCURVE",
"60 47 CURVE SMOOTH",
"74 90 OFFCURVE",
"69 142 OFFCURVE",
"74 192 CURVE SMOOTH",
"78 231 OFFCURVE",
"80 270 OFFCURVE",
"80 309 CURVE SMOOTH",
"80 327 OFFCURVE",
"79 346 OFFCURVE",
"79 364 CURVE SMOOTH",
"79 390 OFFCURVE",
"82 415 OFFCURVE",
"82 440 CURVE SMOOTH",
"82 472 OFFCURVE",
"82 546 OFFCURVE",
"51 546 CURVE SMOOTH",
"40 546 OFFCURVE",
"32 546 OFFCURVE",
"24 549 CURVE",
"24 559 LINE",
"74 567 OFFCURVE",
"124 597 OFFCURVE",
"168 614 CURVE SMOOTH",
"175 617 OFFCURVE",
"184 619 OFFCURVE",
"192 619 CURVE SMOOTH",
"201 619 OFFCURVE",
"207 616 OFFCURVE",
"207 604 CURVE SMOOTH",
"207 580 OFFCURVE",
"198 549 OFFCURVE",
"195 524 CURVE",
"247 525 OFFCURVE",
"297 532 OFFCURVE",
"347 532 CURVE SMOOTH",
"371 532 OFFCURVE",
"401 527 OFFCURVE",
"401 506 CURVE SMOOTH",
"401 486 OFFCURVE",
"389 466 OFFCURVE",
"367 466 CURVE",
"346 433 OFFCURVE",
"320 404 OFFCURVE",
"300 371 CURVE SMOOTH",
"268 317 OFFCURVE",
"222 260 OFFCURVE",
"187 210 CURVE",
"188 169 OFFCURVE",
"189 137 OFFCURVE",
"189 95 CURVE SMOOTH",
"189 48 OFFCURVE",
"200 17 OFFCURVE",
"246 17 CURVE SMOOTH",
"248 17 LINE",
"251 0 LINE",
"240 -5 OFFCURVE",
"228 -7 OFFCURVE",
"216 -7 CURVE SMOOTH",
"203 -7 OFFCURVE",
"190 -5 OFFCURVE",
"177 -5 CURVE SMOOTH",
"161 -5 OFFCURVE",
"145 -7 OFFCURVE",
"129 -7 CURVE SMOOTH",
"89 -7 OFFCURVE",
"34 -6 OFFCURVE",
"-2 0 CURVE",
"-8 14 LINE"
);
},
{
closed = 1;
nodes = (
"190 429 OFFCURVE",
"193 400 OFFCURVE",
"193 371 CURVE SMOOTH",
"193 346 OFFCURVE",
"192 320 OFFCURVE",
"192 295 CURVE SMOOTH",
"192 290 LINE",
"230 317 OFFCURVE",
"252 375 OFFCURVE",
"274 416 CURVE SMOOTH",
"285 437 OFFCURVE",
"297 457 OFFCURVE",
"307 478 CURVE",
"288 482 OFFCURVE",
"267 485 OFFCURVE",
"245 485 CURVE SMOOTH",
"225 485 OFFCURVE",
"207 482 OFFCURVE",
"191 477 CURVE",
"191 470 OFFCURVE",
"190 464 OFFCURVE",
"190 457 CURVE SMOOTH"
);
}
);
userData = {
com.schriftgestaltung.Glyphs.lastChange = "2019-09-04 17:02:18 +0000";
};
width = 385;
}
);
unicode = 00DE;
},
{
glyphname = Q;
layers = (
{
anchors = (
{
name = top;
position = "{287, 570}";
}
);
layerId = master01;
paths = (
{
closed = 1;
nodes = (
"144 459 OFFCURVE",
"156 440 OFFCURVE",
"159 420 CURVE SMOOTH",
"163 398 OFFCURVE",
"162 383 OFFCURVE",
"168 370 CURVE SMOOTH",
"171 363 OFFCURVE",
"176 352 OFFCURVE",
"176 341 CURVE SMOOTH",
"176 325 OFFCURVE",
"171 320 OFFCURVE",
"171 308 CURVE SMOOTH",
"171 300 OFFCURVE",
"169 292 OFFCURVE",
"169 285 CURVE SMOOTH",
"169 264 OFFCURVE",
"177 242 OFFCURVE",
"181 219 CURVE SMOOTH",
"188 181 OFFCURVE",
"202 149 OFFCURVE",
"222 123 CURVE SMOOTH",
"249 86 OFFCURVE",
"283 56 OFFCURVE",
"326 38 CURVE SMOOTH",
"337 33 OFFCURVE",
"349 30 OFFCURVE",
"360 30 CURVE SMOOTH",
"384 30 OFFCURVE",
"380 42 OFFCURVE",
"400 61 CURVE SMOOTH",
"441 100 OFFCURVE",
"459 179 OFFCURVE",
"459 264 CURVE SMOOTH",
"459 368 OFFCURVE",
"424 459 OFFCURVE",
"370 508 CURVE SMOOTH",
"353 524 OFFCURVE",
"336 528 OFFCURVE",
"317 542 CURVE SMOOTH",
"302 554 OFFCURVE",
"289 572 OFFCURVE",
"267 572 CURVE SMOOTH",
"217 572 OFFCURVE",
"179 546 OFFCURVE",
"155 513 CURVE SMOOTH",
"147 502 OFFCURVE",
"144 487 OFFCURVE",
"144 479 CURVE SMOOTH"
);
},
{
closed = 1;
nodes = (
"4 468 OFFCURVE",
"39 485 OFFCURVE",
"54 497 CURVE SMOOTH",
"58 500 OFFCURVE",
"63 504 OFFCURVE",
"68 506 CURVE SMOOTH",
"84 514 OFFCURVE",
"85 516 OFFCURVE",
"97 530 CURVE SMOOTH",
"124 561 OFFCURVE",
"162 580 OFFCURVE",
"199 599 CURVE SMOOTH",
"227 613 OFFCURVE",
"254 627 OFFCURVE",
"297 627 CURVE SMOOTH",
"486 627 OFFCURVE",
"560 489 OFFCURVE",
"560 307 CURVE SMOOTH",
"560 265 OFFCURVE",
"550 231 OFFCURVE",
"542 197 CURVE SMOOTH",
"532 154 OFFCURVE",
"526 99 OFFCURVE",
"497 65 CURVE SMOOTH",
"488 55 OFFCURVE",
"478 47 OFFCURVE",
"469 38 CURVE SMOOTH",
"465 34 OFFCURVE",
"459 27 OFFCURVE",
"451 21 CURVE SMOOTH",
"440 14 OFFCURVE",
"436 6 OFFCURVE",
"436 -1 CURVE SMOOTH",
"436 -5 OFFCURVE",
"438 -8 OFFCURVE",
"440 -11 CURVE SMOOTH",
"563 -142 LINE SMOOTH",
"593 -174 OFFCURVE",
"618 -195 OFFCURVE",
"668 -195 CURVE SMOOTH",
"716 -195 OFFCURVE",
"751 -150 OFFCURVE",
"770 -135 CURVE",
"772 -135 LINE SMOOTH",
"776 -135 OFFCURVE",
"784 -140 OFFCURVE",
"784 -144 CURVE SMOOTH",
"784 -145 OFFCURVE",
"784 -145 OFFCURVE",
"783 -146 CURVE SMOOTH",
"727 -207 LINE",
"690 -237 OFFCURVE",
"666 -256 OFFCURVE",
"607 -256 CURVE SMOOTH",
"568 -256 OFFCURVE",
"530 -236 OFFCURVE",
"495 -198 CURVE SMOOTH",
"349 -38 LINE SMOOTH",
"335 -23 OFFCURVE",
"333 -24 OFFCURVE",
"306 -21 CURVE SMOOTH",
"291 -19 OFFCURVE",
"276 -14 OFFCURVE",
"263 -10 CURVE SMOOTH",
"222 3 OFFCURVE",
"184 18 OFFCURVE",
"156 48 CURVE SMOOTH",
"128 79 OFFCURVE",
"98 116 OFFCURVE",
"85 162 CURVE SMOOTH",
"76 195 OFFCURVE",
"71 231 OFFCURVE",
"71 268 CURVE SMOOTH",
"71 282 OFFCURVE",
"73 295 OFFCURVE",
"73 307 CURVE SMOOTH",
"73 311 OFFCURVE",
"72 314 OFFCURVE",
"72 319 CURVE SMOOTH",
"72 329 OFFCURVE",
"73 336 OFFCURVE",
"73 339 CURVE SMOOTH",
"73 343 OFFCURVE",
"73 344 OFFCURVE",
"69 353 CURVE SMOOTH",
"63 366 OFFCURVE",
"57 380 OFFCURVE",
"53 394 CURVE SMOOTH",
"46 418 OFFCURVE",
"48 419 OFFCURVE",
"22 425 CURVE SMOOTH",
"12 427 OFFCURVE",
"4 432 OFFCURVE",
"4 444 CURVE SMOOTH"
);
}
);
userData = {
com.schriftgestaltung.Glyphs.lastChange = "2019-09-04 17:02:18 +0000";
};
width = 583;
}
);
unicode = 0051;
},
{
glyphname = R;
layers = (
{
anchors = (
{
name = top;
position = "{291, 570}";
}
);
layerId = master01;
paths = (
{
closed = 1;
nodes = (
"4 610 OFFCURVE",
"8 615 OFFCURVE",
"15 616 CURVE SMOOTH",
"18 616 OFFCURVE",
"21 616 OFFCURVE",
"24 616 CURVE SMOOTH",
"41 616 OFFCURVE",
"56 612 OFFCURVE",
"70 610 CURVE SMOOTH",
"89 607 OFFCURVE",
"121 606 OFFCURVE",
"150 606 CURVE SMOOTH",
"184 606 OFFCURVE",
"209 621 OFFCURVE",
"252 621 CURVE SMOOTH",
"339 621 OFFCURVE",
"449 596 OFFCURVE",
"449 501 CURVE SMOOTH",
"449 468 OFFCURVE",
"432 434 OFFCURVE",
"422 416 CURVE SMOOTH",
"399.215 379.194 OFFCURVE",
"367.905 349.907 OFFCURVE",
"323 331 CURVE SMOOTH",
"315 327 OFFCURVE",
"311 322 OFFCURVE",
"311 317 CURVE SMOOTH",
"311 312 OFFCURVE",
"312 307 OFFCURVE",
"316 304 CURVE SMOOTH",
"330 292 OFFCURVE",
"342 277 OFFCURVE",
"351 268 CURVE SMOOTH",
"363 254 OFFCURVE",
"375 246 OFFCURVE",
"387 231 CURVE SMOOTH",
"407 207 OFFCURVE",
"427 173 OFFCURVE",
"435 141 CURVE SMOOTH",
"446 99 OFFCURVE",
"463 60 OFFCURVE",
"511 60 CURVE SMOOTH",
"545 60 OFFCURVE",
"586 84 OFFCURVE",
"611 102 CURVE SMOOTH",
"621 109 OFFCURVE",
"630 118 OFFCURVE",
"637 127 CURVE SMOOTH",
"643 135 OFFCURVE",
"649 137 OFFCURVE",
"653 137 CURVE SMOOTH",
"659 137 OFFCURVE",
"663 130 OFFCURVE",
"663 122 CURVE SMOOTH",
"663 115 OFFCURVE",
"661 106 OFFCURVE",
"655 98 CURVE SMOOTH",
"624 54 OFFCURVE",
"574 28 OFFCURVE",
"527 15 CURVE SMOOTH",
"517 12 OFFCURVE",
"507 10 OFFCURVE",
"496 10 CURVE SMOOTH",
"417 10 OFFCURVE",
"376 79 OFFCURVE",
"352 120 CURVE SMOOTH",
"324.101 167.662 OFFCURVE",
"286 211 OFFCURVE",
"254 259 CURVE SMOOTH",
"244 275 OFFCURVE",
"237 286 OFFCURVE",
"228 295 CURVE SMOOTH",
"218 305 OFFCURVE",
"210 309 OFFCURVE",
"203 309 CURVE SMOOTH",
"181.328 309 OFFCURVE",
"181 237.432 OFFCURVE",
"181 211 CURVE SMOOTH",
"181 184 OFFCURVE",
"189 137 OFFCURVE",
"192 109 CURVE SMOOTH",
"196 73 OFFCURVE",
"193 54 OFFCURVE",
"207 45 CURVE SMOOTH",
"217 39 OFFCURVE",
"237 40 OFFCURVE",
"237 20 CURVE SMOOTH",
"237 5 OFFCURVE",
"219 -6 OFFCURVE",
"194 -6 CURVE SMOOTH",
"164 -6 OFFCURVE",
"151 14 OFFCURVE",
"140 14 CURVE SMOOTH",
"125 14 OFFCURVE",
"113 -2 OFFCURVE",
"84 -2 CURVE SMOOTH",
"70 -2 OFFCURVE",
"58 3 OFFCURVE",
"54 3 CURVE SMOOTH",
"52 3 OFFCURVE",
"43 -2 OFFCURVE",
"31 -2 CURVE SMOOTH",
"16 -2 OFFCURVE",
"10 11 OFFCURVE",
"10 19 CURVE SMOOTH",
"10 35 OFFCURVE",
"20.55 39.678 OFFCURVE",
"40 44 CURVE SMOOTH",
"76 52 OFFCURVE",
"81 54 OFFCURVE",
"81 96 CURVE SMOOTH",
"81 112 OFFCURVE",
"82 147 OFFCURVE",
"82 161 CURVE SMOOTH",
"82 194 OFFCURVE",
"76 228 OFFCURVE",
"76 266 CURVE SMOOTH",
"76 319 OFFCURVE",
"79 371 OFFCURVE",
"79 422 CURVE SMOOTH",
"79 430 LINE SMOOTH",
"79 458 OFFCURVE",
"85 500 OFFCURVE",
"85 522 CURVE SMOOTH",
"85 528 OFFCURVE",
"84 536 OFFCURVE",
"84 545 CURVE SMOOTH",
"84 560 OFFCURVE",
"80 570 OFFCURVE",
"61 574 CURVE SMOOTH",
"45 578 OFFCURVE",
"29 582 OFFCURVE",
"13 588 CURVE SMOOTH",
"7 590 OFFCURVE",
"4 598 OFFCURVE",
"4 604 CURVE SMOOTH"
);
},
{
closed = 1;
nodes = (
"195 348 OFFCURVE",
"197 341 OFFCURVE",
"210 341 CURVE SMOOTH",
"218 341 OFFCURVE",
"228 343 OFFCURVE",
"235 345 CURVE SMOOTH",
"264 352 OFFCURVE",
"286 362 OFFCURVE",
"298 379 CURVE SMOOTH",
"312 400 OFFCURVE",
"326 436 OFFCURVE",
"326 463 CURVE SMOOTH",
"326 490 OFFCURVE",
"311 519 OFFCURVE",
"294 538 CURVE SMOOTH",
"277 557 OFFCURVE",
"259 575 OFFCURVE",
"234 575 CURVE SMOOTH",
"230 575 OFFCURVE",
"226 575 OFFCURVE",
"222 574 CURVE SMOOTH",
"196 570 OFFCURVE",
"196 567 OFFCURVE",
"196 537 CURVE SMOOTH",
"196 528 OFFCURVE",
"197 520 OFFCURVE",
"197 511 CURVE SMOOTH",
"197 489 OFFCURVE",
"195 449 OFFCURVE",
"195 428 CURVE SMOOTH",
"195 418 OFFCURVE",
"196 409 OFFCURVE",
"196 399 CURVE SMOOTH",
"196 390 OFFCURVE",
"195 381 OFFCURVE",
"195 373 CURVE SMOOTH",
"195 359 LINE SMOOTH"
);
}
);
userData = {
com.schriftgestaltung.Glyphs.lastChange = "2019-09-04 17:02:18 +0000";
};
width = 586;
}
);
unicode = 0052;
},
{
glyphname = S;
layers = (
{
anchors = (
{
name = top;
position = "{177, 570}";
}
);
layerId = master01;
paths = (
{
closed = 1;
nodes = (
"19 573 OFFCURVE",
"62 612 OFFCURVE",
"127 622 CURVE SMOOTH",
"140 624 OFFCURVE",
"153 625 OFFCURVE",
"167 625 CURVE SMOOTH",
"203 625 OFFCURVE",
"230 614 OFFCURVE",
"254 604 CURVE SMOOTH",
"261.03 601.071 OFFCURVE",
"270 598 OFFCURVE",
"278 598 CURVE SMOOTH",
"289 598 OFFCURVE",
"280 624 OFFCURVE",
"311 624 CURVE SMOOTH",
"323 624 OFFCURVE",
"335 593 OFFCURVE",
"335 576 CURVE SMOOTH",
"335 559 OFFCURVE",
"327 557 OFFCURVE",
"326 542 CURVE SMOOTH",
"324 521 OFFCURVE",
"324 506 OFFCURVE",
"324 487 CURVE SMOOTH",
"324 463 OFFCURVE",
"313 452 OFFCURVE",
"297 452 CURVE SMOOTH",
"283 452 OFFCURVE",
"274 461 OFFCURVE",
"274 483 CURVE SMOOTH",
"274 492 OFFCURVE",
"276 498 OFFCURVE",
"276 500 CURVE SMOOTH",
"276 524 OFFCURVE",
"237 551 OFFCURVE",
"210 566 CURVE SMOOTH",
"186 579 OFFCURVE",
"172 591 OFFCURVE",
"147 591 CURVE SMOOTH",
"118 591 OFFCURVE",
"114 572 OFFCURVE",
"114 557 CURVE SMOOTH",
"114 514 OFFCURVE",
"153 473 OFFCURVE",
"184 443 CURVE SMOOTH",
"234 395 OFFCURVE",
"278 342 OFFCURVE",
"314 291 CURVE SMOOTH",
"342 252 OFFCURVE",
"380 198 OFFCURVE",
"380 129 CURVE SMOOTH",
"380 79 OFFCURVE",
"348.782 47.64 OFFCURVE",
"320 25 CURVE SMOOTH",
"292.338 3.241 OFFCURVE",
"259.577 -22 OFFCURVE",
"204 -22 CURVE SMOOTH",
"162 -22 OFFCURVE",
"138 -8 OFFCURVE",
"108 -8 CURVE SMOOTH",
"82 -8 OFFCURVE",
"66 -14 OFFCURVE",
"56 -25 CURVE SMOOTH",
"52 -30 OFFCURVE",
"48 -32 OFFCURVE",
"44 -32 CURVE SMOOTH",
"37 -32 OFFCURVE",
"33 -25 OFFCURVE",
"33 -15 CURVE SMOOTH",
"33 -11 OFFCURVE",
"33 -7 OFFCURVE",
"35 -3 CURVE SMOOTH",
"47 27 OFFCURVE",
"63 46 OFFCURVE",
"63 79 CURVE SMOOTH",
"63 83 OFFCURVE",
"60 99 OFFCURVE",
"60 113 CURVE SMOOTH",
"60 118 OFFCURVE",
"60 147 OFFCURVE",
"82 147 CURVE SMOOTH",
"97 147 OFFCURVE",
"109 132 OFFCURVE",
"118 119 CURVE SMOOTH",
"125 109 OFFCURVE",
"130 99 OFFCURVE",
"142 90 CURVE SMOOTH",
"152 83 OFFCURVE",
"160 74 OFFCURVE",
"167 62 CURVE SMOOTH",
"179 43 OFFCURVE",
"194 31 OFFCURVE",
"227 31 CURVE SMOOTH",
"251 31 OFFCURVE",
"274 37 OFFCURVE",
"287 47 CURVE SMOOTH",
"300 57 OFFCURVE",
"308 79 OFFCURVE",
"308 97 CURVE SMOOTH",
"308 114 OFFCURVE",
"299 134 OFFCURVE",
"287 151 CURVE SMOOTH",
"266 179 OFFCURVE",
"249 203 OFFCURVE",
"223 224 CURVE SMOOTH",
"185 254 OFFCURVE",
"155 286 OFFCURVE",
"124 321 CURVE SMOOTH",
"86 365 OFFCURVE",
"52 406 OFFCURVE",
"29 463 CURVE SMOOTH",
"23 477 OFFCURVE",
"19 493 OFFCURVE",
"19 510 CURVE SMOOTH"
);
}
);
userData = {
com.schriftgestaltung.Glyphs.lastChange = "2019-09-04 17:02:18 +0000";
};
width = 400;
}
);
unicode = 0053;
},
{
glyphname = T;
layers = (
{
anchors = (
{
name = top;
position = "{229, 570}";
}
);
layerId = master01;
paths = (
{
closed = 1;
nodes = (
"-9 630 OFFCURVE",
"7 643 OFFCURVE",
"21 643 CURVE SMOOTH",
"46 643 OFFCURVE",
"42 606 OFFCURVE",
"72 606 CURVE SMOOTH",
"87 606 OFFCURVE",
"98 610 OFFCURVE",
"113 610 CURVE SMOOTH",
"132 610 OFFCURVE",
"151 608 OFFCURVE",
"171 608 CURVE SMOOTH",
"224 608 OFFCURVE",
"315 611 OFFCURVE",
"367 611 CURVE SMOOTH",
"388 611 OFFCURVE",
"406 607 OFFCURVE",
"424 607 CURVE SMOOTH",
"447 607 OFFCURVE",
"465 619 OFFCURVE",
"482 626 CURVE",
"488 621 LINE",
"477 590 OFFCURVE",
"475 545 OFFCURVE",
"472 504 CURVE SMOOTH",
"471 486 OFFCURVE",
"467 479 OFFCURVE",
"462 479 CURVE SMOOTH",
"455 479 OFFCURVE",
"445 495 OFFCURVE",
"439 506 CURVE SMOOTH",
"419 544 OFFCURVE",
"395 573 OFFCURVE",
"332 573 CURVE SMOOTH",
"306 573 OFFCURVE",
"289 569 OFFCURVE",
"286 555 CURVE SMOOTH",
"281 532 OFFCURVE",
"277 511 OFFCURVE",
"277 481 CURVE SMOOTH",
"277 434 OFFCURVE",
"282 389 OFFCURVE",
"285 344 CURVE SMOOTH",
"291 252 OFFCURVE",
"284 158 OFFCURVE",
"304 77 CURVE SMOOTH",
"309 56 OFFCURVE",
"316 35 OFFCURVE",
"326 16 CURVE SMOOTH",
"329 11 OFFCURVE",
"330 6 OFFCURVE",
"330 3 CURVE SMOOTH",
"330 -3 OFFCURVE",
"325 -7 OFFCURVE",
"315 -7 CURVE SMOOTH",
"312 -7 OFFCURVE",
"309 -6 OFFCURVE",
"306 -6 CURVE SMOOTH",
"280 -2 OFFCURVE",
"243 0 OFFCURVE",
"223 0 CURVE SMOOTH",
"209 0 OFFCURVE",
"182 -3 OFFCURVE",
"162 -4 CURVE SMOOTH",
"159 -4 OFFCURVE",
"157 -5 OFFCURVE",
"155 -5 CURVE SMOOTH",
"147 -5 OFFCURVE",
"144 -3 OFFCURVE",
"144 2 CURVE SMOOTH",
"144 4 OFFCURVE",
"145 8 OFFCURVE",
"146 12 CURVE SMOOTH",
"156 45 OFFCURVE",
"173 74 OFFCURVE",
"173 118 CURVE SMOOTH",
"173 135 LINE SMOOTH",
"173 194 OFFCURVE",
"184 252 OFFCURVE",
"184 313 CURVE SMOOTH",
"184 357 OFFCURVE",
"182 404 OFFCURVE",
"182 448 CURVE SMOOTH",
"182 488 OFFCURVE",
"177 519 OFFCURVE",
"169 551 CURVE SMOOTH",
"164 570 OFFCURVE",
"161 571 OFFCURVE",
"137 571 CURVE SMOOTH",
"74 571 OFFCURVE",
"60 533 OFFCURVE",
"36 497 CURVE SMOOTH",
"30 489 OFFCURVE",
"24 484 OFFCURVE",
"19 484 CURVE SMOOTH",
"14 484 OFFCURVE",
"10 489 OFFCURVE",
"10 499 CURVE SMOOTH",
"10 502 OFFCURVE",
"11 505 OFFCURVE",
"11 508 CURVE SMOOTH",
"13 522 OFFCURVE",
"14 535 OFFCURVE",
"14 551 CURVE SMOOTH",
"14 580 OFFCURVE",
"5 598 OFFCURVE",
"-7 614 CURVE SMOOTH",
"-8 616 OFFCURVE",
"-9 618 OFFCURVE",
"-9 620 CURVE SMOOTH"
);
}
);
userData = {
com.schriftgestaltung.Glyphs.lastChange = "2019-09-04 17:02:18 +0000";
};
width = 490;
}
);
unicode = 0054;
},
{
glyphname = U;
layers = (
{
anchors = (
{
name = top;
position = "{346, 570}";
}
);
layerId = master01;
paths = (
{
closed = 1;
nodes = (
"46 595 OFFCURVE",
"54 608 OFFCURVE",
"72 608 CURVE SMOOTH",
"87 608 OFFCURVE",
"97 603 OFFCURVE",
"99 603 CURVE SMOOTH",
"103 603 OFFCURVE",
"118 607 OFFCURVE",
"135 607 CURVE SMOOTH",
"170 607 OFFCURVE",
"184 598 OFFCURVE",
"202 598 CURVE SMOOTH",
"215 598 OFFCURVE",
"224 612 OFFCURVE",
"256 612 CURVE SMOOTH",
"267 612 OFFCURVE",
"271 597 OFFCURVE",
"271 577 CURVE SMOOTH",
"271 541 OFFCURVE",
"253 535 OFFCURVE",
"233 507 CURVE SMOOTH",
"224 494 OFFCURVE",
"221 483 OFFCURVE",
"219 476 CURVE SMOOTH",
"209 441 OFFCURVE",
"201 376 OFFCURVE",
"201 339 CURVE SMOOTH",
"201 307 OFFCURVE",
"204 273 OFFCURVE",
"211 250 CURVE SMOOTH",
"231 186 OFFCURVE",
"232 115 OFFCURVE",
"273 78 CURVE SMOOTH",
"291 62 OFFCURVE",
"300 45 OFFCURVE",
"322 35 CURVE SMOOTH",
"337 28 OFFCURVE",
"352 23 OFFCURVE",
"372 23 CURVE SMOOTH",
"384 23 OFFCURVE",
"407 30 OFFCURVE",
"420 39 CURVE SMOOTH",
"437 51 OFFCURVE",
"458 62 OFFCURVE",
"476 76 CURVE SMOOTH",
"498 93 OFFCURVE",
"506 101 OFFCURVE",
"506 132 CURVE SMOOTH",
"506 146 OFFCURVE",
"505 161 OFFCURVE",
"504 174 CURVE SMOOTH",
"500 237 OFFCURVE",
"497 288 OFFCURVE",
"497 311 CURVE SMOOTH",
"497 379 OFFCURVE",
"490 468 OFFCURVE",
"488 527 CURVE SMOOTH",
"487 549 OFFCURVE",
"482 561 OFFCURVE",
"463 570 CURVE SMOOTH",
"445 578 OFFCURVE",
"436 584 OFFCURVE",
"421 589 CURVE SMOOTH",
"412 592 OFFCURVE",
"407 597 OFFCURVE",
"407 600 CURVE SMOOTH",
"407 603 OFFCURVE",
"411 606 OFFCURVE",
"420 606 CURVE SMOOTH",
"434 606 OFFCURVE",
"447 608 OFFCURVE",
"461 608 CURVE SMOOTH",
"484 608 OFFCURVE",
"559 605 OFFCURVE",
"588 605 CURVE SMOOTH",
"613 605 OFFCURVE",
"627 607 OFFCURVE",
"645 607 CURVE SMOOTH",
"650 607 OFFCURVE",
"657 607 OFFCURVE",
"661 606 CURVE SMOOTH",
"667 605 OFFCURVE",
"672 603 OFFCURVE",
"672 599 CURVE SMOOTH",
"672 595 OFFCURVE",
"666 591 OFFCURVE",
"657 587 CURVE SMOOTH",
"650 584 OFFCURVE",
"644 581 OFFCURVE",
"637 578 CURVE SMOOTH",
"614 569 OFFCURVE",
"609 564 OFFCURVE",
"607 534 CURVE SMOOTH",
"603 490 OFFCURVE",
"601 445 OFFCURVE",
"601 399 CURVE SMOOTH",
"601 349 OFFCURVE",
"608 262 OFFCURVE",
"608 214 CURVE SMOOTH",
"608 179 OFFCURVE",
"607 147 OFFCURVE",
"607 112 CURVE SMOOTH",
"607 86 OFFCURVE",
"609 54 OFFCURVE",
"612 47 CURVE SMOOTH",
"622 22 OFFCURVE",
"663 13 OFFCURVE",
"663 3 CURVE SMOOTH",
"663 -11 OFFCURVE",
"654 -31 OFFCURVE",
"631 -31 CURVE SMOOTH",
"609 -31 OFFCURVE",
"522 -27 OFFCURVE",
"513 -16 CURVE SMOOTH",
"500 0 OFFCURVE",
"503 25 OFFCURVE",
"488 25 CURVE SMOOTH",
"470 25 OFFCURVE",
"430 4 OFFCURVE",
"417 -1 CURVE SMOOTH",
"396 -8 OFFCURVE",
"373 -20 OFFCURVE",
"340 -20 CURVE SMOOTH",
"318 -20 OFFCURVE",
"308 -17 OFFCURVE",
"291 -11 CURVE",
"263 -11 OFFCURVE",
"251 -10 OFFCURVE",
"231 5 CURVE SMOOTH",
"218 14 OFFCURVE",
"221 21 OFFCURVE",
"194 39 CURVE SMOOTH",
"144 73 OFFCURVE",
"119 124 OFFCURVE",
"99 172 CURVE SMOOTH",
"81 216 OFFCURVE",
"59 262 OFFCURVE",
"59 322 CURVE SMOOTH",
"59 380 OFFCURVE",
"76 411 OFFCURVE",
"96 437 CURVE SMOOTH",
"107 451 OFFCURVE",
"131 487 OFFCURVE",
"131 510 CURVE SMOOTH",
"131 552 OFFCURVE",
"125.923 553.014 OFFCURVE",
"82 561 CURVE SMOOTH",
"60 565 OFFCURVE",
"46 571 OFFCURVE",
"46 587 CURVE SMOOTH"
);
}
);
userData = {
com.schriftgestaltung.Glyphs.lastChange = "2019-09-04 17:02:18 +0000";
};
width = 696;
}
);
unicode = 0055;
},
{
glyphname = V;
layers = (
{
anchors = (
{
name = top;
position = "{309, 570}";
}
);
layerId = master01;
paths = (
{
closed = 1;
nodes = (
"0 592 OFFCURVE",
"8 608 OFFCURVE",
"23 608 CURVE SMOOTH",
"28 608 OFFCURVE",
"49 609 OFFCURVE",
"54 609 CURVE SMOOTH",
"87 609 OFFCURVE",
"117 607 OFFCURVE",
"157 607 CURVE SMOOTH",
"168 607 OFFCURVE",
"173 600 OFFCURVE",
"173 590 CURVE SMOOTH",
"173 583 OFFCURVE",
"175 575 OFFCURVE",
"177 570 CURVE SMOOTH",
"206 510 OFFCURVE",
"237 449 OFFCURVE",
"272 393 CURVE SMOOTH",
"281 379 OFFCURVE",
"306 328 OFFCURVE",
"326 292 CURVE SMOOTH",
"329 287 OFFCURVE",
"333 284 OFFCURVE",
"337 284 CURVE SMOOTH",
"341 284 OFFCURVE",
"346 287 OFFCURVE",
"348 292 CURVE SMOOTH",
"386 390 OFFCURVE",
"416 462 OFFCURVE",
"448 565 CURVE SMOOTH",
"450 570 OFFCURVE",
"451 574 OFFCURVE",
"451 581 CURVE SMOOTH",
"451 612 OFFCURVE",
"505 614 OFFCURVE",
"536 614 CURVE SMOOTH",
"546 614 OFFCURVE",
"565 605 OFFCURVE",
"565 590 CURVE SMOOTH",
"565 577 OFFCURVE",
"549 570 OFFCURVE",
"544 570 CURVE SMOOTH",
"499 568 OFFCURVE",
"492 532 OFFCURVE",
"481 496 CURVE SMOOTH",
"472 465 OFFCURVE",
"470 445 OFFCURVE",
"460 417 CURVE SMOOTH",
"452 394 OFFCURVE",
"442 374 OFFCURVE",
"435 360 CURVE SMOOTH",
"420 328 OFFCURVE",
"415 297 OFFCURVE",
"403 266 CURVE SMOOTH",
"388 228 OFFCURVE",
"382 164 OFFCURVE",
"374 124 CURVE SMOOTH",
"369 100 OFFCURVE",
"361 54 OFFCURVE",
"361 30 CURVE SMOOTH",
"361 6 OFFCURVE",
"358 -36 OFFCURVE",
"336 -36 CURVE SMOOTH",
"318 -36 OFFCURVE",
"310 -8 OFFCURVE",
"307 4 CURVE SMOOTH",
"292 66 OFFCURVE",
"292 116 OFFCURVE",
"274 171 CURVE SMOOTH",
"266 196 OFFCURVE",
"246 243 OFFCURVE",
"233 266 CURVE SMOOTH",
"215 297 OFFCURVE",
"211 332 OFFCURVE",
"188 364 CURVE SMOOTH",
"178 378 OFFCURVE",
"158 394 OFFCURVE",
"145 417 CURVE SMOOTH",
"120 464 OFFCURVE",
"115 519 OFFCURVE",
"75 551 CURVE SMOOTH",
"54 568 OFFCURVE",
"38 569 OFFCURVE",
"10 573 CURVE SMOOTH",
"3 574 OFFCURVE",
"0 579 OFFCURVE",
"0 585 CURVE SMOOTH"
);
}
);
userData = {
com.schriftgestaltung.Glyphs.lastChange = "2019-09-04 17:02:18 +0000";
};
width = 574;
}
);
unicode = 0056;
},
{
glyphname = W;
layers = (
{
anchors = (
{
name = top;
position = "{425, 570}";
}
);
layerId = master01;
paths = (
{
closed = 1;
nodes = (
"0 592 OFFCURVE",
"8 608 OFFCURVE",
"23 608 CURVE SMOOTH",
"28 608 OFFCURVE",
"49 609 OFFCURVE",
"54 609 CURVE SMOOTH",
"87 609 OFFCURVE",
"117 607 OFFCURVE",
"157 607 CURVE SMOOTH",
"168 607 OFFCURVE",
"173 600 OFFCURVE",
"173 590 CURVE SMOOTH",
"173 583 OFFCURVE",
"175 575 OFFCURVE",
"177 570 CURVE SMOOTH",
"206 510 OFFCURVE",
"237 449 OFFCURVE",
"272 393 CURVE SMOOTH",
"281 379 OFFCURVE",
"306 328 OFFCURVE",
"326 292 CURVE SMOOTH",
"329 287 OFFCURVE",
"333 284 OFFCURVE",
"337 284 CURVE SMOOTH",
"341 284 OFFCURVE",
"346 287 OFFCURVE",
"348 292 CURVE SMOOTH",
"362 329 OFFCURVE",
"375 362 OFFCURVE",
"388 395 CURVE",
"383 402 OFFCURVE",
"377 409 OFFCURVE",
"373 417 CURVE SMOOTH",
"348 464 OFFCURVE",
"342 519 OFFCURVE",
"302 551 CURVE SMOOTH",
"281 568 OFFCURVE",
"265 569 OFFCURVE",
"237 573 CURVE SMOOTH",
"230 574 OFFCURVE",
"227 579 OFFCURVE",
"227 585 CURVE SMOOTH",
"227 592 OFFCURVE",
"235 608 OFFCURVE",
"250 608 CURVE SMOOTH",
"255 608 OFFCURVE",
"276 609 OFFCURVE",
"281 609 CURVE SMOOTH",
"314 609 OFFCURVE",
"344 607 OFFCURVE",
"384 607 CURVE SMOOTH",
"395 607 OFFCURVE",
"400 600 OFFCURVE",
"400 590 CURVE SMOOTH",
"400 583 OFFCURVE",
"403 575 OFFCURVE",
"405 570 CURVE SMOOTH",
"414 552 OFFCURVE",
"422 533 OFFCURVE",
"431 515 CURVE",
"436 531 OFFCURVE",
"442 547 OFFCURVE",
"448 565 CURVE SMOOTH",
"450 570 OFFCURVE",
"451 574 OFFCURVE",
"451 581 CURVE SMOOTH",
"451 612 OFFCURVE",
"505 614 OFFCURVE",
"536 614 CURVE SMOOTH",
"546 614 OFFCURVE",
"565 605 OFFCURVE",
"565 590 CURVE SMOOTH",
"565 577 OFFCURVE",
"549 570 OFFCURVE",
"544 570 CURVE SMOOTH",
"499 568 OFFCURVE",
"492 532 OFFCURVE",
"481 496 CURVE SMOOTH",
"475 476 OFFCURVE",
"473 460 OFFCURVE",
"469 444 CURVE",
"479 427 OFFCURVE",
"488 410 OFFCURVE",
"499 393 CURVE SMOOTH",
"508 379 OFFCURVE",
"533 328 OFFCURVE",
"553 292 CURVE SMOOTH",
"556 287 OFFCURVE",
"560 284 OFFCURVE",
"564 284 CURVE SMOOTH",
"568 284 OFFCURVE",
"573 287 OFFCURVE",
"575 292 CURVE SMOOTH",
"613 390 OFFCURVE",
"643 462 OFFCURVE",
"675 565 CURVE SMOOTH",
"677 570 OFFCURVE",
"678 574 OFFCURVE",
"678 581 CURVE SMOOTH",
"678 612 OFFCURVE",
"732 614 OFFCURVE",
"763 614 CURVE SMOOTH",
"773 614 OFFCURVE",
"792 605 OFFCURVE",
"792 590 CURVE SMOOTH",
"792 577 OFFCURVE",
"776 570 OFFCURVE",
"771 570 CURVE SMOOTH",
"726 568 OFFCURVE",
"719 532 OFFCURVE",
"708 496 CURVE SMOOTH",
"699 465 OFFCURVE",
"698 445 OFFCURVE",
"688 417 CURVE SMOOTH",
"680 394 OFFCURVE",
"669 374 OFFCURVE",
"662 360 CURVE SMOOTH",
"647 328 OFFCURVE",
"643 297 OFFCURVE",
"631 266 CURVE SMOOTH",
"616 228 OFFCURVE",
"609 164 OFFCURVE",
"601 124 CURVE SMOOTH",
"596 100 OFFCURVE",
"588 54 OFFCURVE",
"588 30 CURVE SMOOTH",
"588 6 OFFCURVE",
"585 -36 OFFCURVE",
"563 -36 CURVE SMOOTH",
"545 -36 OFFCURVE",
"537 -8 OFFCURVE",
"534 4 CURVE SMOOTH",
"519 66 OFFCURVE",
"519 116 OFFCURVE",
"501 171 CURVE SMOOTH",
"493 196 OFFCURVE",
"473 243 OFFCURVE",
"460 266 CURVE SMOOTH",
"446 290 OFFCURVE",
"441 317 OFFCURVE",
"428 343 CURVE",
"418 317 OFFCURVE",
"413 291 OFFCURVE",
"403 266 CURVE SMOOTH",
"388 228 OFFCURVE",
"382 164 OFFCURVE",
"374 124 CURVE SMOOTH",
"369 100 OFFCURVE",
"361 54 OFFCURVE",
"361 30 CURVE SMOOTH",
"361 6 OFFCURVE",
"358 -36 OFFCURVE",
"336 -36 CURVE SMOOTH",
"318 -36 OFFCURVE",
"310 -8 OFFCURVE",
"307 4 CURVE SMOOTH",
"292 66 OFFCURVE",
"292 116 OFFCURVE",
"274 171 CURVE SMOOTH",
"266 196 OFFCURVE",
"246 243 OFFCURVE",
"233 266 CURVE SMOOTH",
"215 297 OFFCURVE",
"211 332 OFFCURVE",
"188 364 CURVE SMOOTH",
"178 378 OFFCURVE",
"158 394 OFFCURVE",
"145 417 CURVE SMOOTH",
"120 464 OFFCURVE",
"115 519 OFFCURVE",
"75 551 CURVE SMOOTH",
"54 568 OFFCURVE",
"38 569 OFFCURVE",
"10 573 CURVE SMOOTH",
"3 574 OFFCURVE",
"0 579 OFFCURVE",
"0 585 CURVE SMOOTH"
);
}
);
userData = {
com.schriftgestaltung.Glyphs.lastChange = "2019-09-04 17:02:18 +0000";
};
width = 798;
}
);
unicode = 0057;
},
{
glyphname = X;
layers = (
{
anchors = (
{
name = top;
position = "{296, 570}";
}
);
layerId = master01;
paths = (
{
closed = 1;
nodes = (
"17 604 OFFCURVE",
"21 612 OFFCURVE",
"34 613 CURVE SMOOTH",
"66 613 OFFCURVE",
"141 606 OFFCURVE",
"171 606 CURVE SMOOTH",
"181 606 OFFCURVE",
"188 592 OFFCURVE",
"188 578 CURVE SMOOTH",
"188 571 OFFCURVE",
"191 567 OFFCURVE",
"194 563 CURVE SMOOTH",
"230 508 OFFCURVE",
"236 505 OFFCURVE",
"269 447 CURVE SMOOTH",
"278 431 OFFCURVE",
"282 426 OFFCURVE",
"291 414 CURVE SMOOTH",
"298 404 OFFCURVE",
"304 400 OFFCURVE",
"310 400 CURVE SMOOTH",
"316 400 OFFCURVE",
"322 404 OFFCURVE",
"327 412 CURVE SMOOTH",
"353 453 OFFCURVE",
"376 482 OFFCURVE",
"408 536 CURVE SMOOTH",
"410 540 OFFCURVE",
"412 544 OFFCURVE",
"412 547 CURVE SMOOTH",
"412 554 OFFCURVE",
"407 559 OFFCURVE",
"399 561 CURVE SMOOTH",
"382 565 OFFCURVE",
"368 574 OFFCURVE",
"368 589 CURVE SMOOTH",
"368 597 OFFCURVE",
"373 610 OFFCURVE",
"385 610 CURVE SMOOTH",
"395 610 OFFCURVE",
"402 605 OFFCURVE",
"403 605 CURVE SMOOTH",
"406 605 OFFCURVE",
"416 610 OFFCURVE",
"427 610 CURVE SMOOTH",
"432 610 OFFCURVE",
"436 609 OFFCURVE",
"440 608 CURVE SMOOTH",
"446 606 OFFCURVE",
"450 605 OFFCURVE",
"453 605 CURVE SMOOTH",
"458 605 OFFCURVE",
"460 606 OFFCURVE",
"469 610 CURVE SMOOTH",
"479 614 OFFCURVE",
"490 616 OFFCURVE",
"512 616 CURVE SMOOTH",
"530 616 OFFCURVE",
"549 604 OFFCURVE",
"549 588 CURVE SMOOTH",
"549 566 OFFCURVE",
"533 556 OFFCURVE",
"517 554 CURVE SMOOTH",
"505 553 OFFCURVE",
"474 548 OFFCURVE",
"460 528 CURVE SMOOTH",
"422 476 OFFCURVE",
"406 440 OFFCURVE",
"369 385 CURVE SMOOTH",
"359.301 369.482 OFFCURVE",
"341 339.379 OFFCURVE",
"341 324 CURVE SMOOTH",
"341 316 OFFCURVE",
"344 307 OFFCURVE",
"350 294 CURVE SMOOTH",
"361 269 OFFCURVE",
"373 241 OFFCURVE",
"389 212 CURVE SMOOTH",
"421 152 OFFCURVE",
"422 155 OFFCURVE",
"443 119 CURVE SMOOTH",
"464 83 OFFCURVE",
"487 32 OFFCURVE",
"543 32 CURVE SMOOTH",
"549 32 OFFCURVE",
"553 22 OFFCURVE",
"553 16 CURVE SMOOTH",
"553 9 OFFCURVE",
"548 -4 OFFCURVE",
"535 -5 CURVE SMOOTH",
"503 -5 OFFCURVE",
"416 1 OFFCURVE",
"386 1 CURVE SMOOTH",
"376 1 OFFCURVE",
"368 17 OFFCURVE",
"368 31 CURVE SMOOTH",
"368 38 OFFCURVE",
"365 42 OFFCURVE",
"362 46 CURVE SMOOTH",
"326 102 OFFCURVE",
"308 150 OFFCURVE",
"285 202 CURVE SMOOTH",
"280 214 OFFCURVE",
"274 220 OFFCURVE",
"268 220 CURVE SMOOTH",
"261 220 OFFCURVE",
"255 215 OFFCURVE",
"248 203 CURVE SMOOTH",
"229 169 OFFCURVE",
"197 128 OFFCURVE",
"170 75 CURVE SMOOTH",
"169 72 OFFCURVE",
"168 68 OFFCURVE",
"168 64 CURVE SMOOTH",
"168 58 OFFCURVE",
"170 51 OFFCURVE",
"180 50 CURVE SMOOTH",
"197 47 OFFCURVE",
"214 40 OFFCURVE",
"214 20 CURVE SMOOTH",
"214 5 OFFCURVE",
"200 -6 OFFCURVE",
"180 -6 CURVE SMOOTH",
"156 -6 OFFCURVE",
"146 14 OFFCURVE",
"137 14 CURVE SMOOTH",
"125 14 OFFCURVE",
"115 -2 OFFCURVE",
"92 -2 CURVE SMOOTH",
"84 -2 OFFCURVE",
"79 0 OFFCURVE",
"71 0 CURVE SMOOTH",
"62 0 OFFCURVE",
"59 -2 OFFCURVE",
"50 -2 CURVE SMOOTH",
"38 -2 OFFCURVE",
"33 11 OFFCURVE",
"33 19 CURVE SMOOTH",
"33 41 OFFCURVE",
"56 49 OFFCURVE",
"70 53 CURVE SMOOTH",
"82.162 56.475 OFFCURVE",
"104 72 OFFCURVE",
"116 90 CURVE SMOOTH",
"153 147 OFFCURVE",
"199 209 OFFCURVE",
"234 267 CURVE SMOOTH",
"241 278 OFFCURVE",
"244 287 OFFCURVE",
"244 296 CURVE SMOOTH",
"244 305 OFFCURVE",
"240 314 OFFCURVE",
"234 325 CURVE SMOOTH",
"218 354 OFFCURVE",
"196 389 OFFCURVE",
"179 417 CURVE SMOOTH",
"168 435 OFFCURVE",
"138 465 OFFCURVE",
"124 487 CURVE SMOOTH",
"107 514 OFFCURVE",
"95 532 OFFCURVE",
"83 553 CURVE",
"67 571 OFFCURVE",
"52 576 OFFCURVE",
"27 576 CURVE SMOOTH",
"21 576 OFFCURVE",
"17 591 OFFCURVE",
"17 597 CURVE SMOOTH"
);
}
);
userData = {
com.schriftgestaltung.Glyphs.lastChange = "2019-09-04 17:02:18 +0000";
};
width = 566;
}
);
unicode = 0058;
},
{
glyphname = Y;
layers = (
{
anchors = (
{
name = top;
position = "{289, 608}";
}
);
layerId = master01;
paths = (
{
closed = 1;
nodes = (
"3 597 OFFCURVE",
"11 613 OFFCURVE",
"26 613 CURVE SMOOTH",
"31 613 OFFCURVE",
"52 614 OFFCURVE",
"57 614 CURVE SMOOTH",
"89 614 OFFCURVE",
"120 612 OFFCURVE",
"160 612 CURVE SMOOTH",
"171 612 OFFCURVE",
"176 605 OFFCURVE",
"176 595 CURVE SMOOTH",
"176 588 OFFCURVE",
"178 580 OFFCURVE",
"180 575 CURVE SMOOTH",
"209 514 OFFCURVE",
"204 527 OFFCURVE",
"240 471 CURVE SMOOTH",
"247 459 OFFCURVE",
"267 418 OFFCURVE",
"286 385 CURVE SMOOTH",
"294 371 OFFCURVE",
"300 365 OFFCURVE",
"306 365 CURVE SMOOTH",
"312 365 OFFCURVE",
"317 372 OFFCURVE",
"321 384 CURVE SMOOTH",
"350 459 OFFCURVE",
"358 468 OFFCURVE",
"388 564 CURVE SMOOTH",
"390 569 OFFCURVE",
"391 573 OFFCURVE",
"391 580 CURVE SMOOTH",
"391 612 OFFCURVE",
"441 613 OFFCURVE",
"472 613 CURVE SMOOTH",
"476 613 LINE SMOOTH",
"486 613 OFFCURVE",
"506 604 OFFCURVE",
"506 589 CURVE SMOOTH",
"506 576 OFFCURVE",
"489 570 OFFCURVE",
"485 569 CURVE SMOOTH",
"440 567 OFFCURVE",
"433 531 OFFCURVE",
"422 495 CURVE SMOOTH",
"407 447 OFFCURVE",
"420 475 OFFCURVE",
"403 438 CURVE SMOOTH",
"388 406 OFFCURVE",
"383 375 OFFCURVE",
"371 344 CURVE SMOOTH",
"358 310 OFFCURVE",
"347 259 OFFCURVE",
"347 211 CURVE SMOOTH",
"347 184 OFFCURVE",
"353 137 OFFCURVE",
"357 109 CURVE SMOOTH",
"361 73 OFFCURVE",
"364 55 OFFCURVE",
"370 45 CURVE SMOOTH",
"375.565 35.725 OFFCURVE",
"403 36 OFFCURVE",
"403 20 CURVE SMOOTH",
"403 4 OFFCURVE",
"385 -6 OFFCURVE",
"360 -6 CURVE SMOOTH",
"330 -6 OFFCURVE",
"317 14 OFFCURVE",
"306 14 CURVE SMOOTH",
"291 14 OFFCURVE",
"279 -2 OFFCURVE",
"250 -2 CURVE SMOOTH",
"236 -2 OFFCURVE",
"224 3 OFFCURVE",
"220 3 CURVE SMOOTH",
"218 3 OFFCURVE",
"210 -2 OFFCURVE",
"197 -2 CURVE SMOOTH",
"183 -2 OFFCURVE",
"176 11 OFFCURVE",
"176 19 CURVE SMOOTH",
"176 35 OFFCURVE",
"187 39 OFFCURVE",
"206 44 CURVE SMOOTH",
"242 54 OFFCURVE",
"247 56 OFFCURVE",
"247 96 CURVE SMOOTH",
"247 112 OFFCURVE",
"248 147 OFFCURVE",
"248 161 CURVE SMOOTH",
"248 188 OFFCURVE",
"244 217 OFFCURVE",
"242 247 CURVE",
"234 273 OFFCURVE",
"214 321 OFFCURVE",
"201 344 CURVE SMOOTH",
"183 375 OFFCURVE",
"179 410 OFFCURVE",
"156 442 CURVE SMOOTH",
"146 456 OFFCURVE",
"126 472 OFFCURVE",
"113 495 CURVE SMOOTH",
"95 528 OFFCURVE",
"82 541 OFFCURVE",
"68 554 CURVE SMOOTH",
"48 572 OFFCURVE",
"40 574 OFFCURVE",
"13 578 CURVE SMOOTH",
"6 579 OFFCURVE",
"3 585 OFFCURVE",
"3 590 CURVE SMOOTH"
);
}
);
userData = {
com.fontlab.hintData = {
hhints = (
{
position = -6;
width = 21;
},
{
position = -2;
width = 21;
},
{
position = 593;
width = 20;
},
{
position = 594;
width = 20;
}
);
vhints = (
{
position = 248;
width = 99;
},
{
position = 391;
width = 115;
}
);
};
com.schriftgestaltung.Glyphs.lastChange = "2019-09-04 17:07:07 +0000";
};
width = 509;
}
);
unicode = 0059;
},
{
glyphname = Z;
layers = (
{
anchors = (
{
name = top;
position = "{257, 570}";
}
);
layerId = master01;
paths = (
{
closed = 1;
nodes = (
"10 10 OFFCURVE",
"11 13 OFFCURVE",
"13 16 CURVE SMOOTH",
"145 190 OFFCURVE",
"246 371 OFFCURVE",
"354 554 CURVE SMOOTH",
"360 564 OFFCURVE",
"363 572 OFFCURVE",
"363 577 CURVE SMOOTH",
"363 584 OFFCURVE",
"357 587 OFFCURVE",
"342 587 CURVE SMOOTH",
"327 587 OFFCURVE",
"313 587 OFFCURVE",
"298 586 CURVE SMOOTH",
"211 583 OFFCURVE",
"106 565 OFFCURVE",
"68 488 CURVE SMOOTH",
"54 459 OFFCURVE",
"53 447 OFFCURVE",
"47 420 CURVE",
"40 415 OFFCURVE",
"35 409 OFFCURVE",
"26 422 CURVE",
"27 458 OFFCURVE",
"30 549 OFFCURVE",
"34 596 CURVE SMOOTH",
"35 610 OFFCURVE",
"39 612 OFFCURVE",
"58 612 CURVE SMOOTH",
"443 612 LINE SMOOTH",
"471 612 OFFCURVE",
"479 608 OFFCURVE",
"479 601 CURVE SMOOTH",
"479 595 OFFCURVE",
"473 587 OFFCURVE",
"467 579 CURVE SMOOTH",
"344 406 OFFCURVE",
"255 225 OFFCURVE",
"144 46 CURVE SMOOTH",
"141 42 OFFCURVE",
"140 39 OFFCURVE",
"140 36 CURVE SMOOTH",
"140 32 OFFCURVE",
"144 30 OFFCURVE",
"153 30 CURVE SMOOTH",
"172 30 OFFCURVE",
"193 28 OFFCURVE",
"214 28 CURVE SMOOTH",
"281 28 OFFCURVE",
"351 35 OFFCURVE",
"401 70 CURVE SMOOTH",
"413 79 OFFCURVE",
"430 106 OFFCURVE",
"446 152 CURVE SMOOTH",
"450 158 OFFCURVE",
"466 156 OFFCURVE",
"469 148 CURVE SMOOTH",
"466 106 OFFCURVE",
"464 66 OFFCURVE",
"461 35 CURVE SMOOTH",
"458 4 OFFCURVE",
"453 -1 OFFCURVE",
"414 -2 CURVE SMOOTH",
"367 -3 LINE SMOOTH",
"257 -6 OFFCURVE",
"120 -2 OFFCURVE",
"26 -6 CURVE",
"25 -6 LINE SMOOTH",
"16 -6 OFFCURVE",
"10 0 OFFCURVE",
"10 7 CURVE SMOOTH"
);
}
);
userData = {
com.schriftgestaltung.Glyphs.lastChange = "2019-09-04 17:02:18 +0000";
};
width = 488;
}
);
unicode = 005A;
},
{
glyphname = uni01F7;
layers = (
{
layerId = master01;
paths = (
{
closed = 1;
nodes = (
"171 334 LINE SMOOTH",
"171 322 OFFCURVE",
"173 316 OFFCURVE",
"176 316 CURVE SMOOTH",
"180 316 OFFCURVE",
"187 321 OFFCURVE",
"192 332 CURVE SMOOTH",
"202 351 OFFCURVE",
"214 377 OFFCURVE",
"225 390 CURVE SMOOTH",
"256 427 OFFCURVE",
"281 498 OFFCURVE",
"309 538 CURVE SMOOTH",
"312 543 OFFCURVE",
"313 547 OFFCURVE",
"313 549 CURVE SMOOTH",
"313 555 OFFCURVE",
"307 556 OFFCURVE",
"294 558 CURVE SMOOTH",
"269 562 OFFCURVE",
"238 564 OFFCURVE",
"211 566 CURVE SMOOTH",
"205 566 OFFCURVE",
"199 567 OFFCURVE",
"193 567 CURVE SMOOTH",
"183 567 OFFCURVE",
"179.275 563.948 OFFCURVE",
"178 558 CURVE SMOOTH",
"175 544 OFFCURVE",
"172 518 OFFCURVE",
"172 495 CURVE SMOOTH",
"172 479 LINE SMOOTH",
"172 458 OFFCURVE",
"173 436 OFFCURVE",
"173 414 CURVE SMOOTH",
"173 393 OFFCURVE",
"171 374 OFFCURVE",
"171 356 CURVE SMOOTH"
);
},
{
closed = 1;
nodes = (
"9 617 OFFCURVE",
"53 617 OFFCURVE",
"67 617 CURVE SMOOTH",
"101 617 LINE SMOOTH",
"180 617 OFFCURVE",
"245 603 OFFCURVE",
"313 603 CURVE SMOOTH",
"318 603 OFFCURVE",
"327 604 OFFCURVE",
"336 604 CURVE SMOOTH",
"349 604 OFFCURVE",
"387 602 OFFCURVE",
"387 582 CURVE SMOOTH",
"387 570 OFFCURVE",
"378 563 OFFCURVE",
"371 559 CURVE SMOOTH",
"363 554 OFFCURVE",
"363 555 OFFCURVE",
"359 547 CURVE SMOOTH",
"349 527 OFFCURVE",
"340 494 OFFCURVE",
"330 475 CURVE SMOOTH",
"306 432 OFFCURVE",
"273 393 OFFCURVE",
"248 351 CURVE SMOOTH",
"227 318 OFFCURVE",
"209 285 OFFCURVE",
"182 255 CURVE SMOOTH",
"172 243 OFFCURVE",
"167 233 OFFCURVE",
"167 207 CURVE SMOOTH",
"167 195 OFFCURVE",
"168 182 OFFCURVE",
"168 169 CURVE SMOOTH",
"168 141 LINE SMOOTH",
"168 114 OFFCURVE",
"168 71 OFFCURVE",
"178 43 CURVE SMOOTH",
"180 37 OFFCURVE",
"181 32 OFFCURVE",
"183 30 CURVE SMOOTH",
"189 25 OFFCURVE",
"204 27 OFFCURVE",
"204 17 CURVE SMOOTH",
"204 1 OFFCURVE",
"162 4 OFFCURVE",
"149 1 CURVE SMOOTH",
"138 -2 OFFCURVE",
"133 -6 OFFCURVE",
"120 -6 CURVE SMOOTH",
"109 -6 OFFCURVE",
"102 -4 OFFCURVE",
"98 -4 CURVE SMOOTH",
"92 -4 OFFCURVE",
"84 -5 OFFCURVE",
"75 -5 CURVE SMOOTH",
"67 -5 OFFCURVE",
"28 -5 OFFCURVE",
"28 15 CURVE SMOOTH",
"28 24 OFFCURVE",
"44 26 OFFCURVE",
"52 26 CURVE SMOOTH",
"67 26 OFFCURVE",
"71 78 OFFCURVE",
"73 116 CURVE SMOOTH",
"74 143 OFFCURVE",
"78 168 OFFCURVE",
"78 194 CURVE SMOOTH",
"78 206 OFFCURVE",
"77 219 OFFCURVE",
"77 232 CURVE SMOOTH",
"77 246 OFFCURVE",
"78 260 OFFCURVE",
"78 274 CURVE SMOOTH",
"78 299 OFFCURVE",
"74 321 OFFCURVE",
"74 348 CURVE SMOOTH",
"74 362 OFFCURVE",
"75 376 OFFCURVE",
"75 389 CURVE SMOOTH",
"75 397 OFFCURVE",
"74 404 OFFCURVE",
"74 412 CURVE SMOOTH",
"74 419 OFFCURVE",
"75 426 OFFCURVE",
"75 433 CURVE SMOOTH",
"75 468 OFFCURVE",
"65 516 OFFCURVE",
"65 557 CURVE SMOOTH",
"65 590 OFFCURVE",
"9 566 OFFCURVE",
"9 595 CURVE SMOOTH"
);
}
);
width = 403;
}
);
unicode = 01F7;
},
{
glyphname = A.alt;
layers = (
{
anchors = (
{
name = top;
position = "{266, 570}";
}
);
layerId = master01;
paths = (
{
closed = 1;
nodes = (
"10 285 OFFCURVE",
"24 304 OFFCURVE",
"31 309 CURVE SMOOTH",
"42 318 OFFCURVE",
"53 332 OFFCURVE",
"71 332 CURVE SMOOTH",
"91 332 OFFCURVE",
"110 324 OFFCURVE",
"124 312 CURVE SMOOTH",
"129 308 OFFCURVE",
"134 306 OFFCURVE",
"140 306 CURVE SMOOTH",
"150 306 OFFCURVE",
"160 310 OFFCURVE",
"170 318 CURVE SMOOTH",
"197 339 OFFCURVE",
"228 356 OFFCURVE",
"265 367 CURVE SMOOTH",
"297 376 OFFCURVE",
"294 380 OFFCURVE",
"313 395 CURVE SMOOTH",
"324 404 OFFCURVE",
"343 412 OFFCURVE",
"363 417 CURVE SMOOTH",
"388 424 OFFCURVE",
"408 429 OFFCURVE",
"408 448 CURVE SMOOTH",
"408 468 OFFCURVE",
"406 489 OFFCURVE",
"403 507 CURVE SMOOTH",
"398 536 OFFCURVE",
"389 561 OFFCURVE",
"373 579 CURVE SMOOTH",
"366 587 OFFCURVE",
"352 601 OFFCURVE",
"338 601 CURVE SMOOTH",
"323 601 OFFCURVE",
"309 576 OFFCURVE",
"300 576 CURVE SMOOTH",
"295 576 OFFCURVE",
"291 587 OFFCURVE",
"291 598 CURVE SMOOTH",
"291 637 OFFCURVE",
"355 668 OFFCURVE",
"394 668 CURVE SMOOTH",
"425 668 OFFCURVE",
"444 646 OFFCURVE",
"459 626 CURVE SMOOTH",
"498 573 OFFCURVE",
"507 500 OFFCURVE",
"507 414 CURVE SMOOTH",
"507 355 LINE SMOOTH",
"507 278 OFFCURVE",
"511 205 OFFCURVE",
"513 128 CURVE SMOOTH",
"514 84 OFFCURVE",
"523 40 OFFCURVE",
"528 0 CURVE SMOOTH",
"533 -35 OFFCURVE",
"533 -79 OFFCURVE",
"572 -79 CURVE SMOOTH",
"616 -79 OFFCURVE",
"638 -43 OFFCURVE",
"654 -9 CURVE SMOOTH",
"660 3 OFFCURVE",
"666 8 OFFCURVE",
"671 8 CURVE SMOOTH",
"675 8 OFFCURVE",
"677 4 OFFCURVE",
"677 -1 CURVE SMOOTH",
"677 -5 OFFCURVE",
"677 -11 OFFCURVE",
"673 -18 CURVE SMOOTH",
"651 -59 OFFCURVE",
"625 -97 OFFCURVE",
"587 -122 CURVE SMOOTH",
"561 -139 OFFCURVE",
"528 -165 OFFCURVE",
"490 -165 CURVE SMOOTH",
"454 -165 OFFCURVE",
"440 -129 OFFCURVE",
"440 -89 CURVE SMOOTH",
"440 -76 OFFCURVE",
"441 -63 OFFCURVE",
"441 -50 CURVE SMOOTH",
"441 -22 OFFCURVE",
"438 6 OFFCURVE",
"435 33 CURVE SMOOTH",
"434 46 OFFCURVE",
"427 53 OFFCURVE",
"420 53 CURVE SMOOTH",
"414 53 OFFCURVE",
"406 49 OFFCURVE",
"399 41 CURVE SMOOTH",
"370 8 OFFCURVE",
"336 -21 OFFCURVE",
"299 -48 CURVE SMOOTH",
"275 -65 OFFCURVE",
"242 -79 OFFCURVE",
"202 -79 CURVE SMOOTH",
"184 -79 OFFCURVE",
"172 -75 OFFCURVE",
"163 -66 CURVE SMOOTH",
"156 -58 OFFCURVE",
"145 -48 OFFCURVE",
"139 -40 CURVE SMOOTH",
"132 -32 OFFCURVE",
"131 -19 OFFCURVE",
"131 -6 CURVE SMOOTH",
"131 17 OFFCURVE",
"137 44 OFFCURVE",
"137 64 CURVE SMOOTH",
"137 114 OFFCURVE",
"126 159 OFFCURVE",
"115 201 CURVE SMOOTH",
"107 232 OFFCURVE",
"80 267 OFFCURVE",
"41 267 CURVE SMOOTH",
"35 267 OFFCURVE",
"27 265 OFFCURVE",
"21 265 CURVE SMOOTH",
"13 265 OFFCURVE",
"10 269 OFFCURVE",
"10 274 CURVE SMOOTH"
);
},
{
closed = 1;
nodes = (
"178 224 OFFCURVE",
"180 215 OFFCURVE",
"182 207 CURVE SMOOTH",
"191 168 OFFCURVE",
"199 125 OFFCURVE",
"199 80 CURVE SMOOTH",
"199 73 OFFCURVE",
"199 66 OFFCURVE",
"199 59 CURVE SMOOTH",
"199 31 OFFCURVE",
"207 16 OFFCURVE",
"220 -1 CURVE SMOOTH",
"230 -14 OFFCURVE",
"235 -20 OFFCURVE",
"253 -20 CURVE SMOOTH",
"294 -20 OFFCURVE",
"325 7 OFFCURVE",
"348 28 CURVE SMOOTH",
"365 43 OFFCURVE",
"383 59 OFFCURVE",
"398 77 CURVE SMOOTH",
"416 98 OFFCURVE",
"425 109 OFFCURVE",
"425 140 CURVE SMOOTH",
"425 145 OFFCURVE",
"424 150 OFFCURVE",
"424 156 CURVE SMOOTH",
"422 178 OFFCURVE",
"420 200 OFFCURVE",
"419 222 CURVE SMOOTH",
"418 255 OFFCURVE",
"404 269 OFFCURVE",
"388 288 CURVE SMOOTH",
"384 293 OFFCURVE",
"379 297 OFFCURVE",
"375 302 CURVE SMOOTH",
"358 322 OFFCURVE",
"344 333 OFFCURVE",
"314 333 CURVE SMOOTH",
"258 333 OFFCURVE",
"212 301 OFFCURVE",
"186 261 CURVE SMOOTH",
"180 252 OFFCURVE",
"178 243 OFFCURVE",
"178 233 CURVE SMOOTH"
);
}
);
userData = {
com.schriftgestaltung.Glyphs.lastChange = "2019-09-04 17:02:18 +0000";
};
width = 633;
}
);
},
{
glyphname = C.alt;
layers = (
{
anchors = (
{
name = top;
position = "{222, 570}";
}
);
layerId = master01;
paths = (
{
closed = 1;
nodes = (
"26 217 OFFCURVE",
"41 266 OFFCURVE",
"55 312 CURVE SMOOTH",
"65 344 OFFCURVE",
"66 358 OFFCURVE",
"66 400 CURVE SMOOTH",
"66 418 OFFCURVE",
"86 444 OFFCURVE",
"101 458 CURVE SMOOTH",
"116 471 OFFCURVE",
"134 481 OFFCURVE",
"152 490 CURVE SMOOTH",
"167 498 OFFCURVE",
"180 505 OFFCURVE",
"196 511 CURVE SMOOTH",
"228 523 OFFCURVE",
"225 524 OFFCURVE",
"244 552 CURVE SMOOTH",
"259 573 OFFCURVE",
"281 593 OFFCURVE",
"305 593 CURVE SMOOTH",
"351 593 OFFCURVE",
"369 547 OFFCURVE",
"387 519 CURVE SMOOTH",
"397 504 OFFCURVE",
"422 481 OFFCURVE",
"422 457 CURVE SMOOTH",
"422 448 OFFCURVE",
"420 435 OFFCURVE",
"410 426 CURVE SMOOTH",
"394 412 OFFCURVE",
"363 385 OFFCURVE",
"332 385 CURVE SMOOTH",
"297 385 OFFCURVE",
"288 423 OFFCURVE",
"269 441 CURVE SMOOTH",
"255 454 OFFCURVE",
"241 461 OFFCURVE",
"229 461 CURVE SMOOTH",
"220 461 OFFCURVE",
"212 458 OFFCURVE",
"205 452 CURVE SMOOTH",
"180 432 OFFCURVE",
"164 406 OFFCURVE",
"150 370 CURVE SMOOTH",
"132 324 OFFCURVE",
"111 312 OFFCURVE",
"111 228 CURVE SMOOTH",
"111 147 OFFCURVE",
"136 85 OFFCURVE",
"167 30 CURVE SMOOTH",
"191 -12 OFFCURVE",
"237 -53 OFFCURVE",
"300 -53 CURVE SMOOTH",
"345 -53 OFFCURVE",
"375 -23 OFFCURVE",
"397 2 CURVE SMOOTH",
"409 15 OFFCURVE",
"420 29 OFFCURVE",
"429 44 CURVE SMOOTH",
"439 61 OFFCURVE",
"448 66 OFFCURVE",
"454 66 CURVE SMOOTH",
"460 66 OFFCURVE",
"463 60 OFFCURVE",
"463 51 CURVE SMOOTH",
"463 43 OFFCURVE",
"460 33 OFFCURVE",
"454 21 CURVE SMOOTH",
"423 -35 OFFCURVE",
"389 -83 OFFCURVE",
"335 -118 CURVE SMOOTH",
"314 -132 OFFCURVE",
"290 -140 OFFCURVE",
"267 -150 CURVE SMOOTH",
"246 -159 OFFCURVE",
"225 -164 OFFCURVE",
"204 -164 CURVE SMOOTH",
"179 -164 OFFCURVE",
"154 -156 OFFCURVE",
"136 -138 CURVE SMOOTH",
"67 -69 OFFCURVE",
"26 25 OFFCURVE",
"26 159 CURVE SMOOTH"
);
}
);
userData = {
com.schriftgestaltung.Glyphs.lastChange = "2019-09-04 17:02:18 +0000";
};
width = 444;
}
);
},
{
glyphname = D.alt;
layers = (
{
anchors = (
{
name = top;
position = "{618, 570}";
}
);
layerId = master01;
paths = (
{
closed = 1;
nodes = (
"38 522 OFFCURVE",
"52 562 OFFCURVE",
"74 591 CURVE SMOOTH",
"92 614 OFFCURVE",
"136 653 OFFCURVE",
"177 653 CURVE SMOOTH",
"204 653 OFFCURVE",
"231 631 OFFCURVE",
"231 602 CURVE SMOOTH",
"231 580 OFFCURVE",
"210 537 OFFCURVE",
"185 537 CURVE SMOOTH",
"169 537 OFFCURVE",
"154 559 OFFCURVE",
"140 559 CURVE SMOOTH",
"123 559 OFFCURVE",
"116 525 OFFCURVE",
"116 503 CURVE SMOOTH",
"116 431 OFFCURVE",
"185 391 OFFCURVE",
"264 391 CURVE SMOOTH",
"320 391 OFFCURVE",
"376 406 OFFCURVE",
"435 416 CURVE SMOOTH",
"470 422 OFFCURVE",
"505 424 OFFCURVE",
"541 427 CURVE SMOOTH",
"574 430 OFFCURVE",
"580 427 OFFCURVE",
"606 434 CURVE SMOOTH",
"621 438 OFFCURVE",
"637 440 OFFCURVE",
"654 440 CURVE SMOOTH",
"666 440 OFFCURVE",
"688 440 OFFCURVE",
"702 435 CURVE SMOOTH",
"718 430 OFFCURVE",
"719 423 OFFCURVE",
"739 419 CURVE SMOOTH",
"845 398 OFFCURVE",
"896 305 OFFCURVE",
"905 197 CURVE SMOOTH",
"908 156 OFFCURVE",
"911 105 OFFCURVE",
"911 58 CURVE SMOOTH",
"911 -28 OFFCURVE",
"874 -71 OFFCURVE",
"836 -122 CURVE SMOOTH",
"805 -163 OFFCURVE",
"761 -210 OFFCURVE",
"706 -224 CURVE SMOOTH",
"679 -231 OFFCURVE",
"648 -236 OFFCURVE",
"618 -236 CURVE SMOOTH",
"591 -236 OFFCURVE",
"593 -217 OFFCURVE",
"571 -217 CURVE SMOOTH",
"543 -217 OFFCURVE",
"526 -200 OFFCURVE",
"510 -184 CURVE SMOOTH",
"465 -137 OFFCURVE",
"425 -92 OFFCURVE",
"424 -1 CURVE SMOOTH",
"423 74 OFFCURVE",
"420 132 OFFCURVE",
"373 160 CURVE SMOOTH",
"361 167 OFFCURVE",
"357 173 OFFCURVE",
"357 179 CURVE SMOOTH",
"357 186 OFFCURVE",
"363 192 OFFCURVE",
"374 200 CURVE SMOOTH",
"425 237 OFFCURVE",
"461 293 OFFCURVE",
"498 344 CURVE SMOOTH",
"506 355 OFFCURVE",
"511 363 OFFCURVE",
"511 368 CURVE SMOOTH",
"511 373 OFFCURVE",
"506 375 OFFCURVE",
"497 375 CURVE SMOOTH",
"494 375 OFFCURVE",
"491 375 OFFCURVE",
"488 375 CURVE SMOOTH",
"409 366 OFFCURVE",
"351 354 OFFCURVE",
"287 345 CURVE SMOOTH",
"258 341 OFFCURVE",
"232 333 OFFCURVE",
"200 333 CURVE SMOOTH",
"148 333 OFFCURVE",
"114 359 OFFCURVE",
"85 386 CURVE SMOOTH",
"61 408 OFFCURVE",
"38 433 OFFCURVE",
"38 477 CURVE SMOOTH"
);
},
{
closed = 1;
nodes = (
"483 159 OFFCURVE",
"488 152 OFFCURVE",
"492 137 CURVE SMOOTH",
"500 109 OFFCURVE",
"500 71 OFFCURVE",
"503 41 CURVE SMOOTH",
"511 -46 OFFCURVE",
"541 -93 OFFCURVE",
"582 -144 CURVE SMOOTH",
"588 -152 OFFCURVE",
"595 -156 OFFCURVE",
"602 -161 CURVE SMOOTH",
"611 -166 OFFCURVE",
"616 -169 OFFCURVE",
"622 -169 CURVE SMOOTH",
"629 -169 OFFCURVE",
"636 -166 OFFCURVE",
"647 -161 CURVE SMOOTH",
"660 -155 OFFCURVE",
"673 -150 OFFCURVE",
"694 -148 CURVE SMOOTH",
"729 -145 OFFCURVE",
"752 -122 OFFCURVE",
"771 -100 CURVE SMOOTH",
"802 -64 OFFCURVE",
"819 8 OFFCURVE",
"819 81 CURVE SMOOTH",
"819 129 OFFCURVE",
"811 177 OFFCURVE",
"795 215 CURVE SMOOTH",
"776 262 OFFCURVE",
"742 292 OFFCURVE",
"706 321 CURVE SMOOTH",
"682 340 OFFCURVE",
"660 355 OFFCURVE",
"630 362 CURVE SMOOTH",
"622 364 OFFCURVE",
"615 365 OFFCURVE",
"608 365 CURVE SMOOTH",
"596 365 OFFCURVE",
"585 362 OFFCURVE",
"575 355 CURVE SMOOTH",
"551 339 OFFCURVE",
"534 314 OFFCURVE",
"517 291 CURVE SMOOTH",
"500 267 OFFCURVE",
"490 243 OFFCURVE",
"485 210 CURVE SMOOTH",
"484 200 OFFCURVE",
"483 189 OFFCURVE",
"483 177 CURVE SMOOTH"
);
}
);
userData = {
com.schriftgestaltung.Glyphs.lastChange = "2019-09-04 17:02:18 +0000";
};
width = 946;
}
);
},
{
glyphname = Eth.alt;
layers = (
{
anchors = (
{
name = top;
position = "{674, 626}";
}
);
layerId = master01;
paths = (
{
closed = 1;
nodes = (
"582 172 OFFCURVE",
"580 118 OFFCURVE",
"584 79 CURVE SMOOTH",
"592 -8 OFFCURVE",
"622 -55 OFFCURVE",
"663 -106 CURVE SMOOTH",
"670 -114 OFFCURVE",
"676 -119 OFFCURVE",
"684 -124 CURVE SMOOTH",
"693 -129 OFFCURVE",
"698 -132 OFFCURVE",
"704 -132 CURVE SMOOTH",
"709 -132 OFFCURVE",
"715 -129 OFFCURVE",
"723 -125 CURVE SMOOTH",
"737 -118 OFFCURVE",
"751 -112 OFFCURVE",
"775 -110 CURVE SMOOTH",
"810 -107 OFFCURVE",
"833 -84 OFFCURVE",
"852 -62 CURVE SMOOTH",
"883 -26 OFFCURVE",
"900 46 OFFCURVE",
"900 119 CURVE SMOOTH",
"900 167 OFFCURVE",
"892 215 OFFCURVE",
"876 253 CURVE SMOOTH",
"857 300 OFFCURVE",
"823 330 OFFCURVE",
"787 359 CURVE SMOOTH",
"762 378 OFFCURVE",
"740 394 OFFCURVE",
"708 401 CURVE SMOOTH",
"701 403 OFFCURVE",
"694 403 OFFCURVE",
"688 403 CURVE SMOOTH",
"676 403 OFFCURVE",
"666 400 OFFCURVE",
"656 393 CURVE SMOOTH",
"632 377 OFFCURVE",
"615 352 OFFCURVE",
"598 329 CURVE SMOOTH",
"573 294 OFFCURVE",
"563 258 OFFCURVE",
"563 197 CURVE"
);
},
{
closed = 1;
nodes = (
"20 578 OFFCURVE",
"53 628 OFFCURVE",
"99 658 CURVE SMOOTH",
"115 669 OFFCURVE",
"139 680 OFFCURVE",
"161 680 CURVE SMOOTH",
"188 680 OFFCURVE",
"213 659 OFFCURVE",
"213 631 CURVE SMOOTH",
"213 609 OFFCURVE",
"192 565 OFFCURVE",
"167 565 CURVE SMOOTH",
"151 565 OFFCURVE",
"136 587 OFFCURVE",
"122 587 CURVE SMOOTH",
"105 587 OFFCURVE",
"98 554 OFFCURVE",
"98 532 CURVE SMOOTH",
"98 460 OFFCURVE",
"167 420 OFFCURVE",
"246 420 CURVE SMOOTH",
"270 420 OFFCURVE",
"293 421 OFFCURVE",
"316 424 CURVE SMOOTH",
"353 428 OFFCURVE",
"360 432 OFFCURVE",
"376 457 CURVE SMOOTH",
"414 516 OFFCURVE",
"454 569 OFFCURVE",
"501 619 CURVE SMOOTH",
"524 643 OFFCURVE",
"551 660 OFFCURVE",
"579 679 CURVE SMOOTH",
"587 684 OFFCURVE",
"597 688 OFFCURVE",
"605 688 CURVE SMOOTH",
"628 688 OFFCURVE",
"639 657 OFFCURVE",
"639 635 CURVE SMOOTH",
"639 614 OFFCURVE",
"623 566 OFFCURVE",
"600 566 CURVE SMOOTH",
"583 566 OFFCURVE",
"572 602 OFFCURVE",
"548 602 CURVE SMOOTH",
"542 602 OFFCURVE",
"534 600 OFFCURVE",
"526 594 CURVE SMOOTH",
"496 573 OFFCURVE",
"477 538 OFFCURVE",
"455 509 CURVE SMOOTH",
"446 497 OFFCURVE",
"437 485 OFFCURVE",
"428 474 CURVE SMOOTH",
"420 464 OFFCURVE",
"415 455 OFFCURVE",
"415 449 CURVE SMOOTH",
"415 445 OFFCURVE",
"419 442 OFFCURVE",
"428 442 CURVE SMOOTH",
"431 442 OFFCURVE",
"435 442 OFFCURVE",
"440 443 CURVE SMOOTH",
"501 453 OFFCURVE",
"566 459 OFFCURVE",
"630 465 CURVE SMOOTH",
"658 468 OFFCURVE",
"660 464 OFFCURVE",
"683 471 CURVE SMOOTH",
"699 476 OFFCURVE",
"717 478 OFFCURVE",
"735 478 CURVE SMOOTH",
"750 478 OFFCURVE",
"776 478 OFFCURVE",
"790 470 CURVE SMOOTH",
"800 464 OFFCURVE",
"800 461 OFFCURVE",
"816 458 CURVE SMOOTH",
"924 439 OFFCURVE",
"969 344 OFFCURVE",
"986 235 CURVE SMOOTH",
"992 198 OFFCURVE",
"992 143 OFFCURVE",
"992 96 CURVE SMOOTH",
"992 10 OFFCURVE",
"955 -33 OFFCURVE",
"917 -84 CURVE SMOOTH",
"886 -125 OFFCURVE",
"842 -172 OFFCURVE",
"787 -186 CURVE SMOOTH",
"760 -193 OFFCURVE",
"729 -198 OFFCURVE",
"699 -198 CURVE SMOOTH",
"691 -198 OFFCURVE",
"685 -197 OFFCURVE",
"679 -194 CURVE SMOOTH",
"665 -188 OFFCURVE",
"671 -179 OFFCURVE",
"652 -179 CURVE SMOOTH",
"624 -179 OFFCURVE",
"607 -162 OFFCURVE",
"591 -146 CURVE SMOOTH",
"546 -99 OFFCURVE",
"506 -54 OFFCURVE",
"505 37 CURVE SMOOTH",
"504 116 OFFCURVE",
"509 169 OFFCURVE",
"455 194 CURVE SMOOTH",
"444 199 OFFCURVE",
"439 208 OFFCURVE",
"439 212 CURVE SMOOTH",
"439 222 OFFCURVE",
"451 234 OFFCURVE",
"468 249 CURVE SMOOTH",
"506 282 OFFCURVE",
"536 325 OFFCURVE",
"567 365 CURVE SMOOTH",
"577 378 OFFCURVE",
"583 389 OFFCURVE",
"583 397 CURVE SMOOTH",
"583 406 OFFCURVE",
"577 412 OFFCURVE",
"560 412 CURVE SMOOTH",
"547 412 OFFCURVE",
"533 409 OFFCURVE",
"521 408 CURVE SMOOTH",
"490 405 OFFCURVE",
"459 401 OFFCURVE",
"431 395 CURVE SMOOTH",
"422 393 OFFCURVE",
"413 391 OFFCURVE",
"404 389 CURVE SMOOTH",
"366 382 OFFCURVE",
"362 377 OFFCURVE",
"345 351 CURVE SMOOTH",
"324 319 OFFCURVE",
"304 287 OFFCURVE",
"288 253 CURVE SMOOTH",
"281 238 OFFCURVE",
"278 224 OFFCURVE",
"278 211 CURVE SMOOTH",
"278 161 OFFCURVE",
"318 122 OFFCURVE",
"339 89 CURVE SMOOTH",
"341 85 OFFCURVE",
"343 82 OFFCURVE",
"343 79 CURVE SMOOTH",
"343 68 OFFCURVE",
"328 55 OFFCURVE",
"321 49 CURVE SMOOTH",
"315 44 OFFCURVE",
"275 20 OFFCURVE",
"251 20 CURVE SMOOTH",
"240 20 OFFCURVE",
"231 27 OFFCURVE",
"231 42 CURVE SMOOTH",
"231 56 OFFCURVE",
"241 68 OFFCURVE",
"241 84 CURVE SMOOTH",
"241 124 OFFCURVE",
"230 166 OFFCURVE",
"230 208 CURVE SMOOTH",
"230 251 OFFCURVE",
"250 276 OFFCURVE",
"270 301 CURVE SMOOTH",
"302 342 LINE SMOOTH",
"309 351 OFFCURVE",
"311 359 OFFCURVE",
"311 364 CURVE SMOOTH",
"311 371 OFFCURVE",
"305 374 OFFCURVE",
"293 374 CURVE SMOOTH",
"286 374 OFFCURVE",
"277 373 OFFCURVE",
"266 371 CURVE SMOOTH",
"239 365 OFFCURVE",
"211 362 OFFCURVE",
"182 362 CURVE SMOOTH",
"130 362 OFFCURVE",
"96 387 OFFCURVE",
"67 414 CURVE SMOOTH",
"43 436 OFFCURVE",
"20 461 OFFCURVE",
"20 505 CURVE SMOOTH"
);
}
);
userData = {
com.schriftgestaltung.Glyphs.lastChange = "2019-09-04 17:02:18 +0000";
};
width = 1034;
}
);
},
{
glyphname = E.alt;
layers = (
{
anchors = (
{
name = Below;
position = "{242, -152}";
},
{
name = top;
position = "{295, 570}";
}
);
layerId = master01;
paths = (
{
closed = 1;
nodes = (
"39 492 OFFCURVE",
"58 515 OFFCURVE",
"69 528 CURVE SMOOTH",
"94 559 OFFCURVE",
"114 592 OFFCURVE",
"145 618 CURVE SMOOTH",
"194 659 OFFCURVE",
"247 694 OFFCURVE",
"333 694 CURVE SMOOTH",
"407 694 OFFCURVE",
"470 681 OFFCURVE",
"470 607 CURVE SMOOTH",
"470 576 OFFCURVE",
"459 553 OFFCURVE",
"447 532 CURVE SMOOTH",
"411 466 OFFCURVE",
"360 415 OFFCURVE",
"302 370 CURVE SMOOTH",
"291 361 OFFCURVE",
"285 354 OFFCURVE",
"285 350 CURVE SMOOTH",
"285 348 OFFCURVE",
"287 346 OFFCURVE",
"292 346 CURVE SMOOTH",
"297 346 OFFCURVE",
"305 349 OFFCURVE",
"315 353 CURVE SMOOTH",
"358 370 OFFCURVE",
"400 389 OFFCURVE",
"445 400 CURVE SMOOTH",
"489 411 OFFCURVE",
"541 417 OFFCURVE",
"594 417 CURVE SMOOTH",
"615 417 OFFCURVE",
"636 416 OFFCURVE",
"656 414 CURVE SMOOTH",
"694 411 OFFCURVE",
"710 396 OFFCURVE",
"710 382 CURVE SMOOTH",
"710 367 OFFCURVE",
"691 353 OFFCURVE",
"648 350 CURVE SMOOTH",
"547 343 OFFCURVE",
"451 321 OFFCURVE",
"369 294 CURVE SMOOTH",
"326 280 OFFCURVE",
"284 264 OFFCURVE",
"239 253 CURVE SMOOTH",
"216 248 OFFCURVE",
"205 234 OFFCURVE",
"205 212 CURVE SMOOTH",
"205 206 OFFCURVE",
"205 199 OFFCURVE",
"207 192 CURVE SMOOTH",
"213 165 OFFCURVE",
"220 139 OFFCURVE",
"226 112 CURVE SMOOTH",
"240 46 OFFCURVE",
"246 -54 OFFCURVE",
"328 -54 CURVE SMOOTH",
"360 -54 OFFCURVE",
"384 -39 OFFCURVE",
"403 -24 CURVE SMOOTH",
"410 -19 OFFCURVE",
"416 -14 OFFCURVE",
"422 -8 CURVE SMOOTH",
"437 6 OFFCURVE",
"448 14 OFFCURVE",
"456 14 CURVE SMOOTH",
"465 14 OFFCURVE",
"470 10 OFFCURVE",
"470 2 CURVE SMOOTH",
"470 -9 OFFCURVE",
"461 -25 OFFCURVE",
"444 -43 CURVE SMOOTH",
"413 -74 OFFCURVE",
"377 -100 OFFCURVE",
"337 -120 CURVE SMOOTH",
"307 -135 OFFCURVE",
"276 -149 OFFCURVE",
"236 -149 CURVE SMOOTH",
"160 -149 OFFCURVE",
"133 -85 OFFCURVE",
"119 -24 CURVE SMOOTH",
"107 28 OFFCURVE",
"100 81 OFFCURVE",
"91 134 CURVE SMOOTH",
"75 223 OFFCURVE",
"59 314 OFFCURVE",
"57 415 CURVE SMOOTH",
"56 444 OFFCURVE",
"39 455 OFFCURVE",
"39 472 CURVE SMOOTH"
);
},
{
closed = 1;
nodes = (
"162 425 OFFCURVE",
"167 410 OFFCURVE",
"169 397 CURVE SMOOTH",
"172 382 OFFCURVE",
"177 377 OFFCURVE",
"183 377 CURVE SMOOTH",
"190 377 OFFCURVE",
"199 384 OFFCURVE",
"208 388 CURVE SMOOTH",
"249 408 OFFCURVE",
"285 432 OFFCURVE",
"315 464 CURVE SMOOTH",
"332 483 OFFCURVE",
"358 521 OFFCURVE",
"358 551 CURVE SMOOTH",
"358 575 OFFCURVE",
"342 593 OFFCURVE",
"295 593 CURVE SMOOTH",
"241 593 OFFCURVE",
"199 588 OFFCURVE",
"187 546 CURVE SMOOTH",
"178 516 OFFCURVE",
"186 486 OFFCURVE",
"174 463 CURVE SMOOTH",
"169 452 OFFCURVE",
"162 450 OFFCURVE",
"162 439 CURVE SMOOTH"
);
}
);
userData = {
com.schriftgestaltung.Glyphs.lastChange = "2019-09-04 17:02:18 +0000";
};
width = 608;
}
);
},
{
glyphname = F.alt;
layers = (
{
anchors = (
{
name = top;
position = "{282, 570}";
}
);
layerId = master01;
paths = (
{
closed = 1;
nodes = (
"31 -384 OFFCURVE",
"52 -376 OFFCURVE",
"58 -369 CURVE SMOOTH",
"74 -352 OFFCURVE",
"75 -317 OFFCURVE",
"79 -289 CURVE SMOOTH",
"84 -248 OFFCURVE",
"87 -209 OFFCURVE",
"87 -165 CURVE SMOOTH",
"87 -131 OFFCURVE",
"86 -97 OFFCURVE",
"86 -63 CURVE SMOOTH",
"86 27 OFFCURVE",
"96 115 OFFCURVE",
"96 203 CURVE SMOOTH",
"96 268 OFFCURVE",
"90 329 OFFCURVE",
"86 392 CURVE SMOOTH",
"83 435 OFFCURVE",
"83 475 OFFCURVE",
"61 500 CURVE SMOOTH",
"53 509 OFFCURVE",
"43 521 OFFCURVE",
"43 533 CURVE SMOOTH",
"43 539 OFFCURVE",
"46 546 OFFCURVE",
"56 552 CURVE SMOOTH",
"81 568 OFFCURVE",
"121 589 OFFCURVE",
"149 602 CURVE SMOOTH",
"152 603 OFFCURVE",
"155 604 OFFCURVE",
"157 604 CURVE SMOOTH",
"182 604 OFFCURVE",
"176 530 OFFCURVE",
"181 500 CURVE SMOOTH",
"182 492 OFFCURVE",
"187 489 OFFCURVE",
"193 489 CURVE SMOOTH",
"198 489 OFFCURVE",
"203 491 OFFCURVE",
"207 495 CURVE SMOOTH",
"244 529 OFFCURVE",
"278 566 OFFCURVE",
"324 591 CURVE SMOOTH",
"333 596 OFFCURVE",
"341 598 OFFCURVE",
"350 598 CURVE SMOOTH",
"381 598 OFFCURVE",
"409 572 OFFCURVE",
"429 558 CURVE SMOOTH",
"446 546 OFFCURVE",
"494 527 OFFCURVE",
"494 501 CURVE SMOOTH",
"494 495 OFFCURVE",
"491 488 OFFCURVE",
"484 481 CURVE SMOOTH",
"471 468 OFFCURVE",
"464 437 OFFCURVE",
"448 437 CURVE SMOOTH",
"442 437 OFFCURVE",
"435 441 OFFCURVE",
"427 451 CURVE SMOOTH",
"407 476 OFFCURVE",
"381 495 OFFCURVE",
"358 518 CURVE SMOOTH",
"346 530 OFFCURVE",
"332 539 OFFCURVE",
"316 539 CURVE SMOOTH",
"308 539 OFFCURVE",
"299 536 OFFCURVE",
"290 531 CURVE SMOOTH",
"263 516 OFFCURVE",
"242 495 OFFCURVE",
"234 462 CURVE SMOOTH",
"223 420 OFFCURVE",
"216 376 OFFCURVE",
"207 331 CURVE SMOOTH",
"204 318 OFFCURVE",
"202 306 OFFCURVE",
"202 292 CURVE SMOOTH",
"202 288 OFFCURVE",
"202 284 OFFCURVE",
"202 280 CURVE SMOOTH",
"203 273 OFFCURVE",
"203 267 OFFCURVE",
"204 260 CURVE SMOOTH",
"206 240 OFFCURVE",
"213 230 OFFCURVE",
"237 224 CURVE SMOOTH",
"319 203 OFFCURVE",
"429 208 OFFCURVE",
"517 193 CURVE SMOOTH",
"529 191 OFFCURVE",
"541 189 OFFCURVE",
"553 189 CURVE SMOOTH",
"592 189 OFFCURVE",
"611 211 OFFCURVE",
"619 242 CURVE SMOOTH",
"622 255 OFFCURVE",
"630 263 OFFCURVE",
"635 263 CURVE SMOOTH",
"639 263 OFFCURVE",
"641 258 OFFCURVE",
"641 249 CURVE SMOOTH",
"641 246 OFFCURVE",
"641 244 OFFCURVE",
"640 240 CURVE SMOOTH",
"633 197 OFFCURVE",
"607 163 OFFCURVE",
"558 163 CURVE SMOOTH",
"479 163 OFFCURVE",
"398 180 OFFCURVE",
"315 180 CURVE SMOOTH",
"270 180 OFFCURVE",
"245 156 OFFCURVE",
"224 130 CURVE SMOOTH",
"210 113 OFFCURVE",
"206 104 OFFCURVE",
"204 72 CURVE SMOOTH",
"201 23 OFFCURVE",
"197 -20 OFFCURVE",
"196 -69 CURVE SMOOTH",
"195 -134 OFFCURVE",
"189 -188 OFFCURVE",
"170 -238 CURVE SMOOTH",
"152 -287 OFFCURVE",
"131 -349 OFFCURVE",
"95 -382 CURVE SMOOTH",
"90 -387 OFFCURVE",
"64 -409 OFFCURVE",
"50 -409 CURVE SMOOTH",
"44 -409 OFFCURVE",
"31 -403 OFFCURVE",
"31 -396 CURVE SMOOTH"
);
}
);
userData = {
com.schriftgestaltung.Glyphs.lastChange = "2019-09-04 17:02:18 +0000";
};
width = 654;
}
);
},
{
glyphname = H.alt;
layers = (
{
anchors = (
{
name = top;
position = "{253, 570}";
}
);
layerId = master01;
paths = (
{
closed = 1;
nodes = (
"-164 -190 OFFCURVE",
"-37 -174 OFFCURVE",
"60 -157 CURVE SMOOTH",
"107 -149 OFFCURVE",
"154 -141 OFFCURVE",
"200 -128 CURVE SMOOTH",
"252 -113 OFFCURVE",
"306 -93 OFFCURVE",
"352 -65 CURVE SMOOTH",
"397 -38 OFFCURVE",
"434 -2 OFFCURVE",
"456 45 CURVE SMOOTH",
"468 71 OFFCURVE",
"477 101 OFFCURVE",
"477 137 CURVE SMOOTH",
"477 177 OFFCURVE",
"467 214 OFFCURVE",
"450 245 CURVE SMOOTH",
"431 279 OFFCURVE",
"404 306 OFFCURVE",
"374 322 CURVE SMOOTH",
"361 329 OFFCURVE",
"348 333 OFFCURVE",
"330 333 CURVE SMOOTH",
"270 333 OFFCURVE",
"235 300 OFFCURVE",
"211 263 CURVE SMOOTH",
"205 254 OFFCURVE",
"204 241 OFFCURVE",
"197 233 CURVE SMOOTH",
"188 223 OFFCURVE",
"187 199 OFFCURVE",
"187 176 CURVE SMOOTH",
"187 166 OFFCURVE",
"188 155 OFFCURVE",
"188 146 CURVE SMOOTH",
"188 108 OFFCURVE",
"194 72 OFFCURVE",
"211 49 CURVE SMOOTH",
"215 44 OFFCURVE",
"216 40 OFFCURVE",
"216 36 CURVE SMOOTH",
"216 9 OFFCURVE",
"141 3 OFFCURVE",
"124 -11 CURVE SMOOTH",
"119 -15 OFFCURVE",
"115 -17 OFFCURVE",
"111 -17 CURVE SMOOTH",
"100 -17 OFFCURVE",
"91 -4 OFFCURVE",
"91 11 CURVE SMOOTH",
"91 28 OFFCURVE",
"94 46 OFFCURVE",
"94 64 CURVE SMOOTH",
"94 105 OFFCURVE",
"89 148 OFFCURVE",
"89 192 CURVE SMOOTH",
"89 254 OFFCURVE",
"86 315 OFFCURVE",
"86 377 CURVE SMOOTH",
"86 443 OFFCURVE",
"83 490 OFFCURVE",
"23 494 CURVE SMOOTH",
"12 495 OFFCURVE",
"8 500 OFFCURVE",
"8 507 CURVE SMOOTH",
"8 527 OFFCURVE",
"42 563 OFFCURVE",
"48 572 CURVE SMOOTH",
"63 595 OFFCURVE",
"88 631 OFFCURVE",
"123 631 CURVE SMOOTH",
"132 631 OFFCURVE",
"142 628 OFFCURVE",
"152 622 CURVE SMOOTH",
"185 603 OFFCURVE",
"190 591 OFFCURVE",
"190 541 CURVE SMOOTH",
"190 510 OFFCURVE",
"193 482 OFFCURVE",
"193 451 CURVE SMOOTH",
"193 402 OFFCURVE",
"183 360 OFFCURVE",
"183 311 CURVE SMOOTH",
"183 302 OFFCURVE",
"185 295 OFFCURVE",
"192 295 CURVE SMOOTH",
"196 295 OFFCURVE",
"203 298 OFFCURVE",
"212 305 CURVE SMOOTH",
"249 333 OFFCURVE",
"290 355 OFFCURVE",
"334 378 CURVE SMOOTH",
"347 385 OFFCURVE",
"358 391 OFFCURVE",
"377 391 CURVE SMOOTH",
"421 391 OFFCURVE",
"458 363 OFFCURVE",
"484 341 CURVE SMOOTH",
"522 309 OFFCURVE",
"555 262 OFFCURVE",
"555 193 CURVE SMOOTH",
"555 141 OFFCURVE",
"555 95 OFFCURVE",
"537 56 CURVE SMOOTH",
"518 14 OFFCURVE",
"480 -17 OFFCURVE",
"445 -44 CURVE SMOOTH",
"360 -110 OFFCURVE",
"261 -150 OFFCURVE",
"135 -176 CURVE SMOOTH",
"76 -188 OFFCURVE",
"11 -195 OFFCURVE",
"-45 -213 CURVE SMOOTH",
"-64 -219 OFFCURVE",
"-93 -235 OFFCURVE",
"-93 -255 CURVE SMOOTH",
"-93 -284 OFFCURVE",
"-40 -294 OFFCURVE",
"-40 -323 CURVE SMOOTH",
"-40 -349 OFFCURVE",
"-82 -366 OFFCURVE",
"-106 -366 CURVE SMOOTH",
"-139 -366 OFFCURVE",
"-164 -340 OFFCURVE",
"-164 -301 CURVE SMOOTH"
);
}
);
userData = {
com.schriftgestaltung.Glyphs.lastChange = "2019-09-04 17:02:18 +0000";
};
width = 576;
}
);
},
{
glyphname = I.alt;
layers = (
{
anchors = (
{
name = top;
position = "{150, 570}";
}
);
layerId = master01;
paths = (
{
closed = 1;
nodes = (
"14 445 OFFCURVE",
"22 452 OFFCURVE",
"37 462 CURVE SMOOTH",
"52 472 OFFCURVE",
"66 483 OFFCURVE",
"79 495 CURVE SMOOTH",
"98 512 OFFCURVE",
"104 520 OFFCURVE",
"110 550 CURVE SMOOTH",
"116 580 OFFCURVE",
"127 612 OFFCURVE",
"159 612 CURVE SMOOTH",
"208 612 OFFCURVE",
"213 595 OFFCURVE",
"215 552 CURVE SMOOTH",
"216 537 OFFCURVE",
"216 523 OFFCURVE",
"216 508 CURVE SMOOTH",
"216 420 OFFCURVE",
"205 340 OFFCURVE",
"205 252 CURVE SMOOTH",
"205 227 OFFCURVE",
"205 202 OFFCURVE",
"205 177 CURVE SMOOTH",
"205 82 OFFCURVE",
"199 -13 OFFCURVE",
"199 -106 CURVE SMOOTH",
"199 -162 LINE SMOOTH",
"199 -200 OFFCURVE",
"195 -236 OFFCURVE",
"194 -273 CURVE SMOOTH",
"192 -320 OFFCURVE",
"188 -381 OFFCURVE",
"150 -397 CURVE SMOOTH",
"139 -402 OFFCURVE",
"117 -421 OFFCURVE",
"99 -421 CURVE SMOOTH",
"88 -421 OFFCURVE",
"79 -411 OFFCURVE",
"79 -398 CURVE SMOOTH",
"79 -386 OFFCURVE",
"84 -371 OFFCURVE",
"84 -359 CURVE SMOOTH",
"84 -326 OFFCURVE",
"97 -298 OFFCURVE",
"100 -267 CURVE SMOOTH",
"101 -254 OFFCURVE",
"101 -240 OFFCURVE",
"101 -227 CURVE SMOOTH",
"101 -195 OFFCURVE",
"99 -162 OFFCURVE",
"99 -130 CURVE SMOOTH",
"99 -91 OFFCURVE",
"102 -53 OFFCURVE",
"102 -15 CURVE SMOOTH",
"102 32 OFFCURVE",
"97 74 OFFCURVE",
"97 121 CURVE SMOOTH",
"97 188 OFFCURVE",
"104 255 OFFCURVE",
"104 323 CURVE SMOOTH",
"104 355 LINE",
"103 388 OFFCURVE",
"103 404 OFFCURVE",
"80 416 CURVE SMOOTH",
"68 422 OFFCURVE",
"54 426 OFFCURVE",
"39 429 CURVE SMOOTH",
"22 433 OFFCURVE",
"14 435 OFFCURVE",
"14 440 CURVE SMOOTH"
);
}
);
userData = {
com.schriftgestaltung.Glyphs.lastChange = "2019-09-04 17:02:18 +0000";
};
width = 252;
}
);
},
{
glyphname = O.alt;
layers = (
{
anchors = (
{
name = top;
position = "{360, 570}";
}
);
layerId = master01;
paths = (
{
closed = 1;
nodes = (
"4 398 OFFCURVE",
"6 405 OFFCURVE",
"11 409 CURVE SMOOTH",
"28.481 422.985 OFFCURVE",
"44.433 436.825 OFFCURVE",
"62 450 CURVE SMOOTH",
"66 454 OFFCURVE",
"72 456 OFFCURVE",
"77 459 CURVE SMOOTH",
"99 470 OFFCURVE",
"103 476 OFFCURVE",
"118 493 CURVE SMOOTH",
"150 530 OFFCURVE",
"195 556 OFFCURVE",
"240 580 CURVE SMOOTH",
"274 598 OFFCURVE",
"304 613 OFFCURVE",
"352 613 CURVE SMOOTH",
"487 613 OFFCURVE",
"571 547 OFFCURVE",
"615 453 CURVE SMOOTH",
"640 400 OFFCURVE",
"649 341 OFFCURVE",
"656 282 CURVE SMOOTH",
"659 257 OFFCURVE",
"661 232 OFFCURVE",
"661 207 CURVE SMOOTH",
"661 153 OFFCURVE",
"649 109 OFFCURVE",
"639 64 CURVE SMOOTH",
"625 6 OFFCURVE",
"618 -65 OFFCURVE",
"584 -105 CURVE SMOOTH",
"573 -118 OFFCURVE",
"560 -130 OFFCURVE",
"549 -142 CURVE SMOOTH",
"540 -153 OFFCURVE",
"525 -170 OFFCURVE",
"507 -170 CURVE SMOOTH",
"482 -170 OFFCURVE",
"480 -171 OFFCURVE",
"461 -184 CURVE SMOOTH",
"438 -199 OFFCURVE",
"413 -215 OFFCURVE",
"379 -215 CURVE SMOOTH",
"357 -215 OFFCURVE",
"336 -208 OFFCURVE",
"316 -201 CURVE SMOOTH",
"267 -184 OFFCURVE",
"224 -165 OFFCURVE",
"193 -128 CURVE SMOOTH",
"159 -87 OFFCURVE",
"121 -37 OFFCURVE",
"106 20 CURVE SMOOTH",
"100 44 OFFCURVE",
"97 69 OFFCURVE",
"94 94 CURVE SMOOTH",
"91 115 OFFCURVE",
"88 137 OFFCURVE",
"88 159 CURVE SMOOTH",
"88 177 OFFCURVE",
"91 193 OFFCURVE",
"91 210 CURVE SMOOTH",
"91 252 LINE SMOOTH",
"91 259 OFFCURVE",
"91 264 OFFCURVE",
"85 276 CURVE SMOOTH",
"71 306 OFFCURVE",
"63 343 OFFCURVE",
"53 377 CURVE",
"41 377 OFFCURVE",
"29 377 OFFCURVE",
"17 378 CURVE SMOOTH",
"8 378 OFFCURVE",
"4 385 OFFCURVE",
"4 392 CURVE SMOOTH"
);
},
{
closed = 1;
nodes = (
"157 408.54 OFFCURVE",
"170.69 383.424 OFFCURVE",
"175 359 CURVE SMOOTH",
"179 333 OFFCURVE",
"177 311 OFFCURVE",
"186 291 CURVE SMOOTH",
"190 282 OFFCURVE",
"195 270 OFFCURVE",
"195 260 CURVE SMOOTH",
"195 244 OFFCURVE",
"189 237 OFFCURVE",
"189 218 CURVE SMOOTH",
"189 209 OFFCURVE",
"187 199 OFFCURVE",
"187 189 CURVE SMOOTH",
"187 159 OFFCURVE",
"197 131 OFFCURVE",
"201 103 CURVE SMOOTH",
"209 52 OFFCURVE",
"229 13 OFFCURVE",
"253 -22 CURVE SMOOTH",
"287 -70 OFFCURVE",
"329 -111 OFFCURVE",
"383 -135 CURVE SMOOTH",
"397 -141 OFFCURVE",
"412 -146 OFFCURVE",
"427 -146 CURVE SMOOTH",
"463 -146 OFFCURVE",
"465 -121 OFFCURVE",
"484 -102 CURVE SMOOTH",
"538 -48 OFFCURVE",
"558 51 OFFCURVE",
"558 161 CURVE SMOOTH",
"558 296 OFFCURVE",
"515 404 OFFCURVE",
"448 470 CURVE SMOOTH",
"427 490 OFFCURVE",
"404 509 OFFCURVE",
"382 527 CURVE SMOOTH",
"363 542 OFFCURVE",
"346 555 OFFCURVE",
"316 555 CURVE SMOOTH",
"252 555 OFFCURVE",
"203 520 OFFCURVE",
"172 475 CURVE SMOOTH",
"162 460 OFFCURVE",
"157 450 OFFCURVE",
"157 436 CURVE SMOOTH"
);
}
);
userData = {
com.schriftgestaltung.Glyphs.lastChange = "2019-09-04 17:02:18 +0000";
};
width = 697;
}
);
},
{
glyphname = P.alt;
layers = (
{
anchors = (
{
name = top;
position = "{350, 450}";
}
);
layerId = master01;
paths = (
{
closed = 1;
nodes = (
"200 155 OFFCURVE",
"208 150 OFFCURVE",
"227 147 CURVE SMOOTH",
"242 144 OFFCURVE",
"253 138 OFFCURVE",
"261 129 CURVE SMOOTH",
"292 93 OFFCURVE",
"345 55 OFFCURVE",
"405 55 CURVE SMOOTH",
"445 55 OFFCURVE",
"449 73 OFFCURVE",
"467 97 CURVE SMOOTH",
"485 121 OFFCURVE",
"501 165 OFFCURVE",
"501 209 CURVE SMOOTH",
"501 230 OFFCURVE",
"491 228 OFFCURVE",
"483 246 CURVE SMOOTH",
"478 257 OFFCURVE",
"476 272 OFFCURVE",
"473 286 CURVE SMOOTH",
"465 320 OFFCURVE",
"442 351 OFFCURVE",
"424 376 CURVE SMOOTH",
"405 401 OFFCURVE",
"382 421 OFFCURVE",
"344 421 CURVE SMOOTH",
"301 421 OFFCURVE",
"262 406 OFFCURVE",
"234 383 CURVE SMOOTH",
"215 368 OFFCURVE",
"215 364 OFFCURVE",
"212 332 CURVE SMOOTH",
"208 288 OFFCURVE",
"200 239 OFFCURVE",
"200 191 CURVE SMOOTH"
);
},
{
closed = 1;
nodes = (
"29 350 OFFCURVE",
"32 355 OFFCURVE",
"36 361 CURVE SMOOTH",
"58 389 OFFCURVE",
"79 408 OFFCURVE",
"107 431 CURVE SMOOTH",
"115 437 OFFCURVE",
"122 443 OFFCURVE",
"130 443 CURVE SMOOTH",
"149 443 OFFCURVE",
"173 414 OFFCURVE",
"193 414 CURVE SMOOTH",
"199 414 OFFCURVE",
"205 416 OFFCURVE",
"211 420 CURVE SMOOTH",
"255 453 OFFCURVE",
"317 480 OFFCURVE",
"386 480 CURVE SMOOTH",
"431 480 OFFCURVE",
"471 463 OFFCURVE",
"501 441 CURVE SMOOTH",
"518 428 OFFCURVE",
"520 427 OFFCURVE",
"540 427 CURVE SMOOTH",
"554 427 OFFCURVE",
"564 421 OFFCURVE",
"572 412 CURVE SMOOTH",
"602 377 OFFCURVE",
"606 308 OFFCURVE",
"606 253 CURVE SMOOTH",
"606 200 OFFCURVE",
"594 156 OFFCURVE",
"581 114 CURVE SMOOTH",
"577 101 OFFCURVE",
"571 90 OFFCURVE",
"563 81 CURVE SMOOTH",
"549 65 OFFCURVE",
"536 39 OFFCURVE",
"519 24 CURVE SMOOTH",
"495 3 OFFCURVE",
"443 -2 OFFCURVE",
"411 -2 CURVE SMOOTH",
"335 -2 OFFCURVE",
"287 17 OFFCURVE",
"246 52 CURVE SMOOTH",
"235 62 OFFCURVE",
"223 67 OFFCURVE",
"214 67 CURVE SMOOTH",
"197 67 OFFCURVE",
"185 48 OFFCURVE",
"185 6 CURVE SMOOTH",
"185 -21 OFFCURVE",
"187 -48 OFFCURVE",
"187 -76 CURVE SMOOTH",
"187 -123 OFFCURVE",
"178 -165 OFFCURVE",
"174 -207 CURVE SMOOTH",
"171 -234 OFFCURVE",
"169 -262 OFFCURVE",
"165 -289 CURVE SMOOTH",
"162 -304 OFFCURVE",
"160 -320 OFFCURVE",
"160 -336 CURVE SMOOTH",
"160 -355 OFFCURVE",
"166 -375 OFFCURVE",
"166 -393 CURVE SMOOTH",
"166 -404 OFFCURVE",
"163 -415 OFFCURVE",
"155 -423 CURVE SMOOTH",
"148 -430 OFFCURVE",
"119 -450 OFFCURVE",
"104 -450 CURVE SMOOTH",
"94 -450 OFFCURVE",
"87 -437 OFFCURVE",
"87 -424 CURVE SMOOTH",
"87 -408 OFFCURVE",
"93 -389 OFFCURVE",
"93 -371 CURVE SMOOTH",
"93 -346 LINE SMOOTH",
"93 -273 OFFCURVE",
"102 -204 OFFCURVE",
"102 -129 CURVE SMOOTH",
"102 -81 OFFCURVE",
"101 -33 OFFCURVE",
"101 16 CURVE SMOOTH",
"101 116 LINE SMOOTH",
"101 164 OFFCURVE",
"95 211 OFFCURVE",
"95 258 CURVE SMOOTH",
"95 274 OFFCURVE",
"98 291 OFFCURVE",
"98 305 CURVE SMOOTH",
"98 324 OFFCURVE",
"65 333 OFFCURVE",
"44 333 CURVE SMOOTH",
"34 333 OFFCURVE",
"29 338 OFFCURVE",
"29 345 CURVE SMOOTH"
);
}
);
userData = {
com.schriftgestaltung.Glyphs.lastChange = "2019-09-04 17:02:18 +0000";
};
width = 616;
}
);
},
{
glyphname = Thorn.alt;
layers = (
{
anchors = (
{
name = top;
position = "{338, 622}";
}
);
layerId = master01;
paths = (
{
closed = 1;
nodes = (
"17 559 OFFCURVE",
"25 566 OFFCURVE",
"35 572 CURVE SMOOTH",
"47 579 OFFCURVE",
"60 586 OFFCURVE",
"72 593 CURVE SMOOTH",
"89 603 OFFCURVE",
"101 611 OFFCURVE",
"101 632 CURVE SMOOTH",
"101 645 OFFCURVE",
"105 651 OFFCURVE",
"123 657 CURVE SMOOTH",
"133 661 OFFCURVE",
"176 691 OFFCURVE",
"194 691 CURVE SMOOTH",
"208 691 OFFCURVE",
"213 671 OFFCURVE",
"213 654 CURVE SMOOTH",
"213 631 OFFCURVE",
"206 604 OFFCURVE",
"206 582 CURVE SMOOTH",
"206 533 OFFCURVE",
"216 498 OFFCURVE",
"228 456 CURVE SMOOTH",
"234 436 OFFCURVE",
"240 427 OFFCURVE",
"252 427 CURVE SMOOTH",
"257 427 OFFCURVE",
"262.879 428.252 OFFCURVE",
"271 432 CURVE SMOOTH",
"310 450 OFFCURVE",
"349 467 OFFCURVE",
"396 467 CURVE SMOOTH",
"474 467 OFFCURVE",
"546 438 OFFCURVE",
"546 359 CURVE SMOOTH",
"546 260 OFFCURVE",
"478 200 OFFCURVE",
"429 147 CURVE SMOOTH",
"407 123 OFFCURVE",
"390 96 OFFCURVE",
"363 76 CURVE SMOOTH",
"358 72 OFFCURVE",
"356 69 OFFCURVE",
"356 66 CURVE SMOOTH",
"356 52 OFFCURVE",
"397 44 OFFCURVE",
"397 29 CURVE SMOOTH",
"397 26 OFFCURVE",
"395 22 OFFCURVE",
"391 18 CURVE SMOOTH",
"376 4 OFFCURVE",
"363 -14 OFFCURVE",
"339 -14 CURVE SMOOTH",
"321 -14 OFFCURVE",
"305 -6 OFFCURVE",
"286 -6 CURVE SMOOTH",
"267 -6 OFFCURVE",
"264 -13 OFFCURVE",
"264 -25 CURVE SMOOTH",
"264 -32 OFFCURVE",
"265 -40 OFFCURVE",
"265 -49 CURVE SMOOTH",
"266 -71 OFFCURVE",
"267 -92 OFFCURVE",
"267 -114 CURVE SMOOTH",
"267 -192 OFFCURVE",
"266 -274 OFFCURVE",
"248 -339 CURVE SMOOTH",
"239 -371 OFFCURVE",
"210 -388 OFFCURVE",
"176 -401 CURVE SMOOTH",
"163 -406 OFFCURVE",
"153 -409 OFFCURVE",
"147 -409 CURVE SMOOTH",
"141 -409 OFFCURVE",
"137 -406 OFFCURVE",
"137 -399 CURVE SMOOTH",
"137 -394 OFFCURVE",
"137 -386 OFFCURVE",
"140 -376 CURVE SMOOTH",
"157 -309 OFFCURVE",
"159 -224 OFFCURVE",
"159 -140 CURVE SMOOTH",
"159 -82 LINE SMOOTH",
"159 89 OFFCURVE",
"141 246 OFFCURVE",
"124 402 CURVE SMOOTH",
"120 439 OFFCURVE",
"110 453 OFFCURVE",
"97 476 CURVE SMOOTH",
"83 501 OFFCURVE",
"72 524 OFFCURVE",
"35 536 CURVE SMOOTH",
"22 540 OFFCURVE",
"17 546 OFFCURVE",
"17 552 CURVE SMOOTH"
);
},
{
closed = 1;
nodes = (
"241 348 OFFCURVE",
"242 341 OFFCURVE",
"242 334 CURVE SMOOTH",
"248 251 OFFCURVE",
"251 165 OFFCURVE",
"256 80 CURVE SMOOTH",
"257 61 OFFCURVE",
"262 55 OFFCURVE",
"270 55 CURVE SMOOTH",
"279 55 OFFCURVE",
"290 64 OFFCURVE",
"301 75 CURVE SMOOTH",
"327 102 OFFCURVE",
"350 131 OFFCURVE",
"374 159 CURVE SMOOTH",
"409 199 OFFCURVE",
"442 254 OFFCURVE",
"442 330 CURVE SMOOTH",
"442 391 OFFCURVE",
"386 409 OFFCURVE",
"328 409 CURVE SMOOTH",
"305 409 OFFCURVE",
"286 404 OFFCURVE",
"269 395 CURVE SMOOTH",
"246 383 OFFCURVE",
"241 377 OFFCURVE",
"241 353 CURVE SMOOTH"
);
}
);
userData = {
com.schriftgestaltung.Glyphs.lastChange = "2019-09-04 17:02:18 +0000";
};
width = 594;
}
);
},
{
glyphname = R.alt;
layers = (
{
anchors = (
{
name = top;
position = "{291, 570}";
}
);
layerId = master01;
paths = (
{
closed = 1;
nodes = (
"18 616 OFFCURVE",
"21 616 OFFCURVE",
"24 616 CURVE SMOOTH",
"41 616 OFFCURVE",
"56 612 OFFCURVE",
"70 610 CURVE SMOOTH",
"89 607 OFFCURVE",
"121 606 OFFCURVE",
"150 606 CURVE SMOOTH",
"184 606 OFFCURVE",
"209 621 OFFCURVE",
"252 621 CURVE SMOOTH",
"339 621 OFFCURVE",
"449 596 OFFCURVE",
"449 501 CURVE SMOOTH",
"449 468 OFFCURVE",
"432 434 OFFCURVE",
"422 416 CURVE SMOOTH",
"409 395 OFFCURVE",
"394 376 OFFCURVE",
"372 360 CURVE SMOOTH",
"360 351 OFFCURVE",
"342 339 OFFCURVE",
"323 331 CURVE SMOOTH",
"315 327 OFFCURVE",
"311 322 OFFCURVE",
"311 317 CURVE SMOOTH",
"311 312 OFFCURVE",
"312 307 OFFCURVE",
"316 304 CURVE SMOOTH",
"330 292 OFFCURVE",
"342 277 OFFCURVE",
"351 268 CURVE SMOOTH",
"363 254 OFFCURVE",
"375 246 OFFCURVE",
"387 231 CURVE SMOOTH",
"407 207 OFFCURVE",
"427 173 OFFCURVE",
"435 141 CURVE SMOOTH",
"446 99 OFFCURVE",
"463 60 OFFCURVE",
"511 60 CURVE SMOOTH",
"535 60 OFFCURVE",
"547 71 OFFCURVE",
"565 71 CURVE SMOOTH",
"579 71 OFFCURVE",
"587 65 OFFCURVE",
"587 51 CURVE SMOOTH",
"587 42 OFFCURVE",
"581 38 OFFCURVE",
"573 33 CURVE SMOOTH",
"549 18 OFFCURVE",
"525 10 OFFCURVE",
"496 10 CURVE SMOOTH",
"420 10 OFFCURVE",
"377 79 OFFCURVE",
"352 120 CURVE SMOOTH",
"323 167 OFFCURVE",
"286 211 OFFCURVE",
"254 259 CURVE SMOOTH",
"244 275 OFFCURVE",
"237 286 OFFCURVE",
"228 295 CURVE SMOOTH",
"218 305 OFFCURVE",
"210 309 OFFCURVE",
"203 309 CURVE SMOOTH",
"193 309 OFFCURVE",
"187 298 OFFCURVE",
"185 274 CURVE SMOOTH",
"183 253 OFFCURVE",
"181 232 OFFCURVE",
"181 211 CURVE SMOOTH",
"181 184 OFFCURVE",
"189 137 OFFCURVE",
"192 109 CURVE SMOOTH",
"196 73 OFFCURVE",
"193 54 OFFCURVE",
"207 45 CURVE SMOOTH",
"217 39 OFFCURVE",
"237 40 OFFCURVE",
"237 20 CURVE SMOOTH",
"237 5 OFFCURVE",
"219 -6 OFFCURVE",
"194 -6 CURVE SMOOTH",
"164 -6 OFFCURVE",
"151 14 OFFCURVE",
"140 14 CURVE SMOOTH",
"125 14 OFFCURVE",
"113 -2 OFFCURVE",
"84 -2 CURVE SMOOTH",
"70 -2 OFFCURVE",
"58 3 OFFCURVE",
"54 3 CURVE SMOOTH",
"52 3 OFFCURVE",
"43 -2 OFFCURVE",
"31 -2 CURVE SMOOTH",
"16 -2 OFFCURVE",
"10 11 OFFCURVE",
"10 19 CURVE SMOOTH",
"10 35 OFFCURVE",
"21.152 37.538 OFFCURVE",
"40 44 CURVE SMOOTH",
"75 56 OFFCURVE",
"81 59 OFFCURVE",
"81 96 CURVE SMOOTH",
"81 112 OFFCURVE",
"82 147 OFFCURVE",
"82 161 CURVE SMOOTH",
"82 194 OFFCURVE",
"76 228 OFFCURVE",
"76 266 CURVE SMOOTH",
"76 319 OFFCURVE",
"79 371 OFFCURVE",
"79 422 CURVE SMOOTH",
"79 430 LINE SMOOTH",
"79 458 OFFCURVE",
"85 500 OFFCURVE",
"85 522 CURVE SMOOTH",
"85 528 OFFCURVE",
"84 536 OFFCURVE",
"84 545 CURVE SMOOTH",
"84 560 OFFCURVE",
"80 570 OFFCURVE",
"61 574 CURVE SMOOTH",
"45 578 OFFCURVE",
"29 582 OFFCURVE",
"13 588 CURVE SMOOTH",
"7 590 OFFCURVE",
"4 598 OFFCURVE",
"4 604 CURVE SMOOTH",
"4 610 OFFCURVE",
"8 615 OFFCURVE",
"15 616 CURVE SMOOTH"
);
},
{
closed = 1;
nodes = (
"264 352 OFFCURVE",
"286 362 OFFCURVE",
"298 379 CURVE SMOOTH",
"312 400 OFFCURVE",
"326 436 OFFCURVE",
"326 463 CURVE SMOOTH",
"326 490 OFFCURVE",
"311 519 OFFCURVE",
"294 538 CURVE SMOOTH",
"277 557 OFFCURVE",
"259 575 OFFCURVE",
"234 575 CURVE SMOOTH",
"230 575 OFFCURVE",
"226 575 OFFCURVE",
"222 574 CURVE SMOOTH",
"196 570 OFFCURVE",
"196 567 OFFCURVE",
"196 537 CURVE SMOOTH",
"196 528 OFFCURVE",
"197 520 OFFCURVE",
"197 511 CURVE SMOOTH",
"197 489 OFFCURVE",
"195 449 OFFCURVE",
"195 428 CURVE SMOOTH",
"195 418 OFFCURVE",
"196 409 OFFCURVE",
"196 399 CURVE SMOOTH",
"196 390 OFFCURVE",
"195 381 OFFCURVE",
"195 373 CURVE SMOOTH",
"195 359 LINE SMOOTH",
"195 348 OFFCURVE",
"197 341 OFFCURVE",
"210 341 CURVE SMOOTH",
"218 341 OFFCURVE",
"228 343 OFFCURVE",
"235 345 CURVE SMOOTH"
);
}
);
userData = {
com.fontlab.hintData = {
hhints = (
{
position = -2;
width = 46;
},
{
position = 10;
width = 50;
},
{
position = 309;
width = 32;
},
{
position = 575;
width = 46;
},
{
position = 588;
width = 28;
}
);
vhints = (
{
position = 79;
width = 116;
},
{
position = 82;
width = 99;
},
{
position = 326;
width = 123;
}
);
};
com.schriftgestaltung.Glyphs.lastChange = "2019-09-04 17:02:18 +0000";
};
width = 586;
}
);
},
{
glyphname = S.alt;
layers = (
{
anchors = (
{
name = top;
position = "{194, 570}";
}
);
layerId = master01;
paths = (
{
closed = 1;
nodes = (
"33 441 OFFCURVE",
"44 504 OFFCURVE",
"73 539 CURVE SMOOTH",
"98 569 OFFCURVE",
"137 598 OFFCURVE",
"188 598 CURVE SMOOTH",
"251 598 OFFCURVE",
"286 574 OFFCURVE",
"323 547 CURVE SMOOTH",
"332 540 OFFCURVE",
"347 528 OFFCURVE",
"347 513 CURVE SMOOTH",
"347 485 OFFCURVE",
"306 489 OFFCURVE",
"288 480 CURVE SMOOTH",
"280 476 OFFCURVE",
"272 473 OFFCURVE",
"265 473 CURVE SMOOTH",
"259 473 OFFCURVE",
"254 475 OFFCURVE",
"248 482 CURVE SMOOTH",
"232 502 OFFCURVE",
"191 529 OFFCURVE",
"158 529 CURVE SMOOTH",
"122 529 OFFCURVE",
"109 492 OFFCURVE",
"109 445 CURVE SMOOTH",
"109 422 OFFCURVE",
"112 401 OFFCURVE",
"118 383 CURVE SMOOTH",
"126 358 OFFCURVE",
"137 351 OFFCURVE",
"154 336 CURVE SMOOTH",
"178 314 OFFCURVE",
"198 290 OFFCURVE",
"222 268 CURVE SMOOTH",
"259 234 OFFCURVE",
"297 200 OFFCURVE",
"328 160 CURVE SMOOTH",
"360 120 OFFCURVE",
"390 78 OFFCURVE",
"416 34 CURVE SMOOTH",
"428 13 OFFCURVE",
"441 -9 OFFCURVE",
"441 -40 CURVE SMOOTH",
"441 -79 OFFCURVE",
"419 -109 OFFCURVE",
"394 -129 CURVE SMOOTH",
"378 -142 OFFCURVE",
"375 -147 OFFCURVE",
"368 -169 CURVE SMOOTH",
"359 -199 OFFCURVE",
"347 -227 OFFCURVE",
"325 -246 CURVE SMOOTH",
"298 -270 OFFCURVE",
"252 -296 OFFCURVE",
"206 -296 CURVE SMOOTH",
"159 -296 OFFCURVE",
"119 -276 OFFCURVE",
"79 -267 CURVE SMOOTH",
"63 -263 OFFCURVE",
"47 -257 OFFCURVE",
"47 -238 CURVE SMOOTH",
"47 -201 OFFCURVE",
"91 -189 OFFCURVE",
"116 -177 CURVE SMOOTH",
"121 -174 OFFCURVE",
"126 -173 OFFCURVE",
"131 -173 CURVE SMOOTH",
"154 -173 OFFCURVE",
"174 -196 OFFCURVE",
"197 -201 CURVE SMOOTH",
"207 -203 OFFCURVE",
"216 -203 OFFCURVE",
"226 -203 CURVE SMOOTH",
"287 -203 OFFCURVE",
"315 -189 OFFCURVE",
"339 -156 CURVE SMOOTH",
"347 -145 OFFCURVE",
"357 -126 OFFCURVE",
"357 -108 CURVE SMOOTH",
"357 -89 OFFCURVE",
"347 -69 OFFCURVE",
"338 -56 CURVE SMOOTH",
"326 -37 OFFCURVE",
"314 -19 OFFCURVE",
"302 0 CURVE SMOOTH",
"227 116 OFFCURVE",
"84 167 OFFCURVE",
"40 315 CURVE SMOOTH",
"34 335 OFFCURVE",
"33 360 OFFCURVE",
"33 383 CURVE SMOOTH"
);
}
);
userData = {
com.schriftgestaltung.Glyphs.lastChange = "2019-09-04 17:02:18 +0000";
};
width = 430;
}
);
},
{
glyphname = T.alt;
layers = (
{
anchors = (
{
name = top;
position = "{248, 570}";
}
);
layerId = master01;
paths = (
{
closed = 1;
nodes = (
"17 483 OFFCURVE",
"18 486 OFFCURVE",
"20 490 CURVE SMOOTH",
"51 553 OFFCURVE",
"147 564 OFFCURVE",
"240 564 CURVE SMOOTH",
"289 564 OFFCURVE",
"329 552 OFFCURVE",
"372 546 CURVE SMOOTH",
"417 540 OFFCURVE",
"461 533 OFFCURVE",
"507 530 CURVE SMOOTH",
"515 529 OFFCURVE",
"524 529 OFFCURVE",
"532 529 CURVE SMOOTH",
"546 529 OFFCURVE",
"549 533 OFFCURVE",
"557 543 CURVE SMOOTH",
"580 574 OFFCURVE",
"600 609 OFFCURVE",
"609 653 CURVE SMOOTH",
"611 662 OFFCURVE",
"619 675 OFFCURVE",
"630 675 CURVE SMOOTH",
"635 675 OFFCURVE",
"643 671 OFFCURVE",
"643 665 CURVE SMOOTH",
"643 659 OFFCURVE",
"636 652 OFFCURVE",
"636 644 CURVE SMOOTH",
"636 634 OFFCURVE",
"644 624 OFFCURVE",
"644 615 CURVE SMOOTH",
"644 592 OFFCURVE",
"627 572 OFFCURVE",
"618 557 CURVE SMOOTH",
"611 546 OFFCURVE",
"604 536 OFFCURVE",
"595 527 CURVE SMOOTH",
"581 514 OFFCURVE",
"572 505 OFFCURVE",
"554 495 CURVE SMOOTH",
"533 483 OFFCURVE",
"511 471 OFFCURVE",
"490 459 CURVE SMOOTH",
"472 449 OFFCURVE",
"454 439 OFFCURVE",
"427 439 CURVE SMOOTH",
"404 439 OFFCURVE",
"385 445 OFFCURVE",
"364 448 CURVE SMOOTH",
"348 450 OFFCURVE",
"333 453 OFFCURVE",
"316 453 CURVE SMOOTH",
"290 453 OFFCURVE",
"277 441 OFFCURVE",
"271 418 CURVE SMOOTH",
"265 393 OFFCURVE",
"260 367 OFFCURVE",
"260 339 CURVE SMOOTH",
"260 218 OFFCURVE",
"296 128 OFFCURVE",
"296 9 CURVE SMOOTH",
"296 -52 LINE SMOOTH",
"296 -85 OFFCURVE",
"298 -117 OFFCURVE",
"298 -150 CURVE SMOOTH",
"298 -201 OFFCURVE",
"294 -251 OFFCURVE",
"294 -302 CURVE SMOOTH",
"294 -360 OFFCURVE",
"270 -392 OFFCURVE",
"234 -415 CURVE SMOOTH",
"226 -420 OFFCURVE",
"219 -423 OFFCURVE",
"212 -423 CURVE SMOOTH",
"194 -423 OFFCURVE",
"181 -406 OFFCURVE",
"181 -382 CURVE SMOOTH",
"181 -361 OFFCURVE",
"182 -340 OFFCURVE",
"182 -319 CURVE SMOOTH",
"182 -278 OFFCURVE",
"184 -240 OFFCURVE",
"184 -200 CURVE SMOOTH",
"184 -164 OFFCURVE",
"182 -127 OFFCURVE",
"182 -91 CURVE SMOOTH",
"182 -60 OFFCURVE",
"184 -31 OFFCURVE",
"184 -1 CURVE SMOOTH",
"184 77 OFFCURVE",
"164 150 OFFCURVE",
"164 231 CURVE SMOOTH",
"164 311 OFFCURVE",
"178 379 OFFCURVE",
"201 439 CURVE SMOOTH",
"203 445 OFFCURVE",
"205 450 OFFCURVE",
"205 455 CURVE SMOOTH",
"205 468 OFFCURVE",
"195 476 OFFCURVE",
"179 478 CURVE SMOOTH",
"162 480 OFFCURVE",
"144 482 OFFCURVE",
"125 482 CURVE SMOOTH",
"93 482 OFFCURVE",
"65 478 OFFCURVE",
"42 468 CURVE SMOOTH",
"38 467 OFFCURVE",
"35 466 OFFCURVE",
"32 466 CURVE SMOOTH",
"23 466 OFFCURVE",
"17 472 OFFCURVE",
"17 480 CURVE SMOOTH"
);
}
);
userData = {
com.schriftgestaltung.Glyphs.lastChange = "2019-09-04 17:02:18 +0000";
};
width = 526;
}
);
},
{
glyphname = uni01F7.alt;
layers = (
{
anchors = (
{
name = top;
position = "{338, 622}";
}
);
layerId = master01;
paths = (
{
closed = 1;
nodes = (
"50 451 OFFCURVE",
"59 459 OFFCURVE",
"69 465 CURVE SMOOTH",
"81 472 OFFCURVE",
"94 479 OFFCURVE",
"106 486 CURVE SMOOTH",
"127 498 OFFCURVE",
"127 518 OFFCURVE",
"157 529 CURVE SMOOTH",
"167 533 OFFCURVE",
"198 550 OFFCURVE",
"207 550 CURVE SMOOTH",
"214 550 OFFCURVE",
"226 543 OFFCURVE",
"226 526 CURVE SMOOTH",
"226 503 OFFCURVE",
"220 482 OFFCURVE",
"220 460 CURVE SMOOTH",
"220 445 OFFCURVE",
"220 427 OFFCURVE",
"252 427 CURVE SMOOTH",
"257 427 OFFCURVE",
"263 428 OFFCURVE",
"271 432 CURVE SMOOTH",
"310 450 OFFCURVE",
"347 467 OFFCURVE",
"396 467 CURVE SMOOTH",
"474 467 OFFCURVE",
"546 438 OFFCURVE",
"546 359 CURVE SMOOTH",
"546 260 OFFCURVE",
"478 200 OFFCURVE",
"429 147 CURVE SMOOTH",
"407 123 OFFCURVE",
"390 96 OFFCURVE",
"363 76 CURVE SMOOTH",
"358 72 OFFCURVE",
"356 69 OFFCURVE",
"356 66 CURVE SMOOTH",
"356 52 OFFCURVE",
"397 44 OFFCURVE",
"397 29 CURVE SMOOTH",
"397 26 OFFCURVE",
"395 22 OFFCURVE",
"391 18 CURVE SMOOTH",
"376 4 OFFCURVE",
"363 -14 OFFCURVE",
"339 -14 CURVE SMOOTH",
"321 -14 OFFCURVE",
"305 -6 OFFCURVE",
"286 -6 CURVE SMOOTH",
"267 -6 OFFCURVE",
"264 -13 OFFCURVE",
"264 -25 CURVE SMOOTH",
"264 -32 OFFCURVE",
"265 -40 OFFCURVE",
"265 -49 CURVE SMOOTH",
"266 -71 OFFCURVE",
"267 -92 OFFCURVE",
"267 -114 CURVE SMOOTH",
"267 -192 OFFCURVE",
"266 -274 OFFCURVE",
"248 -339 CURVE SMOOTH",
"239 -371 OFFCURVE",
"210 -388 OFFCURVE",
"176 -401 CURVE SMOOTH",
"163 -406 OFFCURVE",
"153 -409 OFFCURVE",
"147 -409 CURVE SMOOTH",
"141 -409 OFFCURVE",
"137 -406 OFFCURVE",
"137 -399 CURVE SMOOTH",
"137 -394 OFFCURVE",
"137 -386 OFFCURVE",
"140 -376 CURVE SMOOTH",
"157 -309 OFFCURVE",
"159 -224 OFFCURVE",
"159 -140 CURVE SMOOTH",
"159 -82 LINE SMOOTH",
"159 89 OFFCURVE",
"156 219 OFFCURVE",
"130 374 CURVE SMOOTH",
"125 402 OFFCURVE",
"105 414 OFFCURVE",
"68 428 CURVE SMOOTH",
"55 433 OFFCURVE",
"50 438 OFFCURVE",
"50 444 CURVE SMOOTH"
);
},
{
closed = 1;
nodes = (
"241 348 OFFCURVE",
"242 341 OFFCURVE",
"242 334 CURVE SMOOTH",
"248 251 OFFCURVE",
"251 165 OFFCURVE",
"256 80 CURVE SMOOTH",
"257 61 OFFCURVE",
"262 55 OFFCURVE",
"270 55 CURVE SMOOTH",
"279 55 OFFCURVE",
"290 64 OFFCURVE",
"301 75 CURVE SMOOTH",
"327 102 OFFCURVE",
"350 131 OFFCURVE",
"374 159 CURVE SMOOTH",
"409 199 OFFCURVE",
"442 254 OFFCURVE",
"442 330 CURVE SMOOTH",
"442 391 OFFCURVE",
"386 409 OFFCURVE",
"328 409 CURVE SMOOTH",
"305 409 OFFCURVE",
"286 404 OFFCURVE",
"269 395 CURVE SMOOTH",
"246 383 OFFCURVE",
"241 377 OFFCURVE",
"241 353 CURVE SMOOTH"
);
}
);
userData = {
com.fontlab.hintData = {
hhints = (
{
position = -409;
width = 21;
},
{
position = -6;
width = 61;
},
{
position = 409;
width = 18;
}
);
vhints = (
{
position = 159;
width = 108;
},
{
position = 442;
width = 104;
}
);
};
com.schriftgestaltung.Glyphs.lastChange = "2019-09-04 17:02:18 +0000";
};
width = 594;
}
);
},
{
glyphname = a;
lastChange = "2020-03-21 13:11:09 +0000";
layers = (
{
anchors = (
{
name = top;
position = "{291, 450}";
}
);
layerId = master01;
paths = (
{
closed = 1;
nodes = (
"129 187 OFFCURVE",
"140 181 OFFCURVE",
"145 172 CURVE SMOOTH",
"159 148 OFFCURVE",
"175 126 OFFCURVE",
"193 106 CURVE SMOOTH",
"202 97 OFFCURVE",
"213 89 OFFCURVE",
"224 89 CURVE SMOOTH",
"247 89 OFFCURVE",
"260 121 OFFCURVE",
"267 140 CURVE",
"268 163 OFFCURVE",
"271 187 OFFCURVE",
"271 211 CURVE SMOOTH",
"271 249 OFFCURVE",
"267 273 OFFCURVE",
"248 294 CURVE SMOOTH",
"244 298 OFFCURVE",
"242 299 OFFCURVE",
"240 299 CURVE SMOOTH",
"238 299 OFFCURVE",
"236 298 OFFCURVE",
"231 295 CURVE SMOOTH",
"196 269 OFFCURVE",
"169 244 OFFCURVE",
"143 222 CURVE SMOOTH",
"135 216 OFFCURVE",
"129 208 OFFCURVE",
"129 199 CURVE SMOOTH"
);
},
{
closed = 1;
nodes = (
"31 151 OFFCURVE",
"43 172 OFFCURVE",
"55 186 CURVE SMOOTH",
"63 195 OFFCURVE",
"74 202 OFFCURVE",
"83 210 CURVE SMOOTH",
"101 227 OFFCURVE",
"135 248 OFFCURVE",
"158 267 CURVE SMOOTH",
"175 281 OFFCURVE",
"200 303 OFFCURVE",
"221 320 CURVE SMOOTH",
"231 328 OFFCURVE",
"249 342 OFFCURVE",
"256 352 CURVE SMOOTH",
"259 357 OFFCURVE",
"264 366 OFFCURVE",
"270 371 CURVE",
"270 381 LINE SMOOTH",
"270 413 OFFCURVE",
"279 422 OFFCURVE",
"307 431 CURVE SMOOTH",
"309 432 OFFCURVE",
"310 432 OFFCURVE",
"312 432 CURVE SMOOTH",
"323 432 OFFCURVE",
"329 420 OFFCURVE",
"331 410 CURVE SMOOTH",
"333 396 OFFCURVE",
"331 392 OFFCURVE",
"341 384 CURVE SMOOTH",
"347 380 OFFCURVE",
"347 367 OFFCURVE",
"350 360 CURVE SMOOTH",
"358 341 OFFCURVE",
"359 312 OFFCURVE",
"359 286 CURVE SMOOTH",
"359 275 OFFCURVE",
"358 264 OFFCURVE",
"358 253 CURVE SMOOTH",
"358 178 OFFCURVE",
"386 128 OFFCURVE",
"414 79 CURVE SMOOTH",
"420 69 OFFCURVE",
"431 56 OFFCURVE",
"442 56 CURVE SMOOTH",
"447 56 OFFCURVE",
"451 58 OFFCURVE",
"457 63 CURVE SMOOTH",
"469 73 OFFCURVE",
"482 82 OFFCURVE",
"491 95 CURVE SMOOTH",
"508 119 OFFCURVE",
"521 152 OFFCURVE",
"548 166 CURVE SMOOTH",
"551 167 OFFCURVE",
"553 168 OFFCURVE",
"555 168 CURVE SMOOTH",
"562 168 OFFCURVE",
"565 160 OFFCURVE",
"565 151 CURVE SMOOTH",
"565 128 OFFCURVE",
"549 117 OFFCURVE",
"542 98 CURVE SMOOTH",
"532 68 OFFCURVE",
"510 51 OFFCURVE",
"493 28 CURVE SMOOTH",
"469 -3 OFFCURVE",
"441 -38 OFFCURVE",
"389 -38 CURVE SMOOTH",
"366 -38 OFFCURVE",
"350 -29 OFFCURVE",
"333 -20 CURVE SMOOTH",
"323 -15 OFFCURVE",
"314 -10 OFFCURVE",
"306 -2 CURVE SMOOTH",
"283 22 OFFCURVE",
"280 60 OFFCURVE",
"272 98 CURVE",
"250 82 OFFCURVE",
"237 59 OFFCURVE",
"219 40 CURVE SMOOTH",
"202 22 OFFCURVE",
"180 -8 OFFCURVE",
"147 -8 CURVE SMOOTH",
"115 -8 OFFCURVE",
"89 18 OFFCURVE",
"73 36 CURVE SMOOTH",
"54 58 OFFCURVE",
"31 89 OFFCURVE",
"31 127 CURVE SMOOTH"
);
}
);
userData = {
com.schriftgestaltung.Glyphs.lastChange = "2019-09-04 17:02:18 +0000";
};
width = 475;
}
);
leftKerningGroup = a;
unicode = 0061;
},
{
glyphname = aring;
layers = (
{
layerId = master01;
paths = (
{
closed = 1;
nodes = (
"129 187 OFFCURVE",
"140 181 OFFCURVE",
"145 172 CURVE SMOOTH",
"159 148 OFFCURVE",
"175 126 OFFCURVE",
"193 106 CURVE SMOOTH",
"202 97 OFFCURVE",
"213 89 OFFCURVE",
"224 89 CURVE SMOOTH",
"247 89 OFFCURVE",
"260 121 OFFCURVE",
"267 140 CURVE",
"268 163 OFFCURVE",
"271 187 OFFCURVE",
"271 211 CURVE SMOOTH",
"271 249 OFFCURVE",
"267 273 OFFCURVE",
"248 294 CURVE SMOOTH",
"244 298 OFFCURVE",
"242 299 OFFCURVE",
"240 299 CURVE SMOOTH",
"238 299 OFFCURVE",
"236 298 OFFCURVE",
"231 295 CURVE SMOOTH",
"196 269 OFFCURVE",
"169 244 OFFCURVE",
"143 222 CURVE SMOOTH",
"135 216 OFFCURVE",
"129 208 OFFCURVE",
"129 199 CURVE SMOOTH"
);
},
{
closed = 1;
nodes = (
"31 151 OFFCURVE",
"43 172 OFFCURVE",
"55 186 CURVE SMOOTH",
"63 195 OFFCURVE",
"74 202 OFFCURVE",
"83 210 CURVE SMOOTH",
"101 227 OFFCURVE",
"135 248 OFFCURVE",
"158 267 CURVE SMOOTH",
"175 281 OFFCURVE",
"200 303 OFFCURVE",
"221 320 CURVE SMOOTH",
"231 328 OFFCURVE",
"249 342 OFFCURVE",
"256 352 CURVE SMOOTH",
"259 357 OFFCURVE",
"264 366 OFFCURVE",
"270 371 CURVE",
"270 381 LINE SMOOTH",
"270 413 OFFCURVE",
"279 422 OFFCURVE",
"307 431 CURVE SMOOTH",
"309 432 OFFCURVE",
"310 432 OFFCURVE",
"312 432 CURVE SMOOTH",
"323 432 OFFCURVE",
"329 420 OFFCURVE",
"331 410 CURVE SMOOTH",
"333 396 OFFCURVE",
"331 392 OFFCURVE",
"341 384 CURVE SMOOTH",
"347 380 OFFCURVE",
"347 367 OFFCURVE",
"350 360 CURVE SMOOTH",
"358 341 OFFCURVE",
"359 312 OFFCURVE",
"359 286 CURVE SMOOTH",
"359 275 OFFCURVE",
"358 264 OFFCURVE",
"358 253 CURVE SMOOTH",
"358 178 OFFCURVE",
"386 128 OFFCURVE",
"414 79 CURVE SMOOTH",
"420 69 OFFCURVE",
"431 56 OFFCURVE",
"442 56 CURVE SMOOTH",
"447 56 OFFCURVE",
"451 58 OFFCURVE",
"457 63 CURVE SMOOTH",
"469 73 OFFCURVE",
"482 82 OFFCURVE",
"491 95 CURVE SMOOTH",
"508 119 OFFCURVE",
"521 152 OFFCURVE",
"548 166 CURVE SMOOTH",
"551 167 OFFCURVE",
"553 168 OFFCURVE",
"555 168 CURVE SMOOTH",
"562 168 OFFCURVE",
"565 160 OFFCURVE",
"565 151 CURVE SMOOTH",
"565 128 OFFCURVE",
"549 117 OFFCURVE",
"542 98 CURVE SMOOTH",
"532 68 OFFCURVE",
"510 51 OFFCURVE",
"493 28 CURVE SMOOTH",
"469 -3 OFFCURVE",
"441 -38 OFFCURVE",
"389 -38 CURVE SMOOTH",
"366 -38 OFFCURVE",
"350 -29 OFFCURVE",
"333 -20 CURVE SMOOTH",
"323 -15 OFFCURVE",
"314 -10 OFFCURVE",
"306 -2 CURVE SMOOTH",
"283 22 OFFCURVE",
"280 60 OFFCURVE",
"272 98 CURVE",
"250 82 OFFCURVE",
"237 59 OFFCURVE",
"219 40 CURVE SMOOTH",
"202 22 OFFCURVE",
"180 -8 OFFCURVE",
"147 -8 CURVE SMOOTH",
"115 -8 OFFCURVE",
"89 18 OFFCURVE",
"73 36 CURVE SMOOTH",
"54 58 OFFCURVE",
"31 89 OFFCURVE",
"31 127 CURVE SMOOTH"
);
},
{
closed = 1;
nodes = (
"218 651 OFFCURVE",
"221 638 OFFCURVE",
"225 627 CURVE SMOOTH",
"235 602 OFFCURVE",
"252 560 OFFCURVE",
"287 560 CURVE SMOOTH",
"310 560 OFFCURVE",
"318 582 OFFCURVE",
"318 605 CURVE SMOOTH",
"318 651 OFFCURVE",
"288 685 OFFCURVE",
"255 699 CURVE SMOOTH",
"252 700 OFFCURVE",
"250 700 OFFCURVE",
"247 700 CURVE SMOOTH",
"229 700 OFFCURVE",
"218 684 OFFCURVE",
"218 665 CURVE SMOOTH"
);
},
{
closed = 1;
nodes = (
"157 662 OFFCURVE",
"170 682 OFFCURVE",
"186 701 CURVE SMOOTH",
"202 720 OFFCURVE",
"236 751 OFFCURVE",
"280 751 CURVE SMOOTH",
"330 751 OFFCURVE",
"371 712 OFFCURVE",
"371 661 CURVE SMOOTH",
"371 648 OFFCURVE",
"361 613 OFFCURVE",
"358 600 CURVE SMOOTH",
"349 557 OFFCURVE",
"326 524 OFFCURVE",
"287 509 CURVE SMOOTH",
"285 508 OFFCURVE",
"284 508 OFFCURVE",
"282 508 CURVE SMOOTH",
"277 508 OFFCURVE",
"274 511 OFFCURVE",
"266 511 CURVE SMOOTH",
"261 511 OFFCURVE",
"251 509 OFFCURVE",
"241 509 CURVE SMOOTH",
"189 509 OFFCURVE",
"157 583 OFFCURVE",
"157 633 CURVE SMOOTH"
);
}
);
width = 475;
}
);
unicode = 00E5;
},
{
glyphname = ae;
layers = (
{
anchors = (
{
name = top;
position = "{264, 450}";
}
);
layerId = master01;
paths = (
{
closed = 1;
nodes = (
"299 324 OFFCURVE",
"300 305 OFFCURVE",
"301 287 CURVE SMOOTH",
"302 280 OFFCURVE",
"304 275 OFFCURVE",
"312 275 CURVE SMOOTH",
"327 275 OFFCURVE",
"337 275 OFFCURVE",
"351 277 CURVE",
"363 291 OFFCURVE",
"390 305 OFFCURVE",
"390 328 CURVE SMOOTH",
"390 334 OFFCURVE",
"388 342 OFFCURVE",
"383 350 CURVE SMOOTH",
"371 369 OFFCURVE",
"355 382 OFFCURVE",
"336 382 CURVE SMOOTH",
"326 382 OFFCURVE",
"316 379 OFFCURVE",
"305 371 CURVE SMOOTH",
"301 368 OFFCURVE",
"300 367 OFFCURVE",
"300 359 CURVE SMOOTH",
"300 354 OFFCURVE",
"299 348 OFFCURVE",
"299 343 CURVE SMOOTH"
);
},
{
closed = 1;
nodes = (
"110 193 OFFCURVE",
"111 191 OFFCURVE",
"114 185 CURVE SMOOTH",
"119 176 OFFCURVE",
"120 162 OFFCURVE",
"124 154 CURVE SMOOTH",
"133 132 OFFCURVE",
"147 107 OFFCURVE",
"175 107 CURVE SMOOTH",
"180 107 OFFCURVE",
"187 108 OFFCURVE",
"193 110 CURVE SMOOTH",
"208 115 OFFCURVE",
"209 126 OFFCURVE",
"209 140 CURVE SMOOTH",
"209 147 OFFCURVE",
"209 157 OFFCURVE",
"210 162 CURVE SMOOTH",
"213 173 OFFCURVE",
"214 186 OFFCURVE",
"214 198 CURVE SMOOTH",
"214 217 OFFCURVE",
"208 235 OFFCURVE",
"207 254 CURVE SMOOTH",
"206 266 OFFCURVE",
"205 267 OFFCURVE",
"198 273 CURVE SMOOTH",
"190 280 OFFCURVE",
"181 286 OFFCURVE",
"171 286 CURVE SMOOTH",
"166 286 OFFCURVE",
"160 285 OFFCURVE",
"153 280 CURVE SMOOTH",
"129 264 OFFCURVE",
"110 233 OFFCURVE",
"110 201 CURVE SMOOTH"
);
},
{
closed = 1;
nodes = (
"6 177 OFFCURVE",
"10 197 OFFCURVE",
"19 212 CURVE SMOOTH",
"52 269 OFFCURVE",
"113 305 OFFCURVE",
"165 342 CURVE SMOOTH",
"183 355 OFFCURVE",
"197 352 OFFCURVE",
"207 381 CURVE SMOOTH",
"213 398 OFFCURVE",
"223 397 OFFCURVE",
"239 411 CURVE SMOOTH",
"258 428 OFFCURVE",
"282 427 OFFCURVE",
"302 435 CURVE SMOOTH",
"326 445 OFFCURVE",
"354 454 OFFCURVE",
"386 454 CURVE SMOOTH",
"433 454 OFFCURVE",
"464 436 OFFCURVE",
"479 403 CURVE SMOOTH",
"480 401 OFFCURVE",
"481 398 OFFCURVE",
"481 396 CURVE SMOOTH",
"481 386 OFFCURVE",
"470 378 OFFCURVE",
"465 371 CURVE SMOOTH",
"454 355 OFFCURVE",
"448 337 OFFCURVE",
"436 322 CURVE SMOOTH",
"430 314 OFFCURVE",
"423 304 OFFCURVE",
"417 295 CURVE SMOOTH",
"416 293 OFFCURVE",
"416 292 OFFCURVE",
"416 290 CURVE SMOOTH",
"416 285 OFFCURVE",
"419 282 OFFCURVE",
"426 282 CURVE SMOOTH",
"429 282 OFFCURVE",
"432 282 OFFCURVE",
"435 282 CURVE SMOOTH",
"485 286 OFFCURVE",
"529 293 OFFCURVE",
"572 301 CURVE SMOOTH",
"577 302 OFFCURVE",
"583 303 OFFCURVE",
"588 303 CURVE SMOOTH",
"598 303 OFFCURVE",
"603 297 OFFCURVE",
"603 289 CURVE SMOOTH",
"603 282 OFFCURVE",
"599 274 OFFCURVE",
"592 269 CURVE SMOOTH",
"568 252 OFFCURVE",
"537 247 OFFCURVE",
"500 242 CURVE SMOOTH",
"475 238 OFFCURVE",
"450 233 OFFCURVE",
"425 231 CURVE SMOOTH",
"406 230 OFFCURVE",
"386 230 OFFCURVE",
"367 227 CURVE SMOOTH",
"353 225 OFFCURVE",
"340 220 OFFCURVE",
"327 216 CURVE SMOOTH",
"318 213 OFFCURVE",
"314 206 OFFCURVE",
"314 189 CURVE SMOOTH",
"314 160 LINE SMOOTH",
"314 131 OFFCURVE",
"322 108 OFFCURVE",
"322 81 CURVE SMOOTH",
"322 74 OFFCURVE",
"330 69 OFFCURVE",
"344 69 CURVE SMOOTH",
"384 69 OFFCURVE",
"407 95 OFFCURVE",
"430 114 CURVE SMOOTH",
"455 135 OFFCURVE",
"480 155 OFFCURVE",
"508 173 CURVE SMOOTH",
"513 177 OFFCURVE",
"518 178 OFFCURVE",
"522 178 CURVE SMOOTH",
"527 178 OFFCURVE",
"531 174 OFFCURVE",
"531 169 CURVE SMOOTH",
"531 165 OFFCURVE",
"530 160 OFFCURVE",
"525 154 CURVE SMOOTH",
"515 141 OFFCURVE",
"501 129 OFFCURVE",
"490 117 CURVE SMOOTH",
"478 104 OFFCURVE",
"467 89 OFFCURVE",
"455 75 CURVE SMOOTH",
"428 45 OFFCURVE",
"390 23 OFFCURVE",
"354 4 CURVE SMOOTH",
"341 -3 OFFCURVE",
"325 -12 OFFCURVE",
"307 -12 CURVE SMOOTH",
"292 -12 OFFCURVE",
"282 -20 OFFCURVE",
"271 -20 CURVE SMOOTH",
"265 -20 OFFCURVE",
"259 -21 OFFCURVE",
"252 -10 CURVE SMOOTH",
"247 -3 OFFCURVE",
"242 3 OFFCURVE",
"236 9 CURVE SMOOTH",
"228 17 OFFCURVE",
"224 20 OFFCURVE",
"219 20 CURVE SMOOTH",
"215 20 OFFCURVE",
"211 19 OFFCURVE",
"203 16 CURVE SMOOTH",
"185 9 OFFCURVE",
"164 4 OFFCURVE",
"147 -2 CURVE SMOOTH",
"137 -6 OFFCURVE",
"126 -8 OFFCURVE",
"115 -8 CURVE SMOOTH",
"60 -8 OFFCURVE",
"52 42 OFFCURVE",
"33 78 CURVE",
"17 94 OFFCURVE",
"6 126 OFFCURVE",
"6 157 CURVE SMOOTH"
);
}
);
userData = {
com.schriftgestaltung.Glyphs.lastChange = "2019-09-04 17:02:18 +0000";
};
width = 499;
}
);
unicode = 00E6;
},
{
glyphname = b;
layers = (
{
anchors = (
{
name = top;
position = "{164, 611}";
}
);
layerId = master01;
paths = (
{
closed = 1;
nodes = (
"-17 574 OFFCURVE",
"-10 591 OFFCURVE",
"2 594 CURVE SMOOTH",
"15 597 OFFCURVE",
"21 602 OFFCURVE",
"29 611 CURVE SMOOTH",
"41 624 OFFCURVE",
"56 633 OFFCURVE",
"65 648 CURVE SMOOTH",
"75 663 OFFCURVE",
"83 673 OFFCURVE",
"103 676 CURVE SMOOTH",
"115 679 OFFCURVE",
"131 685 OFFCURVE",
"142 685 CURVE SMOOTH",
"152 685 OFFCURVE",
"159 681 OFFCURVE",
"159 666 CURVE SMOOTH",
"159 658 OFFCURVE",
"157 650 OFFCURVE",
"157 642 CURVE SMOOTH",
"157 630 OFFCURVE",
"159 618 OFFCURVE",
"159 605 CURVE SMOOTH",
"159 584 OFFCURVE",
"155 567 OFFCURVE",
"155 545 CURVE SMOOTH",
"155 539 OFFCURVE",
"155 533 OFFCURVE",
"155 527 CURVE SMOOTH",
"155 488 OFFCURVE",
"142 459 OFFCURVE",
"140 422 CURVE SMOOTH",
"139 407 OFFCURVE",
"138 393 OFFCURVE",
"138 378 CURVE SMOOTH",
"138 361 OFFCURVE",
"144 353 OFFCURVE",
"163 353 CURVE SMOOTH",
"169 353 OFFCURVE",
"177 353 OFFCURVE",
"183 354 CURVE SMOOTH",
"198 356 OFFCURVE",
"213 359 OFFCURVE",
"228 365 CURVE SMOOTH",
"246 372 OFFCURVE",
"263 384 OFFCURVE",
"287 384 CURVE SMOOTH",
"379 384 OFFCURVE",
"427 314 OFFCURVE",
"427 223 CURVE SMOOTH",
"427 155 OFFCURVE",
"393 125 OFFCURVE",
"360 90 CURVE SMOOTH",
"344 73 OFFCURVE",
"329 54 OFFCURVE",
"310 41 CURVE SMOOTH",
"292 29 OFFCURVE",
"274 21 OFFCURVE",
"258 8 CURVE SMOOTH",
"240 -6 OFFCURVE",
"224 -15 OFFCURVE",
"202 -15 CURVE SMOOTH",
"194 -15 OFFCURVE",
"180 -12 OFFCURVE",
"173 -12 CURVE SMOOTH",
"165 -12 OFFCURVE",
"168 -17 OFFCURVE",
"157 -25 CURVE SMOOTH",
"150 -30 OFFCURVE",
"140 -31 OFFCURVE",
"128 -31 CURVE SMOOTH",
"119 -31 OFFCURVE",
"108 -30 OFFCURVE",
"99 -29 CURVE SMOOTH",
"62 -25 OFFCURVE",
"53 9 OFFCURVE",
"47 41 CURVE SMOOTH",
"43 61 OFFCURVE",
"43 81 OFFCURVE",
"43 106 CURVE SMOOTH",
"43 119 OFFCURVE",
"44 132 OFFCURVE",
"44 144 CURVE SMOOTH",
"44 160 OFFCURVE",
"43 175 OFFCURVE",
"43 191 CURVE SMOOTH",
"43 217 OFFCURVE",
"45 243 OFFCURVE",
"45 268 CURVE SMOOTH",
"45 303 OFFCURVE",
"42 332 OFFCURVE",
"37 363 CURVE SMOOTH",
"29 412 OFFCURVE",
"37 459 OFFCURVE",
"17 494 CURVE SMOOTH",
"9 508 OFFCURVE",
"4 526 OFFCURVE",
"-7 539 CURVE SMOOTH",
"-12 545 OFFCURVE",
"-17 551 OFFCURVE",
"-17 560 CURVE SMOOTH"
);
},
{
closed = 1;
nodes = (
"139 236 OFFCURVE",
"140 199 OFFCURVE",
"148 163 CURVE SMOOTH",
"153 141 OFFCURVE",
"157 119 OFFCURVE",
"157 93 CURVE SMOOTH",
"157 71 LINE SMOOTH",
"157 64 OFFCURVE",
"163 56 OFFCURVE",
"173 56 CURVE SMOOTH",
"180 56 OFFCURVE",
"189 57 OFFCURVE",
"195 58 CURVE SMOOTH",
"256 63 OFFCURVE",
"306 75 OFFCURVE",
"306 147 CURVE SMOOTH",
"306 171 OFFCURVE",
"300 195 OFFCURVE",
"296 220 CURVE SMOOTH",
"288 274 OFFCURVE",
"259 311 OFFCURVE",
"197 311 CURVE SMOOTH",
"185 311 OFFCURVE",
"173 309 OFFCURVE",
"162 306 CURVE SMOOTH",
"142 300 OFFCURVE",
"139 300 OFFCURVE",
"139 274 CURVE SMOOTH"
);
}
);
userData = {
com.schriftgestaltung.Glyphs.lastChange = "2019-09-04 17:02:18 +0000";
};
width = 438;
}
);
unicode = 0062;
},
{
glyphname = c;
layers = (
{
anchors = (
{
name = top;
position = "{168, 450}";
}
);
layerId = master01;
paths = (
{
closed = 1;
nodes = (
"21 248 OFFCURVE",
"50 301 OFFCURVE",
"84 339 CURVE SMOOTH",
"112 371 OFFCURVE",
"137 402 OFFCURVE",
"182 418 CURVE SMOOTH",
"186 420 OFFCURVE",
"190 420 OFFCURVE",
"194 420 CURVE SMOOTH",
"205 420 OFFCURVE",
"212 415 OFFCURVE",
"219 409 CURVE SMOOTH",
"226 403 OFFCURVE",
"234 397 OFFCURVE",
"239 389 CURVE SMOOTH",
"244 382 OFFCURVE",
"245 375 OFFCURVE",
"248 367 CURVE SMOOTH",
"251 359 OFFCURVE",
"259 348 OFFCURVE",
"259 338 CURVE SMOOTH",
"259 327 OFFCURVE",
"245 319 OFFCURVE",
"236 314 CURVE SMOOTH",
"227 309 OFFCURVE",
"218 302 OFFCURVE",
"209 297 CURVE SMOOTH",
"198 291 OFFCURVE",
"185 287 OFFCURVE",
"175 281 CURVE SMOOTH",
"172 279 OFFCURVE",
"168 278 OFFCURVE",
"164 278 CURVE SMOOTH",
"158 278 OFFCURVE",
"154 281 OFFCURVE",
"154 290 CURVE SMOOTH",
"154 292 OFFCURVE",
"155 295 OFFCURVE",
"155 297 CURVE SMOOTH",
"155 309 OFFCURVE",
"150 314 OFFCURVE",
"135 314 CURVE SMOOTH",
"129 314 OFFCURVE",
"122 314 OFFCURVE",
"118 312 CURVE",
"108 297 OFFCURVE",
"100 277 OFFCURVE",
"100 255 CURVE SMOOTH",
"100 215 OFFCURVE",
"115 190 OFFCURVE",
"128 161 CURVE SMOOTH",
"139 137 OFFCURVE",
"149 113 OFFCURVE",
"166 95 CURVE SMOOTH",
"171 89 OFFCURVE",
"178 84 OFFCURVE",
"183 78 CURVE",
"188 77 OFFCURVE",
"190 73 OFFCURVE",
"194 70 CURVE SMOOTH",
"202 64 OFFCURVE",
"214 56 OFFCURVE",
"227 56 CURVE SMOOTH",
"246 56 OFFCURVE",
"260 78 OFFCURVE",
"263 95 CURVE SMOOTH",
"264 101 OFFCURVE",
"267 107 OFFCURVE",
"272 107 CURVE SMOOTH",
"274 107 OFFCURVE",
"275 107 OFFCURVE",
"277 106 CURVE SMOOTH",
"285 103 OFFCURVE",
"296 97 OFFCURVE",
"296 86 CURVE SMOOTH",
"296 84 OFFCURVE",
"296 82 OFFCURVE",
"295 79 CURVE SMOOTH",
"285 50 OFFCURVE",
"268 21 OFFCURVE",
"241 9 CURVE SMOOTH",
"231 5 OFFCURVE",
"220 3 OFFCURVE",
"209 -1 CURVE SMOOTH",
"200 -4 OFFCURVE",
"190 -8 OFFCURVE",
"180 -10 CURVE SMOOTH",
"168 -13 OFFCURVE",
"156 -15 OFFCURVE",
"145 -18 CURVE SMOOTH",
"142 -19 OFFCURVE",
"139 -19 OFFCURVE",
"137 -19 CURVE SMOOTH",
"125 -19 OFFCURVE",
"112 -7 OFFCURVE",
"106 0 CURVE SMOOTH",
"98 9 OFFCURVE",
"91 20 OFFCURVE",
"84 30 CURVE SMOOTH",
"56 70 OFFCURVE",
"21 119 OFFCURVE",
"21 182 CURVE SMOOTH"
);
}
);
userData = {
com.schriftgestaltung.Glyphs.lastChange = "2019-09-04 17:02:18 +0000";
};
width = 302;
}
);
unicode = 0063;
},
{
glyphname = ccedilla;
layers = (
{
layerId = master01;
paths = (
{
closed = 1;
nodes = (
"-36 -171 OFFCURVE",
"-31 -166 OFFCURVE",
"-23 -162 CURVE SMOOTH",
"11 -146 LINE SMOOTH",
"21 -141 OFFCURVE",
"29 -143 OFFCURVE",
"38 -151 CURVE SMOOTH",
"45 -157 OFFCURVE",
"63 -172 OFFCURVE",
"76 -172 CURVE SMOOTH",
"81 -172 OFFCURVE",
"86 -170 OFFCURVE",
"88 -164 CURVE SMOOTH",
"90 -158 OFFCURVE",
"91 -152 OFFCURVE",
"91 -146 CURVE SMOOTH",
"91 -136 OFFCURVE",
"88 -126 OFFCURVE",
"81 -118 CURVE SMOOTH",
"74 -110 OFFCURVE",
"60 -98 OFFCURVE",
"40 -82 CURVE SMOOTH",
"36 -79 OFFCURVE",
"34 -75 OFFCURVE",
"34 -71 CURVE SMOOTH",
"34 -64 OFFCURVE",
"42 -56 OFFCURVE",
"57 -46 CURVE SMOOTH",
"114.527 -8.456 LINE",
"111.056 -5.511 OFFCURVE",
"108.099 -2.449 OFFCURVE",
"106 0 CURVE SMOOTH",
"98 9 OFFCURVE",
"91 20 OFFCURVE",
"84 30 CURVE SMOOTH",
"56 70 OFFCURVE",
"21 119 OFFCURVE",
"21 182 CURVE SMOOTH",
"21 248 OFFCURVE",
"50 301 OFFCURVE",
"84 339 CURVE SMOOTH",
"112 371 OFFCURVE",
"137 402 OFFCURVE",
"182 418 CURVE SMOOTH",
"186 420 OFFCURVE",
"190 420 OFFCURVE",
"194 420 CURVE SMOOTH",
"205 420 OFFCURVE",
"212 415 OFFCURVE",
"219 409 CURVE SMOOTH",
"226 403 OFFCURVE",
"234 397 OFFCURVE",
"239 389 CURVE SMOOTH",
"244 382 OFFCURVE",
"245 375 OFFCURVE",
"248 367 CURVE SMOOTH",
"251 359 OFFCURVE",
"259 348 OFFCURVE",
"259 338 CURVE SMOOTH",
"259 327 OFFCURVE",
"245 319 OFFCURVE",
"236 314 CURVE SMOOTH",
"227 309 OFFCURVE",
"218 302 OFFCURVE",
"209 297 CURVE SMOOTH",
"198 291 OFFCURVE",
"185 287 OFFCURVE",
"175 281 CURVE SMOOTH",
"172 279 OFFCURVE",
"168 278 OFFCURVE",
"164 278 CURVE SMOOTH",
"158 278 OFFCURVE",
"154 281 OFFCURVE",
"154 290 CURVE SMOOTH",
"154 292 OFFCURVE",
"155 295 OFFCURVE",
"155 297 CURVE SMOOTH",
"155 309 OFFCURVE",
"150 314 OFFCURVE",
"135 314 CURVE SMOOTH",
"129 314 OFFCURVE",
"122 314 OFFCURVE",
"118 312 CURVE SMOOTH",
"108 297 OFFCURVE",
"100 277 OFFCURVE",
"100 255 CURVE SMOOTH",
"100 215 OFFCURVE",
"115 190 OFFCURVE",
"128 161 CURVE SMOOTH",
"139 137 OFFCURVE",
"149 113 OFFCURVE",
"166 95 CURVE SMOOTH",
"171 89 OFFCURVE",
"178 84 OFFCURVE",
"183 78 CURVE SMOOTH",
"188 77 OFFCURVE",
"190 73 OFFCURVE",
"194 70 CURVE SMOOTH",
"202 64 OFFCURVE",
"214 56 OFFCURVE",
"227 56 CURVE SMOOTH",
"246 56 OFFCURVE",
"260 78 OFFCURVE",
"263 95 CURVE SMOOTH",
"264 101 OFFCURVE",
"267 107 OFFCURVE",
"272 107 CURVE SMOOTH",
"274 107 OFFCURVE",
"275 107 OFFCURVE",
"277 106 CURVE SMOOTH",
"285 103 OFFCURVE",
"296 97 OFFCURVE",
"296 86 CURVE SMOOTH",
"296 84 OFFCURVE",
"296 82 OFFCURVE",
"295 79 CURVE SMOOTH",
"285 50 OFFCURVE",
"268 21 OFFCURVE",
"241 9 CURVE SMOOTH",
"231 5 OFFCURVE",
"220 3 OFFCURVE",
"209 -1 CURVE SMOOTH",
"200 -4 OFFCURVE",
"190 -8 OFFCURVE",
"180 -10 CURVE SMOOTH",
"168.072 -12.982 OFFCURVE",
"156.144 -14.976 OFFCURVE",
"145.198 -17.946 CURVE SMOOTH",
"122 -33 LINE SMOOTH",
"117 -36 OFFCURVE",
"114 -39 OFFCURVE",
"114 -43 CURVE SMOOTH",
"114 -46 OFFCURVE",
"116 -50 OFFCURVE",
"121 -54 CURVE SMOOTH",
"136 -66 OFFCURVE",
"163 -102 OFFCURVE",
"163 -129 CURVE SMOOTH",
"163 -169 OFFCURVE",
"103 -198 OFFCURVE",
"72 -209 CURVE SMOOTH",
"52 -216 OFFCURVE",
"38 -219 OFFCURVE",
"32 -219 CURVE SMOOTH",
"7 -219 OFFCURVE",
"-18 -200 OFFCURVE",
"-33 -183 CURVE SMOOTH",
"-35 -180 OFFCURVE",
"-36 -178 OFFCURVE",
"-36 -175 CURVE SMOOTH"
);
}
);
width = 302;
}
);
unicode = 00E7;
},
{
glyphname = d;
layers = (
{
anchors = (
{
name = top;
position = "{217, 596}";
}
);
layerId = master01;
paths = (
{
closed = 1;
nodes = (
"149 238 OFFCURVE",
"156 229 OFFCURVE",
"156 217 CURVE SMOOTH",
"156 211 OFFCURVE",
"154 207 OFFCURVE",
"154 200 CURVE SMOOTH",
"154 175 OFFCURVE",
"155 145 OFFCURVE",
"159 130 CURVE SMOOTH",
"165 108 OFFCURVE",
"179 93 OFFCURVE",
"207 93 CURVE SMOOTH",
"280 93 OFFCURVE",
"280 164 OFFCURVE",
"293 226 CURVE SMOOTH",
"294 232 OFFCURVE",
"295 237 OFFCURVE",
"295 242 CURVE SMOOTH",
"295 266 OFFCURVE",
"280 277 OFFCURVE",
"266 294 CURVE SMOOTH",
"261 300 OFFCURVE",
"253 302 OFFCURVE",
"242 302 CURVE SMOOTH",
"206 302 OFFCURVE",
"149 274 OFFCURVE",
"149 250 CURVE SMOOTH"
);
},
{
closed = 1;
nodes = (
"35 194 OFFCURVE",
"51 220 OFFCURVE",
"74 266 CURVE SMOOTH",
"85 288 OFFCURVE",
"107 303 OFFCURVE",
"128 315 CURVE SMOOTH",
"144 325 OFFCURVE",
"162 335 OFFCURVE",
"177 341 CURVE SMOOTH",
"189 346 OFFCURVE",
"216 357 OFFCURVE",
"225 366 CURVE SMOOTH",
"229 369 OFFCURVE",
"230 373 OFFCURVE",
"230 376 CURVE SMOOTH",
"230 383 OFFCURVE",
"226 390 OFFCURVE",
"222 397 CURVE SMOOTH",
"217 407 OFFCURVE",
"211 417 OFFCURVE",
"204 425 CURVE SMOOTH",
"188 445 OFFCURVE",
"173 465 OFFCURVE",
"154 482 CURVE SMOOTH",
"123 510 OFFCURVE",
"100 541 OFFCURVE",
"72 572 CURVE SMOOTH",
"62 583 OFFCURVE",
"57 600 OFFCURVE",
"57 616 CURVE SMOOTH",
"57 649 OFFCURVE",
"70 670 OFFCURVE",
"101 670 CURVE SMOOTH",
"148 670 OFFCURVE",
"184 610 OFFCURVE",
"206 584 CURVE SMOOTH",
"262 520 OFFCURVE",
"335 463 OFFCURVE",
"376 385 CURVE SMOOTH",
"392 353 OFFCURVE",
"401 320 OFFCURVE",
"401 282 CURVE SMOOTH",
"401 201 OFFCURVE",
"364 144 OFFCURVE",
"322 99 CURVE SMOOTH",
"294 69 OFFCURVE",
"264 41 OFFCURVE",
"232 17 CURVE SMOOTH",
"211 1 OFFCURVE",
"187 -14 OFFCURVE",
"153 -14 CURVE SMOOTH",
"73 -14 OFFCURVE",
"35 43 OFFCURVE",
"35 124 CURVE SMOOTH"
);
}
);
userData = {
com.schriftgestaltung.Glyphs.lastChange = "2019-09-04 17:02:18 +0000";
};
width = 422;
}
);
unicode = 0064;
},
{
glyphname = eth;
layers = (
{
anchors = (
{
name = top;
position = "{194, 674}";
}
);
layerId = master01;
paths = (
{
closed = 1;
nodes = (
"-30 709 OFFCURVE",
"10 747 OFFCURVE",
"57 747 CURVE SMOOTH",
"92 747 OFFCURVE",
"104 709 OFFCURVE",
"122 688 CURVE SMOOTH",
"156 649 OFFCURVE",
"184 605 OFFCURVE",
"215 563 CURVE",
"269 604 OFFCURVE",
"317 651 OFFCURVE",
"367 695 CURVE SMOOTH",
"389 715 OFFCURVE",
"408 735 OFFCURVE",
"426 759 CURVE SMOOTH",
"440 778 OFFCURVE",
"457 791 OFFCURVE",
"469 813 CURVE SMOOTH",
"470 816 OFFCURVE",
"478 822 OFFCURVE",
"483 822 CURVE SMOOTH",
"486 822 OFFCURVE",
"488 821 OFFCURVE",
"488 814 CURVE SMOOTH",
"488 789 OFFCURVE",
"459 764 OFFCURVE",
"446 750 CURVE SMOOTH",
"423 726 OFFCURVE",
"406 698 OFFCURVE",
"380 676 CURVE SMOOTH",
"329 632 OFFCURVE",
"285 581 OFFCURVE",
"229 543 CURVE",
"248 515 OFFCURVE",
"261 483 OFFCURVE",
"281 455 CURVE SMOOTH",
"304 422 OFFCURVE",
"335 396 OFFCURVE",
"351 356 CURVE SMOOTH",
"362 328 OFFCURVE",
"364 275 OFFCURVE",
"364 231 CURVE SMOOTH",
"364 155 OFFCURVE",
"327 106 OFFCURVE",
"289 64 CURVE SMOOTH",
"264 36 OFFCURVE",
"227 33 OFFCURVE",
"192 14 CURVE SMOOTH",
"172 3 OFFCURVE",
"144 -12 OFFCURVE",
"121 -12 CURVE SMOOTH",
"65 -12 OFFCURVE",
"25 34 OFFCURVE",
"25 92 CURVE SMOOTH",
"25 147 OFFCURVE",
"39 204 OFFCURVE",
"63 237 CURVE SMOOTH",
"74 252 OFFCURVE",
"95 250 OFFCURVE",
"103 268 CURVE SMOOTH",
"116 296 OFFCURVE",
"148 305 OFFCURVE",
"163 332 CURVE SMOOTH",
"170 345 OFFCURVE",
"181 356 OFFCURVE",
"181 371 CURVE SMOOTH",
"181 396 OFFCURVE",
"156 413 OFFCURVE",
"143 427 CURVE SMOOTH",
"134 437 OFFCURVE",
"124 447 OFFCURVE",
"115 457 CURVE",
"86 437 OFFCURVE",
"47 410 OFFCURVE",
"17 384 CURVE SMOOTH",
"11 379 OFFCURVE",
"5 377 OFFCURVE",
"0 377 CURVE SMOOTH",
"-6 377 OFFCURVE",
"-9 380 OFFCURVE",
"-9 385 CURVE SMOOTH",
"-9 399 OFFCURVE",
"19 413 OFFCURVE",
"28 420 CURVE SMOOTH",
"56 441 OFFCURVE",
"73 457 OFFCURVE",
"97 475 CURVE",
"78 495 OFFCURVE",
"59 517 OFFCURVE",
"43 540 CURVE SMOOTH",
"31 557 OFFCURVE",
"20 573 OFFCURVE",
"7 589 CURVE SMOOTH",
"-9 608 OFFCURVE",
"-30 633 OFFCURVE",
"-30 660 CURVE SMOOTH"
);
},
{
closed = 1;
nodes = (
"135 157 OFFCURVE",
"164 117 OFFCURVE",
"190 95 CURVE SMOOTH",
"196 90 OFFCURVE",
"203 88 OFFCURVE",
"210 88 CURVE SMOOTH",
"233 88 OFFCURVE",
"255 113 OFFCURVE",
"263 126 CURVE SMOOTH",
"275 144 OFFCURVE",
"281 171 OFFCURVE",
"281 198 CURVE SMOOTH",
"281 250 OFFCURVE",
"245 268 OFFCURVE",
"225 301 CURVE SMOOTH",
"221 308 OFFCURVE",
"216 311 OFFCURVE",
"212 311 CURVE SMOOTH",
"201 311 OFFCURVE",
"191 294 OFFCURVE",
"186 285 CURVE SMOOTH",
"169 256 OFFCURVE",
"135 244 OFFCURVE",
"135 203 CURVE SMOOTH"
);
}
);
userData = {
com.schriftgestaltung.Glyphs.lastChange = "2019-09-04 17:02:18 +0000";
};
width = 394;
}
);
unicode = 00F0;
},
{
glyphname = e;
layers = (
{
anchors = (
{
name = Below;
position = "{187, -50}";
},
{
name = top;
position = "{206, 450}";
}
);
layerId = master01;
paths = (
{
closed = 1;
nodes = (
"127 285 OFFCURVE",
"134 280 OFFCURVE",
"161 280 CURVE SMOOTH",
"199 280 OFFCURVE",
"237 307 OFFCURVE",
"237 346 CURVE SMOOTH",
"237 372 OFFCURVE",
"218 384 OFFCURVE",
"192 384 CURVE SMOOTH",
"169 384 OFFCURVE",
"151 381 OFFCURVE",
"140 370 CURVE SMOOTH",
"135 365 OFFCURVE",
"134 361 OFFCURVE",
"132 353 CURVE SMOOTH",
"129 340 OFFCURVE",
"127 328 OFFCURVE",
"127 313 CURVE SMOOTH"
);
},
{
closed = 1;
nodes = (
"16 300 OFFCURVE",
"33 319 OFFCURVE",
"46 333 CURVE SMOOTH",
"66 354 OFFCURVE",
"89 371 OFFCURVE",
"115 393 CURVE SMOOTH",
"138 412 OFFCURVE",
"161 425 OFFCURVE",
"182 438 CURVE SMOOTH",
"193 445 OFFCURVE",
"203 451 OFFCURVE",
"215 451 CURVE SMOOTH",
"223 451 OFFCURVE",
"231 449 OFFCURVE",
"240 445 CURVE SMOOTH",
"258 436 OFFCURVE",
"281 428 OFFCURVE",
"300 420 CURVE SMOOTH",
"309 416 OFFCURVE",
"321 409 OFFCURVE",
"321 399 CURVE SMOOTH",
"321 395 OFFCURVE",
"320 391 OFFCURVE",
"318 386 CURVE SMOOTH",
"312 372 OFFCURVE",
"305 357 OFFCURVE",
"297 345 CURVE SMOOTH",
"295 341 OFFCURVE",
"293 337 OFFCURVE",
"293 333 CURVE SMOOTH",
"293 326 OFFCURVE",
"296 321 OFFCURVE",
"305 320 CURVE SMOOTH",
"334 318 OFFCURVE",
"364 317 OFFCURVE",
"394 317 CURVE SMOOTH",
"408 317 OFFCURVE",
"422 318 OFFCURVE",
"436 318 CURVE SMOOTH",
"455 318 LINE SMOOTH",
"468 318 OFFCURVE",
"473 310 OFFCURVE",
"473 302 CURVE SMOOTH",
"473 292 OFFCURVE",
"469 283 OFFCURVE",
"455 278 CURVE SMOOTH",
"395 258 OFFCURVE",
"320 252 OFFCURVE",
"250 241 CURVE SMOOTH",
"237 239 OFFCURVE",
"224 237 OFFCURVE",
"211 237 CURVE SMOOTH",
"199 237 OFFCURVE",
"191 236 OFFCURVE",
"185 234 CURVE SMOOTH",
"179 231 OFFCURVE",
"173 229 OFFCURVE",
"166 227 CURVE SMOOTH",
"154 224 OFFCURVE",
"147 219 OFFCURVE",
"147 208 CURVE SMOOTH",
"147 206 OFFCURVE",
"146 204 OFFCURVE",
"147 201 CURVE SMOOTH",
"151 181 OFFCURVE",
"156 163 OFFCURVE",
"164 145 CURVE SMOOTH",
"171 128 OFFCURVE",
"179 112 OFFCURVE",
"186 96 CURVE SMOOTH",
"193 79 OFFCURVE",
"204 57 OFFCURVE",
"228 57 CURVE SMOOTH",
"250 57 OFFCURVE",
"269 72 OFFCURVE",
"281 84 CURVE SMOOTH",
"311 115 OFFCURVE",
"334 153 OFFCURVE",
"354 195 CURVE SMOOTH",
"357 201 OFFCURVE",
"360 205 OFFCURVE",
"363 205 CURVE SMOOTH",
"366 205 OFFCURVE",
"369 202 OFFCURVE",
"369 195 CURVE SMOOTH",
"369 179.5 OFFCURVE",
"364.411 159.028 OFFCURVE",
"358 143 CURVE SMOOTH",
"351.305 126.262 OFFCURVE",
"343 109 OFFCURVE",
"334 94 CURVE SMOOTH",
"320 71 OFFCURVE",
"300 48 OFFCURVE",
"282 28 CURVE SMOOTH",
"266 10 OFFCURVE",
"240 -1 OFFCURVE",
"216 -11 CURVE SMOOTH",
"207 -15 OFFCURVE",
"197 -17 OFFCURVE",
"188 -17 CURVE SMOOTH",
"156 -17 OFFCURVE",
"118 7 OFFCURVE",
"105 29 CURVE SMOOTH",
"66 95 OFFCURVE",
"35 173 OFFCURVE",
"18 258 CURVE SMOOTH",
"17 264 OFFCURVE",
"16 270 OFFCURVE",
"16 277 CURVE SMOOTH"
);
}
);
userData = {
com.schriftgestaltung.Glyphs.lastChange = "2019-09-04 17:02:18 +0000";
};
width = 364;
}
);
unicode = 0065;
},
{
glyphname = eogonek;
layers = (
{
anchors = (
{
name = top;
position = "{198, 450}";
}
);
layerId = master01;
paths = (
{
closed = 1;
nodes = (
"127 285 OFFCURVE",
"134 280 OFFCURVE",
"161 280 CURVE SMOOTH",
"199 280 OFFCURVE",
"237 307 OFFCURVE",
"237 346 CURVE SMOOTH",
"237 372 OFFCURVE",
"218 384 OFFCURVE",
"192 384 CURVE SMOOTH",
"169 384 OFFCURVE",
"151 381 OFFCURVE",
"140 370 CURVE SMOOTH",
"135 365 OFFCURVE",
"134 361 OFFCURVE",
"132 353 CURVE SMOOTH",
"129 340 OFFCURVE",
"127 328 OFFCURVE",
"127 313 CURVE SMOOTH"
);
},
{
closed = 1;
nodes = (
"16 300 OFFCURVE",
"33 319 OFFCURVE",
"46 333 CURVE SMOOTH",
"66 354 OFFCURVE",
"89 371 OFFCURVE",
"115 393 CURVE SMOOTH",
"138 412 OFFCURVE",
"161 425 OFFCURVE",
"182 438 CURVE SMOOTH",
"193 445 OFFCURVE",
"203 451 OFFCURVE",
"215 451 CURVE SMOOTH",
"223 451 OFFCURVE",
"231 449 OFFCURVE",
"240 445 CURVE SMOOTH",
"258 436 OFFCURVE",
"281 428 OFFCURVE",
"300 420 CURVE SMOOTH",
"309 416 OFFCURVE",
"321 409 OFFCURVE",
"321 399 CURVE SMOOTH",
"321 395 OFFCURVE",
"320 391 OFFCURVE",
"318 386 CURVE SMOOTH",
"312 372 OFFCURVE",
"305 357 OFFCURVE",
"297 345 CURVE SMOOTH",
"295 341 OFFCURVE",
"293 337 OFFCURVE",
"293 333 CURVE SMOOTH",
"293 326 OFFCURVE",
"296 321 OFFCURVE",
"305 320 CURVE SMOOTH",
"334 318 OFFCURVE",
"364 317 OFFCURVE",
"394 317 CURVE SMOOTH",
"408 317 OFFCURVE",
"422 318 OFFCURVE",
"436 318 CURVE SMOOTH",
"455 318 LINE SMOOTH",
"468 318 OFFCURVE",
"473 310 OFFCURVE",
"473 302 CURVE SMOOTH",
"473 292 OFFCURVE",
"469 283 OFFCURVE",
"455 278 CURVE SMOOTH",
"395 258 OFFCURVE",
"320 252 OFFCURVE",
"250 241 CURVE SMOOTH",
"237 239 OFFCURVE",
"224 237 OFFCURVE",
"211 237 CURVE SMOOTH",
"199 237 OFFCURVE",
"191 236 OFFCURVE",
"185 234 CURVE SMOOTH",
"179 231 OFFCURVE",
"173 229 OFFCURVE",
"166 227 CURVE SMOOTH",
"154 224 OFFCURVE",
"147 219 OFFCURVE",
"147 208 CURVE SMOOTH",
"147 206 OFFCURVE",
"146 204 OFFCURVE",
"147 201 CURVE SMOOTH",
"151 181 OFFCURVE",
"156 163 OFFCURVE",
"164 145 CURVE SMOOTH",
"171 128 OFFCURVE",
"179 112 OFFCURVE",
"186 96 CURVE SMOOTH",
"193 79 OFFCURVE",
"204 57 OFFCURVE",
"228 57 CURVE SMOOTH",
"250 57 OFFCURVE",
"269 72 OFFCURVE",
"281 84 CURVE SMOOTH",
"311 115 OFFCURVE",
"334 153 OFFCURVE",
"354 195 CURVE SMOOTH",
"357 201 OFFCURVE",
"360 205 OFFCURVE",
"363 205 CURVE SMOOTH",
"366 205 OFFCURVE",
"369 202 OFFCURVE",
"369 195 CURVE SMOOTH",
"369 179.5 OFFCURVE",
"364.411 159.028 OFFCURVE",
"358 143 CURVE SMOOTH",
"351.305 126.262 OFFCURVE",
"343 109 OFFCURVE",
"334 94 CURVE SMOOTH",
"320 71 OFFCURVE",
"300 48 OFFCURVE",
"282 28 CURVE SMOOTH",
"266 10 OFFCURVE",
"240 -1 OFFCURVE",
"216 -11 CURVE SMOOTH",
"207 -15 OFFCURVE",
"197 -17 OFFCURVE",
"188 -17 CURVE SMOOTH",
"156 -17 OFFCURVE",
"118 7 OFFCURVE",
"105 29 CURVE SMOOTH",
"66 95 OFFCURVE",
"35 173 OFFCURVE",
"18 258 CURVE SMOOTH",
"17 264 OFFCURVE",
"16 270 OFFCURVE",
"16 277 CURVE SMOOTH"
);
},
{
closed = 1;
nodes = (
"-228 -350 OFFCURVE",
"-211 -327 OFFCURVE",
"-195 -308 CURVE SMOOTH",
"-184 -295 OFFCURVE",
"-174 -282 OFFCURVE",
"-162 -270 CURVE SMOOTH",
"-120 -228 OFFCURVE",
"-58 -205 OFFCURVE",
"-18 -160 CURVE SMOOTH",
"0 -140 OFFCURVE",
"6 -120 OFFCURVE",
"44 -120 CURVE SMOOTH",
"57 -120 OFFCURVE",
"71 -122 OFFCURVE",
"71 -132 CURVE SMOOTH",
"71 -149 OFFCURVE",
"50 -164 OFFCURVE",
"42 -175 CURVE SMOOTH",
"19 -205 OFFCURVE",
"-12 -227 OFFCURVE",
"-44 -248 CURVE SMOOTH",
"-52 -253 OFFCURVE",
"-84 -266 OFFCURVE",
"-84 -282 CURVE SMOOTH",
"-84 -291 OFFCURVE",
"-76 -296 OFFCURVE",
"-68 -296 CURVE SMOOTH",
"-17 -296 OFFCURVE",
"135 -143 OFFCURVE",
"187 -81 CURVE SMOOTH",
"195 -71 OFFCURVE",
"202 -66 OFFCURVE",
"206 -66 CURVE SMOOTH",
"209 -66 OFFCURVE",
"211 -68 OFFCURVE",
"211 -72 CURVE SMOOTH",
"211 -77 OFFCURVE",
"207 -86 OFFCURVE",
"200 -96 CURVE SMOOTH",
"175 -131 OFFCURVE",
"147 -164 OFFCURVE",
"121 -198 CURVE SMOOTH",
"78 -255 OFFCURVE",
"21 -297 OFFCURVE",
"-45 -331 CURVE SMOOTH",
"-95 -357 OFFCURVE",
"-130 -398 OFFCURVE",
"-190 -414 CURVE SMOOTH",
"-195 -415 OFFCURVE",
"-199 -416 OFFCURVE",
"-203 -416 CURVE SMOOTH",
"-222 -416 OFFCURVE",
"-228 -401 OFFCURVE",
"-228 -383 CURVE SMOOTH"
);
}
);
userData = {
com.schriftgestaltung.Glyphs.lastChange = "2019-09-04 17:02:18 +0000";
};
width = 364;
}
);
unicode = 0119;
},
{
glyphname = f;
lastChange = "2020-03-21 13:09:54 +0000";
layers = (
{
anchors = (
{
name = top;
position = "{257, 450}";
}
);
layerId = master01;
paths = (
{
closed = 1;
nodes = (
"29 262 OFFCURVE",
"37 273 OFFCURVE",
"43 276 CURVE SMOOTH",
"58 284 OFFCURVE",
"65 292 OFFCURVE",
"79 303 CURVE SMOOTH",
"92 313 OFFCURVE",
"109 321 OFFCURVE",
"119 336 CURVE SMOOTH",
"124 343 OFFCURVE",
"127 345 OFFCURVE",
"132 345 CURVE SMOOTH",
"139 345 OFFCURVE",
"151 340 OFFCURVE",
"160 333 CURVE SMOOTH",
"175 322 OFFCURVE",
"174 312 OFFCURVE",
"188 299 CURVE SMOOTH",
"196 292 OFFCURVE",
"204 288 OFFCURVE",
"210 288 CURVE SMOOTH",
"216 288 OFFCURVE",
"221 291 OFFCURVE",
"226 298 CURVE SMOOTH",
"250 328 OFFCURVE",
"266 366 OFFCURVE",
"304 381 CURVE SMOOTH",
"322 388 OFFCURVE",
"341 390 OFFCURVE",
"363 390 CURVE SMOOTH",
"396 390 OFFCURVE",
"419 375 OFFCURVE",
"439 359 CURVE SMOOTH",
"445 354 OFFCURVE",
"450 344 OFFCURVE",
"450 334 CURVE SMOOTH",
"450 330 OFFCURVE",
"450 326 OFFCURVE",
"448 323 CURVE SMOOTH",
"414 255 LINE SMOOTH",
"412 250 OFFCURVE",
"400 246 OFFCURVE",
"390 246 CURVE SMOOTH",
"384 246 OFFCURVE",
"378 247 OFFCURVE",
"373 251 CURVE SMOOTH",
"354 268 OFFCURVE",
"324 278 OFFCURVE",
"300 278 CURVE SMOOTH",
"281 278 OFFCURVE",
"265 271 OFFCURVE",
"255 249 CURVE SMOOTH",
"243 222 OFFCURVE",
"237 183 OFFCURVE",
"230 147 CURVE SMOOTH",
"229 143 OFFCURVE",
"229 122 OFFCURVE",
"229 119 CURVE SMOOTH",
"229 100 OFFCURVE",
"239 90 OFFCURVE",
"254 88 CURVE SMOOTH",
"307 82 OFFCURVE",
"359 79 OFFCURVE",
"415 76 CURVE SMOOTH",
"461 74 OFFCURVE",
"500 74 OFFCURVE",
"548 73 CURVE SMOOTH",
"559 73 OFFCURVE",
"573 57 OFFCURVE",
"573 44 CURVE SMOOTH",
"573 29 OFFCURVE",
"559 13 OFFCURVE",
"546 12 CURVE SMOOTH",
"539 11 OFFCURVE",
"531 11 OFFCURVE",
"524 10 CURVE SMOOTH",
"486 6 OFFCURVE",
"451 3 OFFCURVE",
"414 3 CURVE SMOOTH",
"383 3 OFFCURVE",
"353 4 OFFCURVE",
"323 4 CURVE SMOOTH",
"293 4 OFFCURVE",
"271 0 OFFCURVE",
"250 -8 CURVE SMOOTH",
"225 -17 OFFCURVE",
"220 -21 OFFCURVE",
"216 -53 CURVE SMOOTH",
"210 -96 OFFCURVE",
"207 -142 OFFCURVE",
"204 -177 CURVE SMOOTH",
"196 -284 OFFCURVE",
"198 -339 OFFCURVE",
"169 -410 CURVE SMOOTH",
"164 -424 OFFCURVE",
"150 -431 OFFCURVE",
"140 -431 CURVE SMOOTH",
"131 -431 OFFCURVE",
"123 -424 OFFCURVE",
"123 -408 CURVE SMOOTH",
"123 -406 OFFCURVE",
"124 -403 OFFCURVE",
"124 -400 CURVE SMOOTH",
"126 -383 OFFCURVE",
"127 -365 OFFCURVE",
"127 -346 CURVE SMOOTH",
"127 -276 OFFCURVE",
"121 -203 OFFCURVE",
"121 -129 CURVE SMOOTH",
"121 -24 OFFCURVE",
"118 87 OFFCURVE",
"104 180 CURVE SMOOTH",
"101 201 OFFCURVE",
"99 210 OFFCURVE",
"85 219 CURVE SMOOTH",
"70 229 OFFCURVE",
"57 237 OFFCURVE",
"39 241 CURVE SMOOTH",
"31 243 OFFCURVE",
"29 249 OFFCURVE",
"29 255 CURVE SMOOTH"
);
}
);
userData = {
com.schriftgestaltung.Glyphs.lastChange = "2019-09-04 17:02:18 +0000";
};
width = 466;
}
);
leftKerningGroup = f;
unicode = 0066;
},
{
glyphname = g;
layers = (
{
anchors = (
{
name = top;
position = "{202, 450}";
}
);
layerId = master01;
paths = (
{
closed = 1;
nodes = (
"31 -357 OFFCURVE",
"33 -352 OFFCURVE",
"38 -345 CURVE SMOOTH",
"56 -320 OFFCURVE",
"98 -292 OFFCURVE",
"140 -292 CURVE SMOOTH",
"154 -292 OFFCURVE",
"165 -296 OFFCURVE",
"178 -296 CURVE SMOOTH",
"202 -296 OFFCURVE",
"209 -271 OFFCURVE",
"209 -244 CURVE SMOOTH",
"209 -131 OFFCURVE",
"115 -101 OFFCURVE",
"77 -24 CURVE SMOOTH",
"69 -9 OFFCURVE",
"63 9 OFFCURVE",
"63 31 CURVE SMOOTH",
"63 71 OFFCURVE",
"79 105 OFFCURVE",
"88 140 CURVE SMOOTH",
"96 170 OFFCURVE",
"112 192 OFFCURVE",
"123 218 CURVE SMOOTH",
"126 225 OFFCURVE",
"130 235 OFFCURVE",
"130 244 CURVE SMOOTH",
"130 253 OFFCURVE",
"123 257 OFFCURVE",
"107 257 CURVE SMOOTH",
"71 257 OFFCURVE",
"32 260 OFFCURVE",
"32 298 CURVE SMOOTH",
"32 345 OFFCURVE",
"54 344 OFFCURVE",
"84 364 CURVE SMOOTH",
"97 373 OFFCURVE",
"111 377 OFFCURVE",
"125 377 CURVE SMOOTH",
"144 377 OFFCURVE",
"164 371 OFFCURVE",
"179 359 CURVE SMOOTH",
"190 350 OFFCURVE",
"202 342 OFFCURVE",
"219 342 CURVE SMOOTH",
"223 342 OFFCURVE",
"227 343 OFFCURVE",
"232 344 CURVE SMOOTH",
"273 353 OFFCURVE",
"306 378 OFFCURVE",
"328 407 CURVE SMOOTH",
"331 410 OFFCURVE",
"347 432 OFFCURVE",
"359 432 CURVE SMOOTH",
"363 432 OFFCURVE",
"369 427 OFFCURVE",
"369 419 CURVE SMOOTH",
"369 407 OFFCURVE",
"353 395 OFFCURVE",
"347 388 CURVE SMOOTH",
"312 345 OFFCURVE",
"267 315 OFFCURVE",
"220 283 CURVE SMOOTH",
"204 272 OFFCURVE",
"198 270 OFFCURVE",
"193 247 CURVE SMOOTH",
"185 213 OFFCURVE",
"179 178 OFFCURVE",
"179 137 CURVE SMOOTH",
"179 94 OFFCURVE",
"182 64 OFFCURVE",
"204 42 CURVE SMOOTH",
"225 21 OFFCURVE",
"247 3 OFFCURVE",
"263 -23 CURVE SMOOTH",
"275 -43 OFFCURVE",
"284 -63 OFFCURVE",
"295 -83 CURVE SMOOTH",
"306 -105 OFFCURVE",
"315 -125 OFFCURVE",
"315 -155 CURVE SMOOTH",
"315 -204 OFFCURVE",
"315 -248 OFFCURVE",
"281 -265 CURVE SMOOTH",
"255 -278 OFFCURVE",
"214 -300 OFFCURVE",
"212 -333 CURVE SMOOTH",
"210 -370 OFFCURVE",
"178 -389 OFFCURVE",
"155 -406 CURVE SMOOTH",
"148 -411 OFFCURVE",
"141 -413 OFFCURVE",
"134 -413 CURVE SMOOTH",
"117 -413 OFFCURVE",
"102 -400 OFFCURVE",
"88 -394 CURVE SMOOTH",
"71 -386 OFFCURVE",
"31 -383 OFFCURVE",
"31 -362 CURVE SMOOTH"
);
}
);
userData = {
com.schriftgestaltung.Glyphs.lastChange = "2019-09-04 17:02:18 +0000";
};
width = 360;
}
);
unicode = 0067;
},
{
glyphname = h;
lastChange = "2020-03-21 13:07:16 +0000";
layers = (
{
anchors = (
{
name = top;
position = "{159, 701}";
}
);
layerId = master01;
paths = (
{
closed = 1;
nodes = (
"-33 605 OFFCURVE",
"-30 615 OFFCURVE",
"-22 619 CURVE SMOOTH",
"1 631 OFFCURVE",
"6 655 OFFCURVE",
"17 678 CURVE SMOOTH",
"26 696 OFFCURVE",
"53 717 OFFCURVE",
"77 717 CURVE SMOOTH",
"91 717 OFFCURVE",
"100 707 OFFCURVE",
"107 698 CURVE SMOOTH",
"118 685 OFFCURVE",
"123 676 OFFCURVE",
"123 651 CURVE SMOOTH",
"123 623 LINE SMOOTH",
"123 604 OFFCURVE",
"121 584 OFFCURVE",
"121 565 CURVE SMOOTH",
"121 506 OFFCURVE",
"132 489 OFFCURVE",
"132 428 CURVE SMOOTH",
"132 402 OFFCURVE",
"131 377 OFFCURVE",
"130 351 CURVE SMOOTH",
"130 345 OFFCURVE",
"130 339 OFFCURVE",
"130 333 CURVE SMOOTH",
"130 319 OFFCURVE",
"134 315 OFFCURVE",
"140 315 CURVE SMOOTH",
"146 315 OFFCURVE",
"156 319 OFFCURVE",
"166 323 CURVE SMOOTH",
"201 335 OFFCURVE",
"239 345 OFFCURVE",
"266 366 CURVE SMOOTH",
"280 377 OFFCURVE",
"294 386 OFFCURVE",
"311 386 CURVE SMOOTH",
"320 386 OFFCURVE",
"329 384 OFFCURVE",
"340 379 CURVE SMOOTH",
"380 362 OFFCURVE",
"408 338 OFFCURVE",
"408 282 CURVE SMOOTH",
"408 242 OFFCURVE",
"390 211 OFFCURVE",
"390 170 CURVE SMOOTH",
"390 140 OFFCURVE",
"402 115 OFFCURVE",
"410 92 CURVE SMOOTH",
"417 72 OFFCURVE",
"426 65 OFFCURVE",
"449 61 CURVE SMOOTH",
"466 58 OFFCURVE",
"481 46 OFFCURVE",
"481 32 CURVE SMOOTH",
"481 25 OFFCURVE",
"478 18 OFFCURVE",
"468 11 CURVE SMOOTH",
"441 -7 OFFCURVE",
"419 -27 OFFCURVE",
"373 -27 CURVE SMOOTH",
"327 -27 OFFCURVE",
"285 -21 OFFCURVE",
"285 28 CURVE SMOOTH",
"285 66 OFFCURVE",
"295 101 OFFCURVE",
"295 138 CURVE SMOOTH",
"295 164 OFFCURVE",
"290 188 OFFCURVE",
"285 212 CURVE SMOOTH",
"278 248 OFFCURVE",
"262 281 OFFCURVE",
"218 281 CURVE SMOOTH",
"181 281 OFFCURVE",
"172 258 OFFCURVE",
"157 237 CURVE SMOOTH",
"149 226 OFFCURVE",
"141 216 OFFCURVE",
"136 202 CURVE",
"140 176 OFFCURVE",
"144 150 OFFCURVE",
"145 120 CURVE SMOOTH",
"146 92 OFFCURVE",
"195 101 OFFCURVE",
"195 76 CURVE SMOOTH",
"195 70 OFFCURVE",
"193 63 OFFCURVE",
"187 53 CURVE SMOOTH",
"166 19 OFFCURVE",
"136 0 OFFCURVE",
"81 0 CURVE SMOOTH",
"52 0 OFFCURVE",
"39 15 OFFCURVE",
"39 38 CURVE SMOOTH",
"39 60 OFFCURVE",
"49 82 OFFCURVE",
"49 105 CURVE SMOOTH",
"49 126 OFFCURVE",
"46 146 OFFCURVE",
"46 168 CURVE SMOOTH",
"46 185 OFFCURVE",
"47 206 OFFCURVE",
"47 223 CURVE SMOOTH",
"47 292 OFFCURVE",
"34 344 OFFCURVE",
"34 402 CURVE SMOOTH",
"34 425 OFFCURVE",
"20 469 OFFCURVE",
"17 517 CURVE SMOOTH",
"16 533 OFFCURVE",
"13 536 OFFCURVE",
"6 545 CURVE SMOOTH",
"-1 553 OFFCURVE",
"-7 560 OFFCURVE",
"-15 566 CURVE SMOOTH",
"-24 573 OFFCURVE",
"-33 580 OFFCURVE",
"-33 595 CURVE SMOOTH"
);
}
);
userData = {
com.schriftgestaltung.Glyphs.lastChange = "2019-09-04 17:02:18 +0000";
};
width = 484;
}
);
leftKerningGroup = h;
unicode = 0068;
},
